  0
SECTION
  2
BLOCKS
  0
ENDSEC
  0
SECTION
  2
ENTITIES
  0
LINE
  8
0
 10
69.5
 20
244
 11
65.5
 21
244
  0
LINE
  8
0
 10
65.5
 20
244
 11
65.5
 21
247
  0
LINE
  8
0
 10
65.5
 20
247
 11
62.5
 21
247
  0
LINE
  8
0
 10
62.5
 20
247
 11
62.5
 21
238
  0
LINE
  8
0
 10
62.5
 20
238
 11
75.5
 21
238
  0
LINE
  8
0
 10
75.5
 20
238
 11
69.5
 21
244
  0
LINE
  8
0
 10
51
 20
244
 11
47
 21
244
  0
LINE
  8
0
 10
47
 20
244
 11
47
 21
247
  0
LINE
  8
0
 10
47
 20
247
 11
44
 21
247
  0
LINE
  8
0
 10
44
 20
247
 11
44
 21
238
  0
LINE
  8
0
 10
44
 20
238
 11
57
 21
238
  0
LINE
  8
0
 10
57
 20
238
 11
51
 21
244
  0
LINE
  8
0
 10
32.5
 20
244
 11
28.5
 21
244
  0
LINE
  8
0
 10
28.5
 20
244
 11
28.5
 21
247
  0
LINE
  8
0
 10
28.5
 20
247
 11
25.5
 21
247
  0
LINE
  8
0
 10
25.5
 20
247
 11
25.5
 21
238
  0
LINE
  8
0
 10
25.5
 20
238
 11
38.5
 21
238
  0
LINE
  8
0
 10
38.5
 20
238
 11
32.5
 21
244
  0
LINE
  8
0
 10
14
 20
244
 11
10
 21
244
  0
LINE
  8
0
 10
10
 20
244
 11
10
 21
247
  0
LINE
  8
0
 10
10
 20
247
 11
7
 21
247
  0
LINE
  8
0
 10
7
 20
247
 11
7
 21
238
  0
LINE
  8
0
 10
7
 20
238
 11
20
 21
238
  0
LINE
  8
0
 10
20
 20
238
 11
14
 21
244
  0
LINE
  8
0
 10
74.5
 20
212
 11
69.5
 21
212
  0
LINE
  8
0
 10
69.5
 20
212
 11
69.5
 21
237
  0
LINE
  8
0
 10
69.5
 20
237
 11
61.5
 21
237
  0
LINE
  8
0
 10
61.5
 20
237
 11
61.5
 21
212
  0
LINE
  8
0
 10
61.5
 20
212
 11
56.5
 21
212
  0
LINE
  8
0
 10
56.5
 20
212
 11
56.5
 21
208
  0
LINE
  8
0
 10
56.5
 20
208
 11
74.5
 21
208
  0
LINE
  8
0
 10
74.5
 20
208
 11
74.5
 21
212
  0
LINE
  8
0
 10
64.15
 20
227
 11
64.15
 21
233
  0
LINE
  8
0
 10
64.15
 20
233
 11
66.85
 21
233
  0
LINE
  8
0
 10
66.85
 20
233
 11
66.85
 21
227
  0
LINE
  8
0
 10
66.85
 20
227
 11
64.15
 21
227
  0
LINE
  8
0
 10
56
 20
212
 11
51
 21
212
  0
LINE
  8
0
 10
51
 20
212
 11
51
 21
237
  0
LINE
  8
0
 10
51
 20
237
 11
43
 21
237
  0
LINE
  8
0
 10
43
 20
237
 11
43
 21
212
  0
LINE
  8
0
 10
43
 20
212
 11
38
 21
212
  0
LINE
  8
0
 10
38
 20
212
 11
38
 21
208
  0
LINE
  8
0
 10
38
 20
208
 11
56
 21
208
  0
LINE
  8
0
 10
56
 20
208
 11
56
 21
212
  0
LINE
  8
0
 10
45.65
 20
227
 11
45.65
 21
233
  0
LINE
  8
0
 10
45.65
 20
233
 11
48.35
 21
233
  0
LINE
  8
0
 10
48.35
 20
233
 11
48.35
 21
227
  0
LINE
  8
0
 10
48.35
 20
227
 11
45.65
 21
227
  0
LINE
  8
0
 10
37.5
 20
212
 11
32.5
 21
212
  0
LINE
  8
0
 10
32.5
 20
212
 11
32.5
 21
237
  0
LINE
  8
0
 10
32.5
 20
237
 11
24.5
 21
237
  0
LINE
  8
0
 10
24.5
 20
237
 11
24.5
 21
212
  0
LINE
  8
0
 10
24.5
 20
212
 11
19.5
 21
212
  0
LINE
  8
0
 10
19.5
 20
212
 11
19.5
 21
208
  0
LINE
  8
0
 10
19.5
 20
208
 11
37.5
 21
208
  0
LINE
  8
0
 10
37.5
 20
208
 11
37.5
 21
212
  0
LINE
  8
0
 10
27.15
 20
227
 11
27.15
 21
233
  0
LINE
  8
0
 10
27.15
 20
233
 11
29.85
 21
233
  0
LINE
  8
0
 10
29.85
 20
233
 11
29.85
 21
227
  0
LINE
  8
0
 10
29.85
 20
227
 11
27.15
 21
227
  0
LINE
  8
0
 10
19
 20
212
 11
14
 21
212
  0
LINE
  8
0
 10
14
 20
212
 11
14
 21
237
  0
LINE
  8
0
 10
14
 20
237
 11
6
 21
237
  0
LINE
  8
0
 10
6
 20
237
 11
6
 21
212
  0
LINE
  8
0
 10
6
 20
212
 11
1
 21
212
  0
LINE
  8
0
 10
1
 20
212
 11
1
 21
208
  0
LINE
  8
0
 10
1
 20
208
 11
19
 21
208
  0
LINE
  8
0
 10
19
 20
208
 11
19
 21
212
  0
LINE
  8
0
 10
8.64999
 20
227
 11
8.64999
 21
233
  0
LINE
  8
0
 10
8.64999
 20
233
 11
11.35
 21
233
  0
LINE
  8
0
 10
11.35
 20
233
 11
11.35
 21
227
  0
LINE
  8
0
 10
11.35
 20
227
 11
8.64999
 21
227
  0
LINE
  8
0
 10
80
 20
207.5
 11
0
 21
207.5
  0
LINE
  8
0
 10
0
 20
207.5
 11
0
 21
199.5
  0
LINE
  8
0
 10
0
 20
199.5
 11
80
 21
199.5
  0
LINE
  8
0
 10
80
 20
199.5
 11
80
 21
207.5
  0
LINE
  8
0
 10
64.7074
 20
202.029
 11
64.426
 21
202.114
  0
LINE
  8
0
 10
64.426
 20
202.114
 11
64.1666
 21
202.253
  0
LINE
  8
0
 10
64.1666
 20
202.253
 11
63.9393
 21
202.439
  0
LINE
  8
0
 10
63.9393
 20
202.439
 11
63.7528
 21
202.667
  0
LINE
  8
0
 10
63.7528
 20
202.667
 11
63.6142
 21
202.926
  0
LINE
  8
0
 10
63.6142
 20
202.926
 11
63.5288
 21
203.207
  0
LINE
  8
0
 10
63.5288
 20
203.207
 11
63.5
 21
203.5
  0
LINE
  8
0
 10
63.5
 20
203.5
 11
63.5288
 21
203.793
  0
LINE
  8
0
 10
63.5288
 20
203.793
 11
63.6142
 21
204.074
  0
LINE
  8
0
 10
63.6142
 20
204.074
 11
63.7528
 21
204.333
  0
LINE
  8
0
 10
63.7528
 20
204.333
 11
63.9393
 21
204.561
  0
LINE
  8
0
 10
63.9393
 20
204.561
 11
64.1666
 21
204.747
  0
LINE
  8
0
 10
64.1666
 20
204.747
 11
64.426
 21
204.886
  0
LINE
  8
0
 10
64.426
 20
204.886
 11
64.7074
 21
204.971
  0
LINE
  8
0
 10
64.7074
 20
204.971
 11
65
 21
205
  0
LINE
  8
0
 10
65
 20
205
 11
65.2926
 21
204.971
  0
LINE
  8
0
 10
65.2926
 20
204.971
 11
65.574
 21
204.886
  0
LINE
  8
0
 10
65.574
 20
204.886
 11
65.8334
 21
204.747
  0
LINE
  8
0
 10
65.8334
 20
204.747
 11
66.0607
 21
204.561
  0
LINE
  8
0
 10
66.0607
 20
204.561
 11
66.2472
 21
204.333
  0
LINE
  8
0
 10
66.2472
 20
204.333
 11
66.3858
 21
204.074
  0
LINE
  8
0
 10
66.3858
 20
204.074
 11
66.4712
 21
203.793
  0
LINE
  8
0
 10
66.4712
 20
203.793
 11
66.5
 21
203.5
  0
LINE
  8
0
 10
66.5
 20
203.5
 11
66.4712
 21
203.207
  0
LINE
  8
0
 10
66.4712
 20
203.207
 11
66.3858
 21
202.926
  0
LINE
  8
0
 10
66.3858
 20
202.926
 11
66.2472
 21
202.667
  0
LINE
  8
0
 10
66.2472
 20
202.667
 11
66.0607
 21
202.439
  0
LINE
  8
0
 10
66.0607
 20
202.439
 11
65.8334
 21
202.253
  0
LINE
  8
0
 10
65.8334
 20
202.253
 11
65.574
 21
202.114
  0
LINE
  8
0
 10
65.574
 20
202.114
 11
65.2926
 21
202.029
  0
LINE
  8
0
 10
65.2926
 20
202.029
 11
65
 21
202
  0
LINE
  8
0
 10
65
 20
202
 11
64.7074
 21
202.029
  0
LINE
  8
0
 10
140
 20
199
 11
101.5
 21
199
  0
LINE
  8
0
 10
101.5
 20
199
 11
101.5
 21
197.51
  0
LINE
  8
0
 10
101.5
 20
197.51
 11
98.5
 21
197.51
  0
LINE
  8
0
 10
98.5
 20
197.51
 11
98.5
 21
199
  0
LINE
  8
0
 10
98.5
 20
199
 11
60
 21
199
  0
LINE
  8
0
 10
60
 20
199
 11
60
 21
184
  0
LINE
  8
0
 10
60
 20
184
 11
140
 21
184
  0
LINE
  8
0
 10
140
 20
184
 11
140
 21
199
  0
LINE
  8
0
 10
22.9583
 20
171.656
 11
24.2121
 21
168.967
  0
LINE
  8
0
 10
24.2121
 20
168.967
 11
25.5557
 21
169.685
  0
LINE
  8
0
 10
25.5557
 20
169.685
 11
27.0711
 21
170.929
  0
LINE
  8
0
 10
27.0711
 20
170.929
 11
28.3147
 21
172.444
  0
LINE
  8
0
 10
28.3147
 20
172.444
 11
29.2388
 21
174.173
  0
LINE
  8
0
 10
29.2388
 20
174.173
 11
29.8078
 21
176.049
  0
LINE
  8
0
 10
29.8078
 20
176.049
 11
30
 21
178
  0
LINE
  8
0
 10
30
 20
178
 11
29.8078
 21
179.951
  0
LINE
  8
0
 10
29.8078
 20
179.951
 11
29.2388
 21
181.827
  0
LINE
  8
0
 10
29.2388
 20
181.827
 11
28.3147
 21
183.556
  0
LINE
  8
0
 10
28.3147
 20
183.556
 11
27.0711
 21
185.071
  0
LINE
  8
0
 10
27.0711
 20
185.071
 11
25.5557
 21
186.315
  0
LINE
  8
0
 10
25.5557
 20
186.315
 11
23.8268
 21
187.239
  0
LINE
  8
0
 10
23.8268
 20
187.239
 11
21.9509
 21
187.808
  0
LINE
  8
0
 10
21.9509
 20
187.808
 11
20
 21
188
  0
LINE
  8
0
 10
20
 20
188
 11
20
 21
186
  0
LINE
  8
0
 10
20
 20
186
 11
14.0609
 21
186
  0
LINE
  8
0
 10
14.0609
 20
186
 11
12.9289
 21
185.071
  0
LINE
  8
0
 10
12.9289
 20
185.071
 11
11.6853
 21
183.556
  0
LINE
  8
0
 10
11.6853
 20
183.556
 11
10.7612
 21
181.827
  0
LINE
  8
0
 10
10.7612
 20
181.827
 11
10.1922
 21
179.951
  0
LINE
  8
0
 10
10.1922
 20
179.951
 11
10
 21
178
  0
LINE
  8
0
 10
10
 20
178
 11
10.1922
 21
176.049
  0
LINE
  8
0
 10
10.1922
 20
176.049
 11
10.7612
 21
174.173
  0
LINE
  8
0
 10
10.7612
 20
174.173
 11
11.6853
 21
172.444
  0
LINE
  8
0
 10
11.6853
 20
172.444
 11
12.9289
 21
170.929
  0
LINE
  8
0
 10
12.9289
 20
170.929
 11
14.4443
 21
169.685
  0
LINE
  8
0
 10
14.4443
 20
169.685
 11
16.1732
 21
168.761
  0
LINE
  8
0
 10
16.1732
 20
168.761
 11
16.5231
 21
168.655
  0
LINE
  8
0
 10
16.5231
 20
168.655
 11
22.9583
 21
171.656
  0
LINE
  8
0
 10
19.7074
 20
176.529
 11
19.426
 21
176.614
  0
LINE
  8
0
 10
19.426
 20
176.614
 11
19.1667
 21
176.753
  0
LINE
  8
0
 10
19.1667
 20
176.753
 11
18.9393
 21
176.939
  0
LINE
  8
0
 10
18.9393
 20
176.939
 11
18.7528
 21
177.167
  0
LINE
  8
0
 10
18.7528
 20
177.167
 11
18.6142
 21
177.426
  0
LINE
  8
0
 10
18.6142
 20
177.426
 11
18.5288
 21
177.707
  0
LINE
  8
0
 10
18.5288
 20
177.707
 11
18.5
 21
178
  0
LINE
  8
0
 10
18.5
 20
178
 11
18.5288
 21
178.293
  0
LINE
  8
0
 10
18.5288
 20
178.293
 11
18.6142
 21
178.574
  0
LINE
  8
0
 10
18.6142
 20
178.574
 11
18.7528
 21
178.833
  0
LINE
  8
0
 10
18.7528
 20
178.833
 11
18.9393
 21
179.061
  0
LINE
  8
0
 10
18.9393
 20
179.061
 11
19.1667
 21
179.247
  0
LINE
  8
0
 10
19.1667
 20
179.247
 11
19.426
 21
179.386
  0
LINE
  8
0
 10
19.426
 20
179.386
 11
19.7074
 21
179.471
  0
LINE
  8
0
 10
19.7074
 20
179.471
 11
20
 21
179.5
  0
LINE
  8
0
 10
20
 20
179.5
 11
20.2926
 21
179.471
  0
LINE
  8
0
 10
20.2926
 20
179.471
 11
20.574
 21
179.386
  0
LINE
  8
0
 10
20.574
 20
179.386
 11
20.8333
 21
179.247
  0
LINE
  8
0
 10
20.8333
 20
179.247
 11
21.0607
 21
179.061
  0
LINE
  8
0
 10
21.0607
 20
179.061
 11
21.2472
 21
178.833
  0
LINE
  8
0
 10
21.2472
 20
178.833
 11
21.3858
 21
178.574
  0
LINE
  8
0
 10
21.3858
 20
178.574
 11
21.4712
 21
178.293
  0
LINE
  8
0
 10
21.4712
 20
178.293
 11
21.5
 21
178
  0
LINE
  8
0
 10
21.5
 20
178
 11
21.4712
 21
177.707
  0
LINE
  8
0
 10
21.4712
 20
177.707
 11
21.3858
 21
177.426
  0
LINE
  8
0
 10
21.3858
 20
177.426
 11
21.2472
 21
177.167
  0
LINE
  8
0
 10
21.2472
 20
177.167
 11
21.0607
 21
176.939
  0
LINE
  8
0
 10
21.0607
 20
176.939
 11
20.8333
 21
176.753
  0
LINE
  8
0
 10
20.8333
 20
176.753
 11
20.574
 21
176.614
  0
LINE
  8
0
 10
20.574
 20
176.614
 11
20.2926
 21
176.529
  0
LINE
  8
0
 10
20.2926
 20
176.529
 11
20
 21
176.5
  0
LINE
  8
0
 10
20
 20
176.5
 11
19.7074
 21
176.529
  0
LINE
  8
0
 10
170
 20
183.5
 11
101.5
 21
183.5
  0
LINE
  8
0
 10
101.5
 20
183.5
 11
101.5
 21
182.01
  0
LINE
  8
0
 10
101.5
 20
182.01
 11
98.5
 21
182.01
  0
LINE
  8
0
 10
98.5
 20
182.01
 11
98.5
 21
183.5
  0
LINE
  8
0
 10
98.5
 20
183.5
 11
30
 21
183.5
  0
LINE
  8
0
 10
30
 20
183.5
 11
30
 21
168.5
  0
LINE
  8
0
 10
30
 20
168.5
 11
170
 21
168.5
  0
LINE
  8
0
 10
170
 20
168.5
 11
170
 21
183.5
  0
LINE
  8
0
 10
200
 20
168
 11
101.5
 21
168
  0
LINE
  8
0
 10
101.5
 20
168
 11
101.5
 21
166.51
  0
LINE
  8
0
 10
101.5
 20
166.51
 11
98.5
 21
166.51
  0
LINE
  8
0
 10
98.5
 20
166.51
 11
98.5
 21
168
  0
LINE
  8
0
 10
98.5
 20
168
 11
0
 21
168
  0
LINE
  8
0
 10
0
 20
168
 11
0
 21
153
  0
LINE
  8
0
 10
0
 20
153
 11
200
 21
153
  0
LINE
  8
0
 10
200
 20
153
 11
200
 21
168
  0
LINE
  8
0
 10
189.61
 20
158.538
 11
189.235
 21
158.652
  0
LINE
  8
0
 10
189.235
 20
158.652
 11
188.889
 21
158.837
  0
LINE
  8
0
 10
188.889
 20
158.837
 11
188.586
 21
159.086
  0
LINE
  8
0
 10
188.586
 20
159.086
 11
188.337
 21
159.389
  0
LINE
  8
0
 10
188.337
 20
159.389
 11
188.152
 21
159.735
  0
LINE
  8
0
 10
188.152
 20
159.735
 11
188.038
 21
160.11
  0
LINE
  8
0
 10
188.038
 20
160.11
 11
188
 21
160.5
  0
LINE
  8
0
 10
188
 20
160.5
 11
188.038
 21
160.89
  0
LINE
  8
0
 10
188.038
 20
160.89
 11
188.152
 21
161.265
  0
LINE
  8
0
 10
188.152
 20
161.265
 11
188.337
 21
161.611
  0
LINE
  8
0
 10
188.337
 20
161.611
 11
188.586
 21
161.914
  0
LINE
  8
0
 10
188.586
 20
161.914
 11
188.889
 21
162.163
  0
LINE
  8
0
 10
188.889
 20
162.163
 11
189.235
 21
162.348
  0
LINE
  8
0
 10
189.235
 20
162.348
 11
189.61
 21
162.462
  0
LINE
  8
0
 10
189.61
 20
162.462
 11
190
 21
162.5
  0
LINE
  8
0
 10
190
 20
162.5
 11
190.39
 21
162.462
  0
LINE
  8
0
 10
190.39
 20
162.462
 11
190.765
 21
162.348
  0
LINE
  8
0
 10
190.765
 20
162.348
 11
191.111
 21
162.163
  0
LINE
  8
0
 10
191.111
 20
162.163
 11
191.414
 21
161.914
  0
LINE
  8
0
 10
191.414
 20
161.914
 11
191.663
 21
161.611
  0
LINE
  8
0
 10
191.663
 20
161.611
 11
191.848
 21
161.265
  0
LINE
  8
0
 10
191.848
 20
161.265
 11
191.962
 21
160.89
  0
LINE
  8
0
 10
191.962
 20
160.89
 11
192
 21
160.5
  0
LINE
  8
0
 10
192
 20
160.5
 11
191.962
 21
160.11
  0
LINE
  8
0
 10
191.962
 20
160.11
 11
191.848
 21
159.735
  0
LINE
  8
0
 10
191.848
 20
159.735
 11
191.663
 21
159.389
  0
LINE
  8
0
 10
191.663
 20
159.389
 11
191.414
 21
159.086
  0
LINE
  8
0
 10
191.414
 20
159.086
 11
191.111
 21
158.837
  0
LINE
  8
0
 10
191.111
 20
158.837
 11
190.765
 21
158.652
  0
LINE
  8
0
 10
190.765
 20
158.652
 11
190.39
 21
158.538
  0
LINE
  8
0
 10
190.39
 20
158.538
 11
190
 21
158.5
  0
LINE
  8
0
 10
190
 20
158.5
 11
189.61
 21
158.538
  0
LINE
  8
0
 10
9.60982
 20
158.538
 11
9.23462
 21
158.652
  0
LINE
  8
0
 10
9.23462
 20
158.652
 11
8.88885
 21
158.837
  0
LINE
  8
0
 10
8.88885
 20
158.837
 11
8.58578
 21
159.086
  0
LINE
  8
0
 10
8.58578
 20
159.086
 11
8.33705
 21
159.389
  0
LINE
  8
0
 10
8.33705
 20
159.389
 11
8.15224
 21
159.735
  0
LINE
  8
0
 10
8.15224
 20
159.735
 11
8.03842
 21
160.11
  0
LINE
  8
0
 10
8.03842
 20
160.11
 11
8
 21
160.5
  0
LINE
  8
0
 10
8
 20
160.5
 11
8.03842
 21
160.89
  0
LINE
  8
0
 10
8.03842
 20
160.89
 11
8.15224
 21
161.265
  0
LINE
  8
0
 10
8.15224
 20
161.265
 11
8.33705
 21
161.611
  0
LINE
  8
0
 10
8.33705
 20
161.611
 11
8.58578
 21
161.914
  0
LINE
  8
0
 10
8.58578
 20
161.914
 11
8.88885
 21
162.163
  0
LINE
  8
0
 10
8.88885
 20
162.163
 11
9.23462
 21
162.348
  0
LINE
  8
0
 10
9.23462
 20
162.348
 11
9.60982
 21
162.462
  0
LINE
  8
0
 10
9.60982
 20
162.462
 11
10
 21
162.5
  0
LINE
  8
0
 10
10
 20
162.5
 11
10.3902
 21
162.462
  0
LINE
  8
0
 10
10.3902
 20
162.462
 11
10.7654
 21
162.348
  0
LINE
  8
0
 10
10.7654
 20
162.348
 11
11.1111
 21
162.163
  0
LINE
  8
0
 10
11.1111
 20
162.163
 11
11.4142
 21
161.914
  0
LINE
  8
0
 10
11.4142
 20
161.914
 11
11.6629
 21
161.611
  0
LINE
  8
0
 10
11.6629
 20
161.611
 11
11.8477
 21
161.265
  0
LINE
  8
0
 10
11.8477
 20
161.265
 11
11.9616
 21
160.89
  0
LINE
  8
0
 10
11.9616
 20
160.89
 11
12
 21
160.5
  0
LINE
  8
0
 10
12
 20
160.5
 11
11.9616
 21
160.11
  0
LINE
  8
0
 10
11.9616
 20
160.11
 11
11.8477
 21
159.735
  0
LINE
  8
0
 10
11.8477
 20
159.735
 11
11.6629
 21
159.389
  0
LINE
  8
0
 10
11.6629
 20
159.389
 11
11.4142
 21
159.086
  0
LINE
  8
0
 10
11.4142
 20
159.086
 11
11.1111
 21
158.837
  0
LINE
  8
0
 10
11.1111
 20
158.837
 11
10.7654
 21
158.652
  0
LINE
  8
0
 10
10.7654
 20
158.652
 11
10.3902
 21
158.538
  0
LINE
  8
0
 10
10.3902
 20
158.538
 11
10
 21
158.5
  0
LINE
  8
0
 10
10
 20
158.5
 11
9.60982
 21
158.538
  0
LINE
  8
0
 10
200
 20
152
 11
194
 21
152
  0
LINE
  8
0
 10
194
 20
152
 11
194
 21
137
  0
LINE
  8
0
 10
194
 20
137
 11
185
 21
137
  0
LINE
  8
0
 10
185
 20
137
 11
185
 21
152
  0
LINE
  8
0
 10
185
 20
152
 11
0
 21
152
  0
LINE
  8
0
 10
0
 20
152
 11
0
 21
122
  0
LINE
  8
0
 10
0
 20
122
 11
200
 21
122
  0
LINE
  8
0
 10
200
 20
122
 11
200
 21
152
  0
LINE
  8
0
 10
99.7074
 20
142.529
 11
99.426
 21
142.614
  0
LINE
  8
0
 10
99.426
 20
142.614
 11
99.1666
 21
142.753
  0
LINE
  8
0
 10
99.1666
 20
142.753
 11
98.9393
 21
142.939
  0
LINE
  8
0
 10
98.9393
 20
142.939
 11
98.7528
 21
143.167
  0
LINE
  8
0
 10
98.7528
 20
143.167
 11
98.6142
 21
143.426
  0
LINE
  8
0
 10
98.6142
 20
143.426
 11
98.5288
 21
143.707
  0
LINE
  8
0
 10
98.5288
 20
143.707
 11
98.5
 21
144
  0
LINE
  8
0
 10
98.5
 20
144
 11
98.5288
 21
144.293
  0
LINE
  8
0
 10
98.5288
 20
144.293
 11
98.6142
 21
144.574
  0
LINE
  8
0
 10
98.6142
 20
144.574
 11
98.7528
 21
144.833
  0
LINE
  8
0
 10
98.7528
 20
144.833
 11
98.9393
 21
145.061
  0
LINE
  8
0
 10
98.9393
 20
145.061
 11
99.1666
 21
145.247
  0
LINE
  8
0
 10
99.1666
 20
145.247
 11
99.426
 21
145.386
  0
LINE
  8
0
 10
99.426
 20
145.386
 11
99.7074
 21
145.471
  0
LINE
  8
0
 10
99.7074
 20
145.471
 11
100
 21
145.5
  0
LINE
  8
0
 10
100
 20
145.5
 11
100.293
 21
145.471
  0
LINE
  8
0
 10
100.293
 20
145.471
 11
100.574
 21
145.386
  0
LINE
  8
0
 10
100.574
 20
145.386
 11
100.833
 21
145.247
  0
LINE
  8
0
 10
100.833
 20
145.247
 11
101.061
 21
145.061
  0
LINE
  8
0
 10
101.061
 20
145.061
 11
101.247
 21
144.833
  0
LINE
  8
0
 10
101.247
 20
144.833
 11
101.386
 21
144.574
  0
LINE
  8
0
 10
101.386
 20
144.574
 11
101.471
 21
144.293
  0
LINE
  8
0
 10
101.471
 20
144.293
 11
101.5
 21
144
  0
LINE
  8
0
 10
101.5
 20
144
 11
101.471
 21
143.707
  0
LINE
  8
0
 10
101.471
 20
143.707
 11
101.386
 21
143.426
  0
LINE
  8
0
 10
101.386
 20
143.426
 11
101.247
 21
143.167
  0
LINE
  8
0
 10
101.247
 20
143.167
 11
101.061
 21
142.939
  0
LINE
  8
0
 10
101.061
 20
142.939
 11
100.833
 21
142.753
  0
LINE
  8
0
 10
100.833
 20
142.753
 11
100.574
 21
142.614
  0
LINE
  8
0
 10
100.574
 20
142.614
 11
100.293
 21
142.529
  0
LINE
  8
0
 10
100.293
 20
142.529
 11
100
 21
142.5
  0
LINE
  8
0
 10
100
 20
142.5
 11
99.7074
 21
142.529
  0
LINE
  8
0
 10
173.5
 20
133
 11
173.5
 21
141
  0
LINE
  8
0
 10
173.5
 20
141
 11
176.5
 21
141
  0
LINE
  8
0
 10
176.5
 20
141
 11
176.5
 21
133
  0
LINE
  8
0
 10
176.5
 20
133
 11
173.5
 21
133
  0
LINE
  8
0
 10
11
 20
133
 11
11
 21
141
  0
LINE
  8
0
 10
11
 20
141
 11
14
 21
141
  0
LINE
  8
0
 10
14
 20
141
 11
14
 21
133
  0
LINE
  8
0
 10
14
 20
133
 11
11
 21
133
  0
LINE
  8
0
 10
146
 20
135.5
 11
146
 21
138.5
  0
LINE
  8
0
 10
146
 20
138.5
 11
154
 21
138.5
  0
LINE
  8
0
 10
154
 20
138.5
 11
154
 21
135.5
  0
LINE
  8
0
 10
154
 20
135.5
 11
146
 21
135.5
  0
LINE
  8
0
 10
33.5
 20
135.5
 11
33.5
 21
138.5
  0
LINE
  8
0
 10
33.5
 20
138.5
 11
41.5
 21
138.5
  0
LINE
  8
0
 10
41.5
 20
138.5
 11
41.5
 21
135.5
  0
LINE
  8
0
 10
41.5
 20
135.5
 11
33.5
 21
135.5
  0
LINE
  8
0
 10
90.826
 20
126.209
 11
90.5412
 21
126.282
  0
LINE
  8
0
 10
90.5412
 20
126.282
 11
90.276
 21
126.409
  0
LINE
  8
0
 10
90.276
 20
126.409
 11
90.0408
 21
126.585
  0
LINE
  8
0
 10
90.0408
 20
126.585
 11
89.8445
 21
126.804
  0
LINE
  8
0
 10
89.8445
 20
126.804
 11
89.6947
 21
127.057
  0
LINE
  8
0
 10
89.6947
 20
127.057
 11
89.5972
 21
127.335
  0
LINE
  8
0
 10
89.5972
 20
127.335
 11
89.5556
 21
127.626
  0
LINE
  8
0
 10
89.5556
 20
127.626
 11
89.5716
 21
127.92
  0
LINE
  8
0
 10
89.5716
 20
127.92
 11
89.6446
 21
128.204
  0
LINE
  8
0
 10
89.6446
 20
128.204
 11
89.7718
 21
128.469
  0
LINE
  8
0
 10
89.7718
 20
128.469
 11
89.9483
 21
128.705
  0
LINE
  8
0
 10
89.9483
 20
128.705
 11
90.1672
 21
128.901
  0
LINE
  8
0
 10
90.1672
 20
128.901
 11
90.4203
 21
129.051
  0
LINE
  8
0
 10
90.4203
 20
129.051
 11
90.6976
 21
129.148
  0
LINE
  8
0
 10
90.6976
 20
129.148
 11
90.9888
 21
129.19
  0
LINE
  8
0
 10
90.9888
 20
129.19
 11
91.2824
 21
129.174
  0
LINE
  8
0
 10
91.2824
 20
129.174
 11
91.5672
 21
129.101
  0
LINE
  8
0
 10
91.5672
 20
129.101
 11
91.8323
 21
128.974
  0
LINE
  8
0
 10
91.8323
 20
128.974
 11
92.0676
 21
128.797
  0
LINE
  8
0
 10
92.0676
 20
128.797
 11
92.2638
 21
128.578
  0
LINE
  8
0
 10
92.2638
 20
128.578
 11
92.4136
 21
128.325
  0
LINE
  8
0
 10
92.4136
 20
128.325
 11
92.5112
 21
128.048
  0
LINE
  8
0
 10
92.5112
 20
128.048
 11
92.5527
 21
127.757
  0
LINE
  8
0
 10
92.5527
 20
127.757
 11
92.5367
 21
127.463
  0
LINE
  8
0
 10
92.5367
 20
127.463
 11
92.4637
 21
127.178
  0
LINE
  8
0
 10
92.4637
 20
127.178
 11
92.3365
 21
126.913
  0
LINE
  8
0
 10
92.3365
 20
126.913
 11
92.1601
 21
126.678
  0
LINE
  8
0
 10
92.1601
 20
126.678
 11
91.9411
 21
126.482
  0
LINE
  8
0
 10
91.9411
 20
126.482
 11
91.6881
 21
126.332
  0
LINE
  8
0
 10
91.6881
 20
126.332
 11
91.4107
 21
126.234
  0
LINE
  8
0
 10
91.4107
 20
126.234
 11
91.1196
 21
126.193
  0
LINE
  8
0
 10
91.1196
 20
126.193
 11
90.826
 21
126.209
  0
LINE
  8
0
 10
200
 20
121.5
 11
194
 21
121.5
  0
LINE
  8
0
 10
194
 20
121.5
 11
194
 21
106.5
  0
LINE
  8
0
 10
194
 20
106.5
 11
185
 21
106.5
  0
LINE
  8
0
 10
185
 20
106.5
 11
185
 21
121.5
  0
LINE
  8
0
 10
185
 20
121.5
 11
0
 21
121.5
  0
LINE
  8
0
 10
0
 20
121.5
 11
0
 21
91.5
  0
LINE
  8
0
 10
0
 20
91.5
 11
200
 21
91.5
  0
LINE
  8
0
 10
200
 20
91.5
 11
200
 21
121.5
  0
LINE
  8
0
 10
99.7074
 20
112.029
 11
99.426
 21
112.114
  0
LINE
  8
0
 10
99.426
 20
112.114
 11
99.1666
 21
112.253
  0
LINE
  8
0
 10
99.1666
 20
112.253
 11
98.9393
 21
112.439
  0
LINE
  8
0
 10
98.9393
 20
112.439
 11
98.7528
 21
112.667
  0
LINE
  8
0
 10
98.7528
 20
112.667
 11
98.6142
 21
112.926
  0
LINE
  8
0
 10
98.6142
 20
112.926
 11
98.5288
 21
113.207
  0
LINE
  8
0
 10
98.5288
 20
113.207
 11
98.5
 21
113.5
  0
LINE
  8
0
 10
98.5
 20
113.5
 11
98.5288
 21
113.793
  0
LINE
  8
0
 10
98.5288
 20
113.793
 11
98.6142
 21
114.074
  0
LINE
  8
0
 10
98.6142
 20
114.074
 11
98.7528
 21
114.333
  0
LINE
  8
0
 10
98.7528
 20
114.333
 11
98.9393
 21
114.561
  0
LINE
  8
0
 10
98.9393
 20
114.561
 11
99.1666
 21
114.747
  0
LINE
  8
0
 10
99.1666
 20
114.747
 11
99.426
 21
114.886
  0
LINE
  8
0
 10
99.426
 20
114.886
 11
99.7074
 21
114.971
  0
LINE
  8
0
 10
99.7074
 20
114.971
 11
100
 21
115
  0
LINE
  8
0
 10
100
 20
115
 11
100.293
 21
114.971
  0
LINE
  8
0
 10
100.293
 20
114.971
 11
100.574
 21
114.886
  0
LINE
  8
0
 10
100.574
 20
114.886
 11
100.833
 21
114.747
  0
LINE
  8
0
 10
100.833
 20
114.747
 11
101.061
 21
114.561
  0
LINE
  8
0
 10
101.061
 20
114.561
 11
101.247
 21
114.333
  0
LINE
  8
0
 10
101.247
 20
114.333
 11
101.386
 21
114.074
  0
LINE
  8
0
 10
101.386
 20
114.074
 11
101.471
 21
113.793
  0
LINE
  8
0
 10
101.471
 20
113.793
 11
101.5
 21
113.5
  0
LINE
  8
0
 10
101.5
 20
113.5
 11
101.471
 21
113.207
  0
LINE
  8
0
 10
101.471
 20
113.207
 11
101.386
 21
112.926
  0
LINE
  8
0
 10
101.386
 20
112.926
 11
101.247
 21
112.667
  0
LINE
  8
0
 10
101.247
 20
112.667
 11
101.061
 21
112.439
  0
LINE
  8
0
 10
101.061
 20
112.439
 11
100.833
 21
112.253
  0
LINE
  8
0
 10
100.833
 20
112.253
 11
100.574
 21
112.114
  0
LINE
  8
0
 10
100.574
 20
112.114
 11
100.293
 21
112.029
  0
LINE
  8
0
 10
100.293
 20
112.029
 11
100
 21
112
  0
LINE
  8
0
 10
100
 20
112
 11
99.7074
 21
112.029
  0
LINE
  8
0
 10
173.5
 20
102.5
 11
173.5
 21
110.5
  0
LINE
  8
0
 10
173.5
 20
110.5
 11
176.5
 21
110.5
  0
LINE
  8
0
 10
176.5
 20
110.5
 11
176.5
 21
102.5
  0
LINE
  8
0
 10
176.5
 20
102.5
 11
173.5
 21
102.5
  0
LINE
  8
0
 10
11
 20
102.5
 11
11
 21
110.5
  0
LINE
  8
0
 10
11
 20
110.5
 11
14
 21
110.5
  0
LINE
  8
0
 10
14
 20
110.5
 11
14
 21
102.5
  0
LINE
  8
0
 10
14
 20
102.5
 11
11
 21
102.5
  0
LINE
  8
0
 10
33.5
 20
105
 11
33.5
 21
108
  0
LINE
  8
0
 10
33.5
 20
108
 11
41.5
 21
108
  0
LINE
  8
0
 10
41.5
 20
108
 11
41.5
 21
105
  0
LINE
  8
0
 10
41.5
 20
105
 11
33.5
 21
105
  0
LINE
  8
0
 10
146
 20
105
 11
146
 21
108
  0
LINE
  8
0
 10
146
 20
108
 11
154
 21
108
  0
LINE
  8
0
 10
154
 20
108
 11
154
 21
105
  0
LINE
  8
0
 10
154
 20
105
 11
146
 21
105
  0
LINE
  8
0
 10
90.826
 20
95.7088
 11
90.5412
 21
95.7818
  0
LINE
  8
0
 10
90.5412
 20
95.7818
 11
90.276
 21
95.909
  0
LINE
  8
0
 10
90.276
 20
95.909
 11
90.0408
 21
96.0854
  0
LINE
  8
0
 10
90.0408
 20
96.0854
 11
89.8445
 21
96.3044
  0
LINE
  8
0
 10
89.8445
 20
96.3044
 11
89.6947
 21
96.5574
  0
LINE
  8
0
 10
89.6947
 20
96.5574
 11
89.5972
 21
96.8348
  0
LINE
  8
0
 10
89.5972
 20
96.8348
 11
89.5556
 21
97.1259
  0
LINE
  8
0
 10
89.5556
 20
97.1259
 11
89.5716
 21
97.4195
  0
LINE
  8
0
 10
89.5716
 20
97.4195
 11
89.6446
 21
97.7044
  0
LINE
  8
0
 10
89.6446
 20
97.7044
 11
89.7718
 21
97.9695
  0
LINE
  8
0
 10
89.7718
 20
97.9695
 11
89.9483
 21
98.2047
  0
LINE
  8
0
 10
89.9483
 20
98.2047
 11
90.1672
 21
98.401
  0
LINE
  8
0
 10
90.1672
 20
98.401
 11
90.4203
 21
98.5508
  0
LINE
  8
0
 10
90.4203
 20
98.5508
 11
90.6976
 21
98.6483
  0
LINE
  8
0
 10
90.6976
 20
98.6483
 11
90.9888
 21
98.6899
  0
LINE
  8
0
 10
90.9888
 20
98.6899
 11
91.2824
 21
98.6739
  0
LINE
  8
0
 10
91.2824
 20
98.6739
 11
91.5672
 21
98.6009
  0
LINE
  8
0
 10
91.5672
 20
98.6009
 11
91.8323
 21
98.4737
  0
LINE
  8
0
 10
91.8323
 20
98.4737
 11
92.0676
 21
98.2973
  0
LINE
  8
0
 10
92.0676
 20
98.2973
 11
92.2638
 21
98.0783
  0
LINE
  8
0
 10
92.2638
 20
98.0783
 11
92.4136
 21
97.8253
  0
LINE
  8
0
 10
92.4136
 20
97.8253
 11
92.5112
 21
97.5479
  0
LINE
  8
0
 10
92.5112
 20
97.5479
 11
92.5527
 21
97.2568
  0
LINE
  8
0
 10
92.5527
 20
97.2568
 11
92.5367
 21
96.9632
  0
LINE
  8
0
 10
92.5367
 20
96.9632
 11
92.4637
 21
96.6783
  0
LINE
  8
0
 10
92.4637
 20
96.6783
 11
92.3365
 21
96.4132
  0
LINE
  8
0
 10
92.3365
 20
96.4132
 11
92.1601
 21
96.1779
  0
LINE
  8
0
 10
92.1601
 20
96.1779
 11
91.9411
 21
95.9817
  0
LINE
  8
0
 10
91.9411
 20
95.9817
 11
91.6881
 21
95.8319
  0
LINE
  8
0
 10
91.6881
 20
95.8319
 11
91.4107
 21
95.7343
  0
LINE
  8
0
 10
91.4107
 20
95.7343
 11
91.1196
 21
95.6928
  0
LINE
  8
0
 10
91.1196
 20
95.6928
 11
90.826
 21
95.7088
  0
LINE
  8
0
 10
50.5
 20
91
 11
0
 21
91
  0
LINE
  8
0
 10
0
 20
91
 11
0
 21
61
  0
LINE
  8
0
 10
0
 20
61
 11
50.5
 21
61
  0
LINE
  8
0
 10
50.5
 20
61
 11
50.5
 21
91
  0
LINE
  8
0
 10
11
 20
72
 11
11
 21
80
  0
LINE
  8
0
 10
11
 20
80
 11
14
 21
80
  0
LINE
  8
0
 10
14
 20
80
 11
14
 21
72
  0
LINE
  8
0
 10
14
 20
72
 11
11
 21
72
  0
LINE
  8
0
 10
33.5
 20
74.5
 11
33.5
 21
77.5
  0
LINE
  8
0
 10
33.5
 20
77.5
 11
41.5
 21
77.5
  0
LINE
  8
0
 10
41.5
 20
77.5
 11
41.5
 21
74.5
  0
LINE
  8
0
 10
41.5
 20
74.5
 11
33.5
 21
74.5
  0
LINE
  8
0
 10
200
 20
89.51
 11
194
 21
89.51
  0
LINE
  8
0
 10
194
 20
89.51
 11
194
 21
76
  0
LINE
  8
0
 10
194
 20
76
 11
185
 21
76
  0
LINE
  8
0
 10
185
 20
76
 11
185
 21
89.51
  0
LINE
  8
0
 10
185
 20
89.51
 11
110.5
 21
89.51
  0
LINE
  8
0
 10
110.5
 20
89.51
 11
110.5
 21
61
  0
LINE
  8
0
 10
110.5
 20
61
 11
200
 21
61
  0
LINE
  8
0
 10
200
 20
61
 11
200
 21
89.51
  0
LINE
  8
0
 10
173.5
 20
72
 11
173.5
 21
80
  0
LINE
  8
0
 10
173.5
 20
80
 11
176.5
 21
80
  0
LINE
  8
0
 10
176.5
 20
80
 11
176.5
 21
72
  0
LINE
  8
0
 10
176.5
 20
72
 11
173.5
 21
72
  0
LINE
  8
0
 10
146
 20
74.5
 11
146
 21
77.5
  0
LINE
  8
0
 10
146
 20
77.5
 11
154
 21
77.5
  0
LINE
  8
0
 10
154
 20
77.5
 11
154
 21
74.5
  0
LINE
  8
0
 10
154
 20
74.5
 11
146
 21
74.5
  0
LINE
  8
0
 10
200
 20
60.5
 11
194
 21
60.5
  0
LINE
  8
0
 10
194
 20
60.5
 11
194
 21
45.5
  0
LINE
  8
0
 10
194
 20
45.5
 11
185
 21
45.5
  0
LINE
  8
0
 10
185
 20
45.5
 11
185
 21
60.5
  0
LINE
  8
0
 10
185
 20
60.5
 11
0
 21
60.5
  0
LINE
  8
0
 10
0
 20
60.5
 11
0
 21
30.5
  0
LINE
  8
0
 10
0
 20
30.5
 11
200
 21
30.5
  0
LINE
  8
0
 10
200
 20
30.5
 11
200
 21
60.5
  0
LINE
  8
0
 10
99.7074
 20
51.0288
 11
99.426
 21
51.1142
  0
LINE
  8
0
 10
99.426
 20
51.1142
 11
99.1666
 21
51.2528
  0
LINE
  8
0
 10
99.1666
 20
51.2528
 11
98.9393
 21
51.4393
  0
LINE
  8
0
 10
98.9393
 20
51.4393
 11
98.7528
 21
51.6666
  0
LINE
  8
0
 10
98.7528
 20
51.6666
 11
98.6142
 21
51.926
  0
LINE
  8
0
 10
98.6142
 20
51.926
 11
98.5288
 21
52.2074
  0
LINE
  8
0
 10
98.5288
 20
52.2074
 11
98.5
 21
52.5
  0
LINE
  8
0
 10
98.5
 20
52.5
 11
98.5288
 21
52.7926
  0
LINE
  8
0
 10
98.5288
 20
52.7926
 11
98.6142
 21
53.074
  0
LINE
  8
0
 10
98.6142
 20
53.074
 11
98.7528
 21
53.3333
  0
LINE
  8
0
 10
98.7528
 20
53.3333
 11
98.9393
 21
53.5607
  0
LINE
  8
0
 10
98.9393
 20
53.5607
 11
99.1666
 21
53.7472
  0
LINE
  8
0
 10
99.1666
 20
53.7472
 11
99.426
 21
53.8858
  0
LINE
  8
0
 10
99.426
 20
53.8858
 11
99.7074
 21
53.9712
  0
LINE
  8
0
 10
99.7074
 20
53.9712
 11
100
 21
54
  0
LINE
  8
0
 10
100
 20
54
 11
100.293
 21
53.9712
  0
LINE
  8
0
 10
100.293
 20
53.9712
 11
100.574
 21
53.8858
  0
LINE
  8
0
 10
100.574
 20
53.8858
 11
100.833
 21
53.7472
  0
LINE
  8
0
 10
100.833
 20
53.7472
 11
101.061
 21
53.5607
  0
LINE
  8
0
 10
101.061
 20
53.5607
 11
101.247
 21
53.3333
  0
LINE
  8
0
 10
101.247
 20
53.3333
 11
101.386
 21
53.074
  0
LINE
  8
0
 10
101.386
 20
53.074
 11
101.471
 21
52.7926
  0
LINE
  8
0
 10
101.471
 20
52.7926
 11
101.5
 21
52.5
  0
LINE
  8
0
 10
101.5
 20
52.5
 11
101.471
 21
52.2074
  0
LINE
  8
0
 10
101.471
 20
52.2074
 11
101.386
 21
51.926
  0
LINE
  8
0
 10
101.386
 20
51.926
 11
101.247
 21
51.6666
  0
LINE
  8
0
 10
101.247
 20
51.6666
 11
101.061
 21
51.4393
  0
LINE
  8
0
 10
101.061
 20
51.4393
 11
100.833
 21
51.2528
  0
LINE
  8
0
 10
100.833
 20
51.2528
 11
100.574
 21
51.1142
  0
LINE
  8
0
 10
100.574
 20
51.1142
 11
100.293
 21
51.0288
  0
LINE
  8
0
 10
100.293
 20
51.0288
 11
100
 21
51
  0
LINE
  8
0
 10
100
 20
51
 11
99.7074
 21
51.0288
  0
LINE
  8
0
 10
11
 20
41.5
 11
11
 21
49.5
  0
LINE
  8
0
 10
11
 20
49.5
 11
14
 21
49.5
  0
LINE
  8
0
 10
14
 20
49.5
 11
14
 21
41.5
  0
LINE
  8
0
 10
14
 20
41.5
 11
11
 21
41.5
  0
LINE
  8
0
 10
173.5
 20
41.5
 11
173.5
 21
49.5
  0
LINE
  8
0
 10
173.5
 20
49.5
 11
176.5
 21
49.5
  0
LINE
  8
0
 10
176.5
 20
49.5
 11
176.5
 21
41.5
  0
LINE
  8
0
 10
176.5
 20
41.5
 11
173.5
 21
41.5
  0
LINE
  8
0
 10
146
 20
44
 11
146
 21
47
  0
LINE
  8
0
 10
146
 20
47
 11
154
 21
47
  0
LINE
  8
0
 10
154
 20
47
 11
154
 21
44
  0
LINE
  8
0
 10
154
 20
44
 11
146
 21
44
  0
LINE
  8
0
 10
33.5
 20
44
 11
33.5
 21
47
  0
LINE
  8
0
 10
33.5
 20
47
 11
41.5
 21
47
  0
LINE
  8
0
 10
41.5
 20
47
 11
41.5
 21
44
  0
LINE
  8
0
 10
41.5
 20
44
 11
33.5
 21
44
  0
LINE
  8
0
 10
90.826
 20
34.7088
 11
90.5412
 21
34.7818
  0
LINE
  8
0
 10
90.5412
 20
34.7818
 11
90.276
 21
34.909
  0
LINE
  8
0
 10
90.276
 20
34.909
 11
90.0408
 21
35.0854
  0
LINE
  8
0
 10
90.0408
 20
35.0854
 11
89.8445
 21
35.3044
  0
LINE
  8
0
 10
89.8445
 20
35.3044
 11
89.6947
 21
35.5574
  0
LINE
  8
0
 10
89.6947
 20
35.5574
 11
89.5972
 21
35.8348
  0
LINE
  8
0
 10
89.5972
 20
35.8348
 11
89.5556
 21
36.1259
  0
LINE
  8
0
 10
89.5556
 20
36.1259
 11
89.5716
 21
36.4195
  0
LINE
  8
0
 10
89.5716
 20
36.4195
 11
89.6446
 21
36.7044
  0
LINE
  8
0
 10
89.6446
 20
36.7044
 11
89.7718
 21
36.9695
  0
LINE
  8
0
 10
89.7718
 20
36.9695
 11
89.9483
 21
37.2047
  0
LINE
  8
0
 10
89.9483
 20
37.2047
 11
90.1672
 21
37.401
  0
LINE
  8
0
 10
90.1672
 20
37.401
 11
90.4203
 21
37.5508
  0
LINE
  8
0
 10
90.4203
 20
37.5508
 11
90.6976
 21
37.6483
  0
LINE
  8
0
 10
90.6976
 20
37.6483
 11
90.9888
 21
37.6899
  0
LINE
  8
0
 10
90.9888
 20
37.6899
 11
91.2824
 21
37.6739
  0
LINE
  8
0
 10
91.2824
 20
37.6739
 11
91.5672
 21
37.6009
  0
LINE
  8
0
 10
91.5672
 20
37.6009
 11
91.8323
 21
37.4737
  0
LINE
  8
0
 10
91.8323
 20
37.4737
 11
92.0676
 21
37.2973
  0
LINE
  8
0
 10
92.0676
 20
37.2973
 11
92.2638
 21
37.0783
  0
LINE
  8
0
 10
92.2638
 20
37.0783
 11
92.4136
 21
36.8253
  0
LINE
  8
0
 10
92.4136
 20
36.8253
 11
92.5112
 21
36.5479
  0
LINE
  8
0
 10
92.5112
 20
36.5479
 11
92.5527
 21
36.2568
  0
LINE
  8
0
 10
92.5527
 20
36.2568
 11
92.5367
 21
35.9632
  0
LINE
  8
0
 10
92.5367
 20
35.9632
 11
92.4637
 21
35.6783
  0
LINE
  8
0
 10
92.4637
 20
35.6783
 11
92.3365
 21
35.4132
  0
LINE
  8
0
 10
92.3365
 20
35.4132
 11
92.1601
 21
35.1779
  0
LINE
  8
0
 10
92.1601
 20
35.1779
 11
91.9411
 21
34.9817
  0
LINE
  8
0
 10
91.9411
 20
34.9817
 11
91.6881
 21
34.8319
  0
LINE
  8
0
 10
91.6881
 20
34.8319
 11
91.4107
 21
34.7343
  0
LINE
  8
0
 10
91.4107
 20
34.7343
 11
91.1196
 21
34.6928
  0
LINE
  8
0
 10
91.1196
 20
34.6928
 11
90.826
 21
34.7088
  0
LINE
  8
0
 10
200
 20
30
 11
194
 21
30
  0
LINE
  8
0
 10
194
 20
30
 11
194
 21
15
  0
LINE
  8
0
 10
194
 20
15
 11
185
 21
15
  0
LINE
  8
0
 10
185
 20
15
 11
185
 21
30
  0
LINE
  8
0
 10
185
 20
30
 11
0
 21
30
  0
LINE
  8
0
 10
0
 20
30
 11
0
 21
0
  0
LINE
  8
0
 10
0
 20
0
 11
200
 21
0
  0
LINE
  8
0
 10
200
 20
0
 11
200
 21
30
  0
LINE
  8
0
 10
99.7074
 20
20.5288
 11
99.426
 21
20.6142
  0
LINE
  8
0
 10
99.426
 20
20.6142
 11
99.1666
 21
20.7528
  0
LINE
  8
0
 10
99.1666
 20
20.7528
 11
98.9393
 21
20.9393
  0
LINE
  8
0
 10
98.9393
 20
20.9393
 11
98.7528
 21
21.1666
  0
LINE
  8
0
 10
98.7528
 20
21.1666
 11
98.6142
 21
21.426
  0
LINE
  8
0
 10
98.6142
 20
21.426
 11
98.5288
 21
21.7074
  0
LINE
  8
0
 10
98.5288
 20
21.7074
 11
98.5
 21
22
  0
LINE
  8
0
 10
98.5
 20
22
 11
98.5288
 21
22.2926
  0
LINE
  8
0
 10
98.5288
 20
22.2926
 11
98.6142
 21
22.574
  0
LINE
  8
0
 10
98.6142
 20
22.574
 11
98.7528
 21
22.8333
  0
LINE
  8
0
 10
98.7528
 20
22.8333
 11
98.9393
 21
23.0607
  0
LINE
  8
0
 10
98.9393
 20
23.0607
 11
99.1666
 21
23.2472
  0
LINE
  8
0
 10
99.1666
 20
23.2472
 11
99.426
 21
23.3858
  0
LINE
  8
0
 10
99.426
 20
23.3858
 11
99.7074
 21
23.4712
  0
LINE
  8
0
 10
99.7074
 20
23.4712
 11
100
 21
23.5
  0
LINE
  8
0
 10
100
 20
23.5
 11
100.293
 21
23.4712
  0
LINE
  8
0
 10
100.293
 20
23.4712
 11
100.574
 21
23.3858
  0
LINE
  8
0
 10
100.574
 20
23.3858
 11
100.833
 21
23.2472
  0
LINE
  8
0
 10
100.833
 20
23.2472
 11
101.061
 21
23.0607
  0
LINE
  8
0
 10
101.061
 20
23.0607
 11
101.247
 21
22.8333
  0
LINE
  8
0
 10
101.247
 20
22.8333
 11
101.386
 21
22.574
  0
LINE
  8
0
 10
101.386
 20
22.574
 11
101.471
 21
22.2926
  0
LINE
  8
0
 10
101.471
 20
22.2926
 11
101.5
 21
22
  0
LINE
  8
0
 10
101.5
 20
22
 11
101.471
 21
21.7074
  0
LINE
  8
0
 10
101.471
 20
21.7074
 11
101.386
 21
21.426
  0
LINE
  8
0
 10
101.386
 20
21.426
 11
101.247
 21
21.1666
  0
LINE
  8
0
 10
101.247
 20
21.1666
 11
101.061
 21
20.9393
  0
LINE
  8
0
 10
101.061
 20
20.9393
 11
100.833
 21
20.7528
  0
LINE
  8
0
 10
100.833
 20
20.7528
 11
100.574
 21
20.6142
  0
LINE
  8
0
 10
100.574
 20
20.6142
 11
100.293
 21
20.5288
  0
LINE
  8
0
 10
100.293
 20
20.5288
 11
100
 21
20.5
  0
LINE
  8
0
 10
100
 20
20.5
 11
99.7074
 21
20.5288
  0
LINE
  8
0
 10
11
 20
11
 11
11
 21
19
  0
LINE
  8
0
 10
11
 20
19
 11
14
 21
19
  0
LINE
  8
0
 10
14
 20
19
 11
14
 21
11
  0
LINE
  8
0
 10
14
 20
11
 11
11
 21
11
  0
LINE
  8
0
 10
173.5
 20
11
 11
173.5
 21
19
  0
LINE
  8
0
 10
173.5
 20
19
 11
176.5
 21
19
  0
LINE
  8
0
 10
176.5
 20
19
 11
176.5
 21
11
  0
LINE
  8
0
 10
176.5
 20
11
 11
173.5
 21
11
  0
LINE
  8
0
 10
33.5
 20
13.5
 11
33.5
 21
16.5
  0
LINE
  8
0
 10
33.5
 20
16.5
 11
41.5
 21
16.5
  0
LINE
  8
0
 10
41.5
 20
16.5
 11
41.5
 21
13.5
  0
LINE
  8
0
 10
41.5
 20
13.5
 11
33.5
 21
13.5
  0
LINE
  8
0
 10
146
 20
13.5
 11
146
 21
16.5
  0
LINE
  8
0
 10
146
 20
16.5
 11
154
 21
16.5
  0
LINE
  8
0
 10
154
 20
16.5
 11
154
 21
13.5
  0
LINE
  8
0
 10
154
 20
13.5
 11
146
 21
13.5
  0
LINE
  8
0
 10
90.826
 20
4.20879
 11
90.5412
 21
4.2818
  0
LINE
  8
0
 10
90.5412
 20
4.2818
 11
90.276
 21
4.40897
  0
LINE
  8
0
 10
90.276
 20
4.40897
 11
90.0408
 21
4.58542
  0
LINE
  8
0
 10
90.0408
 20
4.58542
 11
89.8445
 21
4.80437
  0
LINE
  8
0
 10
89.8445
 20
4.80437
 11
89.6947
 21
5.0574
  0
LINE
  8
0
 10
89.6947
 20
5.0574
 11
89.5972
 21
5.33481
  0
LINE
  8
0
 10
89.5972
 20
5.33481
 11
89.5556
 21
5.6259
  0
LINE
  8
0
 10
89.5556
 20
5.6259
 11
89.5716
 21
5.91953
  0
LINE
  8
0
 10
89.5716
 20
5.91953
 11
89.6446
 21
6.20436
  0
LINE
  8
0
 10
89.6446
 20
6.20436
 11
89.7718
 21
6.4695
  0
LINE
  8
0
 10
89.7718
 20
6.4695
 11
89.9483
 21
6.70471
  0
LINE
  8
0
 10
89.9483
 20
6.70471
 11
90.1672
 21
6.901
  0
LINE
  8
0
 10
90.1672
 20
6.901
 11
90.4203
 21
7.0508
  0
LINE
  8
0
 10
90.4203
 20
7.0508
 11
90.6976
 21
7.14835
  0
LINE
  8
0
 10
90.6976
 20
7.14835
 11
90.9888
 21
7.18991
  0
LINE
  8
0
 10
90.9888
 20
7.18991
 11
91.2824
 21
7.17387
  0
LINE
  8
0
 10
91.2824
 20
7.17387
 11
91.5672
 21
7.10088
  0
LINE
  8
0
 10
91.5672
 20
7.10088
 11
91.8323
 21
6.97371
  0
LINE
  8
0
 10
91.8323
 20
6.97371
 11
92.0676
 21
6.79726
  0
LINE
  8
0
 10
92.0676
 20
6.79726
 11
92.2638
 21
6.57829
  0
LINE
  8
0
 10
92.2638
 20
6.57829
 11
92.4136
 21
6.32526
  0
LINE
  8
0
 10
92.4136
 20
6.32526
 11
92.5112
 21
6.04787
  0
LINE
  8
0
 10
92.5112
 20
6.04787
 11
92.5527
 21
5.75676
  0
LINE
  8
0
 10
92.5527
 20
5.75676
 11
92.5367
 21
5.46315
  0
LINE
  8
0
 10
92.5367
 20
5.46315
 11
92.4637
 21
5.1783
  0
LINE
  8
0
 10
92.4637
 20
5.1783
 11
92.3365
 21
4.91318
  0
LINE
  8
0
 10
92.3365
 20
4.91318
 11
92.1601
 21
4.67795
  0
LINE
  8
0
 10
92.1601
 20
4.67795
 11
91.9411
 21
4.48167
  0
LINE
  8
0
 10
91.9411
 20
4.48167
 11
91.6881
 21
4.33188
  0
LINE
  8
0
 10
91.6881
 20
4.33188
 11
91.4107
 21
4.23431
  0
LINE
  8
0
 10
91.4107
 20
4.23431
 11
91.1196
 21
4.19276
  0
LINE
  8
0
 10
91.1196
 20
4.19276
 11
90.826
 21
4.20879
  0
ENDSEC
  0
SECTION
  2
OBJECTS
  0
DICTIONARY
  0
ENDSEC
  0
EOF
