  0
SECTION
  2
BLOCKS
  0
ENDSEC
  0
SECTION
  2
ENTITIES
  0
LINE
  8
0
 10
75.05
 20
264.3
 11
69.35
 21
270
  0
LINE
  8
0
 10
69.35
 20
270
 11
65.5
 21
270
  0
LINE
  8
0
 10
65.5
 20
270
 11
65.5
 21
272.85
  0
LINE
  8
0
 10
65.5
 20
272.85
 11
62.65
 21
272.85
  0
LINE
  8
0
 10
62.65
 20
272.85
 11
62.65
 21
264
  0
LINE
  8
0
 10
62.65
 20
264
 11
75.05
 21
264
  0
LINE
  8
0
 10
75.05
 20
264
 11
75.05
 21
264.3
  0
LINE
  8
0
 10
19.55
 20
264.3
 11
13.85
 21
270
  0
LINE
  8
0
 10
13.85
 20
270
 11
10
 21
270
  0
LINE
  8
0
 10
10
 20
270
 11
10
 21
272.85
  0
LINE
  8
0
 10
10
 20
272.85
 11
7.14999
 21
272.85
  0
LINE
  8
0
 10
7.14999
 20
272.85
 11
7.14999
 21
264
  0
LINE
  8
0
 10
7.14999
 20
264
 11
19.55
 21
264
  0
LINE
  8
0
 10
19.55
 20
264
 11
19.55
 21
264.3
  0
LINE
  8
0
 10
38.05
 20
264.3
 11
32.35
 21
270
  0
LINE
  8
0
 10
32.35
 20
270
 11
28.5
 21
270
  0
LINE
  8
0
 10
28.5
 20
270
 11
28.5
 21
272.85
  0
LINE
  8
0
 10
28.5
 20
272.85
 11
25.65
 21
272.85
  0
LINE
  8
0
 10
25.65
 20
272.85
 11
25.65
 21
264
  0
LINE
  8
0
 10
25.65
 20
264
 11
38.05
 21
264
  0
LINE
  8
0
 10
38.05
 20
264
 11
38.05
 21
264.3
  0
LINE
  8
0
 10
56.55
 20
264.3
 11
50.85
 21
270
  0
LINE
  8
0
 10
50.85
 20
270
 11
47
 21
270
  0
LINE
  8
0
 10
47
 20
270
 11
47
 21
272.85
  0
LINE
  8
0
 10
47
 20
272.85
 11
44.15
 21
272.85
  0
LINE
  8
0
 10
44.15
 20
272.85
 11
44.15
 21
264
  0
LINE
  8
0
 10
44.15
 20
264
 11
56.55
 21
264
  0
LINE
  8
0
 10
56.55
 20
264
 11
56.55
 21
264.3
  0
LINE
  8
0
 10
19
 20
238
 11
14
 21
238
  0
LINE
  8
0
 10
14
 20
238
 11
14
 21
262.25
  0
LINE
  8
0
 10
14
 20
262.25
 11
6
 21
262.25
  0
LINE
  8
0
 10
6
 20
262.25
 11
6
 21
238
  0
LINE
  8
0
 10
6
 20
238
 11
1
 21
238
  0
LINE
  8
0
 10
1
 20
238
 11
1
 21
234
  0
LINE
  8
0
 10
1
 20
234
 11
19
 21
234
  0
LINE
  8
0
 10
19
 20
234
 11
19
 21
238
  0
LINE
  8
0
 10
8.72499
 20
252.25
 11
8.72499
 21
258.25
  0
LINE
  8
0
 10
8.72499
 20
258.25
 11
11.275
 21
258.25
  0
LINE
  8
0
 10
11.275
 20
258.25
 11
11.275
 21
252.25
  0
LINE
  8
0
 10
11.275
 20
252.25
 11
8.72499
 21
252.25
  0
LINE
  8
0
 10
37.5
 20
238
 11
32.5
 21
238
  0
LINE
  8
0
 10
32.5
 20
238
 11
32.5
 21
262.25
  0
LINE
  8
0
 10
32.5
 20
262.25
 11
24.5
 21
262.25
  0
LINE
  8
0
 10
24.5
 20
262.25
 11
24.5
 21
238
  0
LINE
  8
0
 10
24.5
 20
238
 11
19.5
 21
238
  0
LINE
  8
0
 10
19.5
 20
238
 11
19.5
 21
234
  0
LINE
  8
0
 10
19.5
 20
234
 11
37.5
 21
234
  0
LINE
  8
0
 10
37.5
 20
234
 11
37.5
 21
238
  0
LINE
  8
0
 10
27.225
 20
252.25
 11
27.225
 21
258.25
  0
LINE
  8
0
 10
27.225
 20
258.25
 11
29.775
 21
258.25
  0
LINE
  8
0
 10
29.775
 20
258.25
 11
29.775
 21
252.25
  0
LINE
  8
0
 10
29.775
 20
252.25
 11
27.225
 21
252.25
  0
LINE
  8
0
 10
56
 20
238
 11
51
 21
238
  0
LINE
  8
0
 10
51
 20
238
 11
51
 21
262.25
  0
LINE
  8
0
 10
51
 20
262.25
 11
43
 21
262.25
  0
LINE
  8
0
 10
43
 20
262.25
 11
43
 21
238
  0
LINE
  8
0
 10
43
 20
238
 11
38
 21
238
  0
LINE
  8
0
 10
38
 20
238
 11
38
 21
234
  0
LINE
  8
0
 10
38
 20
234
 11
56
 21
234
  0
LINE
  8
0
 10
56
 20
234
 11
56
 21
238
  0
LINE
  8
0
 10
45.725
 20
252.25
 11
45.725
 21
258.25
  0
LINE
  8
0
 10
45.725
 20
258.25
 11
48.275
 21
258.25
  0
LINE
  8
0
 10
48.275
 20
258.25
 11
48.275
 21
252.25
  0
LINE
  8
0
 10
48.275
 20
252.25
 11
45.725
 21
252.25
  0
LINE
  8
0
 10
74.5
 20
238
 11
69.5
 21
238
  0
LINE
  8
0
 10
69.5
 20
238
 11
69.5
 21
262.25
  0
LINE
  8
0
 10
69.5
 20
262.25
 11
61.5
 21
262.25
  0
LINE
  8
0
 10
61.5
 20
262.25
 11
61.5
 21
238
  0
LINE
  8
0
 10
61.5
 20
238
 11
56.5
 21
238
  0
LINE
  8
0
 10
56.5
 20
238
 11
56.5
 21
234
  0
LINE
  8
0
 10
56.5
 20
234
 11
74.5
 21
234
  0
LINE
  8
0
 10
74.5
 20
234
 11
74.5
 21
238
  0
LINE
  8
0
 10
64.225
 20
252.25
 11
64.225
 21
258.25
  0
LINE
  8
0
 10
64.225
 20
258.25
 11
66.775
 21
258.25
  0
LINE
  8
0
 10
66.775
 20
258.25
 11
66.775
 21
252.25
  0
LINE
  8
0
 10
66.775
 20
252.25
 11
64.225
 21
252.25
  0
LINE
  8
0
 10
80
 20
232.5
 11
0
 21
232.5
  0
LINE
  8
0
 10
0
 20
232.5
 11
0
 21
224.5
  0
LINE
  8
0
 10
0
 20
224.5
 11
80
 21
224.5
  0
LINE
  8
0
 10
80
 20
224.5
 11
80
 21
232.5
  0
LINE
  8
0
 10
61.7171
 20
227.078
 11
61.4451
 21
227.16
  0
LINE
  8
0
 10
61.4451
 20
227.16
 11
61.1944
 21
227.294
  0
LINE
  8
0
 10
61.1944
 20
227.294
 11
60.9747
 21
227.475
  0
LINE
  8
0
 10
60.9747
 20
227.475
 11
60.7944
 21
227.694
  0
LINE
  8
0
 10
60.7944
 20
227.694
 11
60.6604
 21
227.945
  0
LINE
  8
0
 10
60.6604
 20
227.945
 11
60.5779
 21
228.217
  0
LINE
  8
0
 10
60.5779
 20
228.217
 11
60.55
 21
228.5
  0
LINE
  8
0
 10
60.55
 20
228.5
 11
60.5779
 21
228.783
  0
LINE
  8
0
 10
60.5779
 20
228.783
 11
60.6604
 21
229.055
  0
LINE
  8
0
 10
60.6604
 20
229.055
 11
60.7944
 21
229.306
  0
LINE
  8
0
 10
60.7944
 20
229.306
 11
60.9747
 21
229.525
  0
LINE
  8
0
 10
60.9747
 20
229.525
 11
61.1944
 21
229.706
  0
LINE
  8
0
 10
61.1944
 20
229.706
 11
61.4451
 21
229.84
  0
LINE
  8
0
 10
61.4451
 20
229.84
 11
61.7171
 21
229.922
  0
LINE
  8
0
 10
61.7171
 20
229.922
 11
62
 21
229.95
  0
LINE
  8
0
 10
62
 20
229.95
 11
62.2829
 21
229.922
  0
LINE
  8
0
 10
62.2829
 20
229.922
 11
62.5549
 21
229.84
  0
LINE
  8
0
 10
62.5549
 20
229.84
 11
62.8056
 21
229.706
  0
LINE
  8
0
 10
62.8056
 20
229.706
 11
63.0253
 21
229.525
  0
LINE
  8
0
 10
63.0253
 20
229.525
 11
63.2056
 21
229.306
  0
LINE
  8
0
 10
63.2056
 20
229.306
 11
63.3396
 21
229.055
  0
LINE
  8
0
 10
63.3396
 20
229.055
 11
63.4221
 21
228.783
  0
LINE
  8
0
 10
63.4221
 20
228.783
 11
63.45
 21
228.5
  0
LINE
  8
0
 10
63.45
 20
228.5
 11
63.4221
 21
228.217
  0
LINE
  8
0
 10
63.4221
 20
228.217
 11
63.3396
 21
227.945
  0
LINE
  8
0
 10
63.3396
 20
227.945
 11
63.2056
 21
227.694
  0
LINE
  8
0
 10
63.2056
 20
227.694
 11
63.0253
 21
227.475
  0
LINE
  8
0
 10
63.0253
 20
227.475
 11
62.8056
 21
227.294
  0
LINE
  8
0
 10
62.8056
 20
227.294
 11
62.5549
 21
227.16
  0
LINE
  8
0
 10
62.5549
 20
227.16
 11
62.2829
 21
227.078
  0
LINE
  8
0
 10
62.2829
 20
227.078
 11
62
 21
227.05
  0
LINE
  8
0
 10
62
 20
227.05
 11
61.7171
 21
227.078
  0
LINE
  8
0
 10
140
 20
224
 11
101.425
 21
224
  0
LINE
  8
0
 10
101.425
 20
224
 11
101.425
 21
222.585
  0
LINE
  8
0
 10
101.425
 20
222.585
 11
98.575
 21
222.585
  0
LINE
  8
0
 10
98.575
 20
222.585
 11
98.575
 21
224
  0
LINE
  8
0
 10
98.575
 20
224
 11
60
 21
224
  0
LINE
  8
0
 10
60
 20
224
 11
60
 21
209
  0
LINE
  8
0
 10
60
 20
209
 11
140
 21
209
  0
LINE
  8
0
 10
140
 20
209
 11
140
 21
224
  0
LINE
  8
0
 10
12.9583
 20
196.656
 11
14.2121
 21
193.967
  0
LINE
  8
0
 10
14.2121
 20
193.967
 11
15.5557
 21
194.685
  0
LINE
  8
0
 10
15.5557
 20
194.685
 11
17.0711
 21
195.929
  0
LINE
  8
0
 10
17.0711
 20
195.929
 11
18.3147
 21
197.444
  0
LINE
  8
0
 10
18.3147
 20
197.444
 11
19.2388
 21
199.173
  0
LINE
  8
0
 10
19.2388
 20
199.173
 11
19.8078
 21
201.049
  0
LINE
  8
0
 10
19.8078
 20
201.049
 11
19.9431
 21
202.422
  0
LINE
  8
0
 10
19.9431
 20
202.422
 11
15
 21
202.422
  0
LINE
  8
0
 10
15
 20
202.422
 11
15
 21
203
  0
LINE
  8
0
 10
15
 20
203
 11
20
 21
203
  0
LINE
  8
0
 10
20
 20
203
 11
19.8078
 21
204.951
  0
LINE
  8
0
 10
19.8078
 20
204.951
 11
19.2388
 21
206.827
  0
LINE
  8
0
 10
19.2388
 20
206.827
 11
18.3147
 21
208.556
  0
LINE
  8
0
 10
18.3147
 20
208.556
 11
17.0711
 21
210.071
  0
LINE
  8
0
 10
17.0711
 20
210.071
 11
15.5557
 21
211.315
  0
LINE
  8
0
 10
15.5557
 20
211.315
 11
13.8268
 21
212.239
  0
LINE
  8
0
 10
13.8268
 20
212.239
 11
11.9509
 21
212.808
  0
LINE
  8
0
 10
11.9509
 20
212.808
 11
10
 21
213
  0
LINE
  8
0
 10
10
 20
213
 11
10
 21
212
  0
LINE
  8
0
 10
10
 20
212
 11
5.72643
 21
212
  0
LINE
  8
0
 10
5.72643
 20
212
 11
4.44431
 21
211.315
  0
LINE
  8
0
 10
4.44431
 20
211.315
 11
2.92894
 21
210.071
  0
LINE
  8
0
 10
2.92894
 20
210.071
 11
1.68532
 21
208.556
  0
LINE
  8
0
 10
1.68532
 20
208.556
 11
0.761215
 21
206.827
  0
LINE
  8
0
 10
0.761215
 20
206.827
 11
0.192154
 21
204.951
  0
LINE
  8
0
 10
0.192154
 20
204.951
 11
0
 21
203
  0
LINE
  8
0
 10
0
 20
203
 11
0.192154
 21
201.049
  0
LINE
  8
0
 10
0.192154
 20
201.049
 11
0.761215
 21
199.173
  0
LINE
  8
0
 10
0.761215
 20
199.173
 11
1.68532
 21
197.444
  0
LINE
  8
0
 10
1.68532
 20
197.444
 11
2.92894
 21
195.929
  0
LINE
  8
0
 10
2.92894
 20
195.929
 11
4.44431
 21
194.685
  0
LINE
  8
0
 10
4.44431
 20
194.685
 11
6.17317
 21
193.761
  0
LINE
  8
0
 10
6.17317
 20
193.761
 11
6.52312
 21
193.655
  0
LINE
  8
0
 10
6.52312
 20
193.655
 11
12.9583
 21
196.656
  0
LINE
  8
0
 10
9.71713
 20
201.578
 11
9.44511
 21
201.66
  0
LINE
  8
0
 10
9.44511
 20
201.66
 11
9.19443
 21
201.794
  0
LINE
  8
0
 10
9.19443
 20
201.794
 11
8.9747
 21
201.975
  0
LINE
  8
0
 10
8.9747
 20
201.975
 11
8.79437
 21
202.194
  0
LINE
  8
0
 10
8.79437
 20
202.194
 11
8.66039
 21
202.445
  0
LINE
  8
0
 10
8.66039
 20
202.445
 11
8.57787
 21
202.717
  0
LINE
  8
0
 10
8.57787
 20
202.717
 11
8.55
 21
203
  0
LINE
  8
0
 10
8.55
 20
203
 11
8.57787
 21
203.283
  0
LINE
  8
0
 10
8.57787
 20
203.283
 11
8.66039
 21
203.555
  0
LINE
  8
0
 10
8.66039
 20
203.555
 11
8.79437
 21
203.806
  0
LINE
  8
0
 10
8.79437
 20
203.806
 11
8.9747
 21
204.025
  0
LINE
  8
0
 10
8.9747
 20
204.025
 11
9.19443
 21
204.206
  0
LINE
  8
0
 10
9.19443
 20
204.206
 11
9.44511
 21
204.34
  0
LINE
  8
0
 10
9.44511
 20
204.34
 11
9.71713
 21
204.422
  0
LINE
  8
0
 10
9.71713
 20
204.422
 11
10
 21
204.45
  0
LINE
  8
0
 10
10
 20
204.45
 11
10.2829
 21
204.422
  0
LINE
  8
0
 10
10.2829
 20
204.422
 11
10.5549
 21
204.34
  0
LINE
  8
0
 10
10.5549
 20
204.34
 11
10.8056
 21
204.206
  0
LINE
  8
0
 10
10.8056
 20
204.206
 11
11.0253
 21
204.025
  0
LINE
  8
0
 10
11.0253
 20
204.025
 11
11.2056
 21
203.806
  0
LINE
  8
0
 10
11.2056
 20
203.806
 11
11.3396
 21
203.555
  0
LINE
  8
0
 10
11.3396
 20
203.555
 11
11.4221
 21
203.283
  0
LINE
  8
0
 10
11.4221
 20
203.283
 11
11.45
 21
203
  0
LINE
  8
0
 10
11.45
 20
203
 11
11.4221
 21
202.717
  0
LINE
  8
0
 10
11.4221
 20
202.717
 11
11.3396
 21
202.445
  0
LINE
  8
0
 10
11.3396
 20
202.445
 11
11.2056
 21
202.194
  0
LINE
  8
0
 10
11.2056
 20
202.194
 11
11.0253
 21
201.975
  0
LINE
  8
0
 10
11.0253
 20
201.975
 11
10.8056
 21
201.794
  0
LINE
  8
0
 10
10.8056
 20
201.794
 11
10.5549
 21
201.66
  0
LINE
  8
0
 10
10.5549
 20
201.66
 11
10.2829
 21
201.578
  0
LINE
  8
0
 10
10.2829
 20
201.578
 11
10
 21
201.55
  0
LINE
  8
0
 10
10
 20
201.55
 11
9.71713
 21
201.578
  0
LINE
  8
0
 10
170
 20
208.5
 11
101.425
 21
208.5
  0
LINE
  8
0
 10
101.425
 20
208.5
 11
101.425
 21
207.085
  0
LINE
  8
0
 10
101.425
 20
207.085
 11
98.575
 21
207.085
  0
LINE
  8
0
 10
98.575
 20
207.085
 11
98.575
 21
208.5
  0
LINE
  8
0
 10
98.575
 20
208.5
 11
30
 21
208.5
  0
LINE
  8
0
 10
30
 20
208.5
 11
30
 21
193.5
  0
LINE
  8
0
 10
30
 20
193.5
 11
170
 21
193.5
  0
LINE
  8
0
 10
170
 20
193.5
 11
170
 21
208.5
  0
LINE
  8
0
 10
200
 20
193
 11
101.425
 21
193
  0
LINE
  8
0
 10
101.425
 20
193
 11
101.425
 21
191.585
  0
LINE
  8
0
 10
101.425
 20
191.585
 11
98.575
 21
191.585
  0
LINE
  8
0
 10
98.575
 20
191.585
 11
98.575
 21
193
  0
LINE
  8
0
 10
98.575
 20
193
 11
0
 21
193
  0
LINE
  8
0
 10
0
 20
193
 11
0
 21
178
  0
LINE
  8
0
 10
0
 20
178
 11
200
 21
178
  0
LINE
  8
0
 10
200
 20
178
 11
200
 21
193
  0
LINE
  8
0
 10
189.805
 20
184.519
 11
189.617
 21
184.576
  0
LINE
  8
0
 10
189.617
 20
184.576
 11
189.444
 21
184.669
  0
LINE
  8
0
 10
189.444
 20
184.669
 11
189.293
 21
184.793
  0
LINE
  8
0
 10
189.293
 20
184.793
 11
189.169
 21
184.944
  0
LINE
  8
0
 10
189.169
 20
184.944
 11
189.076
 21
185.117
  0
LINE
  8
0
 10
189.076
 20
185.117
 11
189.019
 21
185.305
  0
LINE
  8
0
 10
189.019
 20
185.305
 11
189
 21
185.5
  0
LINE
  8
0
 10
189
 20
185.5
 11
189.019
 21
185.695
  0
LINE
  8
0
 10
189.019
 20
185.695
 11
189.076
 21
185.883
  0
LINE
  8
0
 10
189.076
 20
185.883
 11
189.169
 21
186.056
  0
LINE
  8
0
 10
189.169
 20
186.056
 11
189.293
 21
186.207
  0
LINE
  8
0
 10
189.293
 20
186.207
 11
189.444
 21
186.331
  0
LINE
  8
0
 10
189.444
 20
186.331
 11
189.617
 21
186.424
  0
LINE
  8
0
 10
189.617
 20
186.424
 11
189.805
 21
186.481
  0
LINE
  8
0
 10
189.805
 20
186.481
 11
190
 21
186.5
  0
LINE
  8
0
 10
190
 20
186.5
 11
190.195
 21
186.481
  0
LINE
  8
0
 10
190.195
 20
186.481
 11
190.383
 21
186.424
  0
LINE
  8
0
 10
190.383
 20
186.424
 11
190.556
 21
186.331
  0
LINE
  8
0
 10
190.556
 20
186.331
 11
190.707
 21
186.207
  0
LINE
  8
0
 10
190.707
 20
186.207
 11
190.831
 21
186.056
  0
LINE
  8
0
 10
190.831
 20
186.056
 11
190.924
 21
185.883
  0
LINE
  8
0
 10
190.924
 20
185.883
 11
190.981
 21
185.695
  0
LINE
  8
0
 10
190.981
 20
185.695
 11
191
 21
185.5
  0
LINE
  8
0
 10
191
 20
185.5
 11
190.981
 21
185.305
  0
LINE
  8
0
 10
190.981
 20
185.305
 11
190.924
 21
185.117
  0
LINE
  8
0
 10
190.924
 20
185.117
 11
190.831
 21
184.944
  0
LINE
  8
0
 10
190.831
 20
184.944
 11
190.707
 21
184.793
  0
LINE
  8
0
 10
190.707
 20
184.793
 11
190.556
 21
184.669
  0
LINE
  8
0
 10
190.556
 20
184.669
 11
190.383
 21
184.576
  0
LINE
  8
0
 10
190.383
 20
184.576
 11
190.195
 21
184.519
  0
LINE
  8
0
 10
190.195
 20
184.519
 11
190
 21
184.5
  0
LINE
  8
0
 10
190
 20
184.5
 11
189.805
 21
184.519
  0
LINE
  8
0
 10
9.8049
 20
184.519
 11
9.61731
 21
184.576
  0
LINE
  8
0
 10
9.61731
 20
184.576
 11
9.44443
 21
184.669
  0
LINE
  8
0
 10
9.44443
 20
184.669
 11
9.29289
 21
184.793
  0
LINE
  8
0
 10
9.29289
 20
184.793
 11
9.16852
 21
184.944
  0
LINE
  8
0
 10
9.16852
 20
184.944
 11
9.07611
 21
185.117
  0
LINE
  8
0
 10
9.07611
 20
185.117
 11
9.01921
 21
185.305
  0
LINE
  8
0
 10
9.01921
 20
185.305
 11
9
 21
185.5
  0
LINE
  8
0
 10
9
 20
185.5
 11
9.01921
 21
185.695
  0
LINE
  8
0
 10
9.01921
 20
185.695
 11
9.07611
 21
185.883
  0
LINE
  8
0
 10
9.07611
 20
185.883
 11
9.16852
 21
186.056
  0
LINE
  8
0
 10
9.16852
 20
186.056
 11
9.29289
 21
186.207
  0
LINE
  8
0
 10
9.29289
 20
186.207
 11
9.44443
 21
186.331
  0
LINE
  8
0
 10
9.44443
 20
186.331
 11
9.61731
 21
186.424
  0
LINE
  8
0
 10
9.61731
 20
186.424
 11
9.8049
 21
186.481
  0
LINE
  8
0
 10
9.8049
 20
186.481
 11
10
 21
186.5
  0
LINE
  8
0
 10
10
 20
186.5
 11
10.1951
 21
186.481
  0
LINE
  8
0
 10
10.1951
 20
186.481
 11
10.3827
 21
186.424
  0
LINE
  8
0
 10
10.3827
 20
186.424
 11
10.5556
 21
186.331
  0
LINE
  8
0
 10
10.5556
 20
186.331
 11
10.7071
 21
186.207
  0
LINE
  8
0
 10
10.7071
 20
186.207
 11
10.8315
 21
186.056
  0
LINE
  8
0
 10
10.8315
 20
186.056
 11
10.9239
 21
185.883
  0
LINE
  8
0
 10
10.9239
 20
185.883
 11
10.9808
 21
185.695
  0
LINE
  8
0
 10
10.9808
 20
185.695
 11
11
 21
185.5
  0
LINE
  8
0
 10
11
 20
185.5
 11
10.9808
 21
185.305
  0
LINE
  8
0
 10
10.9808
 20
185.305
 11
10.9239
 21
185.117
  0
LINE
  8
0
 10
10.9239
 20
185.117
 11
10.8315
 21
184.944
  0
LINE
  8
0
 10
10.8315
 20
184.944
 11
10.7071
 21
184.793
  0
LINE
  8
0
 10
10.7071
 20
184.793
 11
10.5556
 21
184.669
  0
LINE
  8
0
 10
10.5556
 20
184.669
 11
10.3827
 21
184.576
  0
LINE
  8
0
 10
10.3827
 20
184.576
 11
10.1951
 21
184.519
  0
LINE
  8
0
 10
10.1951
 20
184.519
 11
10
 21
184.5
  0
LINE
  8
0
 10
10
 20
184.5
 11
9.8049
 21
184.519
  0
LINE
  8
0
 10
200
 20
172
 11
194
 21
172
  0
LINE
  8
0
 10
194
 20
172
 11
194
 21
157
  0
LINE
  8
0
 10
194
 20
157
 11
185.45
 21
157
  0
LINE
  8
0
 10
185.45
 20
157
 11
185.45
 21
172
  0
LINE
  8
0
 10
185.45
 20
172
 11
93.7106
 21
172
  0
LINE
  8
0
 10
93.7106
 20
172
 11
93.8887
 21
172.146
  0
LINE
  8
0
 10
93.8887
 20
172.146
 11
95.7905
 21
173.163
  0
LINE
  8
0
 10
95.7905
 20
173.163
 11
97.854
 21
173.789
  0
LINE
  8
0
 10
97.854
 20
173.789
 11
100
 21
174
  0
LINE
  8
0
 10
100
 20
174
 11
102.146
 21
173.789
  0
LINE
  8
0
 10
102.146
 20
173.789
 11
104.21
 21
173.163
  0
LINE
  8
0
 10
104.21
 20
173.163
 11
105.449
 21
172.5
  0
LINE
  8
0
 10
105.449
 20
172.5
 11
150
 21
172.5
  0
LINE
  8
0
 10
150
 20
172.5
 11
150
 21
177
  0
LINE
  8
0
 10
150
 20
177
 11
50
 21
177
  0
LINE
  8
0
 10
50
 20
177
 11
50
 21
172
  0
LINE
  8
0
 10
50
 20
172
 11
0
 21
172
  0
LINE
  8
0
 10
0
 20
172
 11
0
 21
142
  0
LINE
  8
0
 10
0
 20
142
 11
200
 21
142
  0
LINE
  8
0
 10
200
 20
142
 11
200
 21
172
  0
LINE
  8
0
 10
99.7171
 20
161.578
 11
99.4451
 21
161.66
  0
LINE
  8
0
 10
99.4451
 20
161.66
 11
99.1944
 21
161.794
  0
LINE
  8
0
 10
99.1944
 20
161.794
 11
98.9747
 21
161.975
  0
LINE
  8
0
 10
98.9747
 20
161.975
 11
98.7944
 21
162.194
  0
LINE
  8
0
 10
98.7944
 20
162.194
 11
98.6604
 21
162.445
  0
LINE
  8
0
 10
98.6604
 20
162.445
 11
98.5779
 21
162.717
  0
LINE
  8
0
 10
98.5779
 20
162.717
 11
98.55
 21
163
  0
LINE
  8
0
 10
98.55
 20
163
 11
98.5779
 21
163.283
  0
LINE
  8
0
 10
98.5779
 20
163.283
 11
98.6604
 21
163.555
  0
LINE
  8
0
 10
98.6604
 20
163.555
 11
98.7944
 21
163.806
  0
LINE
  8
0
 10
98.7944
 20
163.806
 11
98.9747
 21
164.025
  0
LINE
  8
0
 10
98.9747
 20
164.025
 11
99.1944
 21
164.206
  0
LINE
  8
0
 10
99.1944
 20
164.206
 11
99.4451
 21
164.34
  0
LINE
  8
0
 10
99.4451
 20
164.34
 11
99.7171
 21
164.422
  0
LINE
  8
0
 10
99.7171
 20
164.422
 11
100
 21
164.45
  0
LINE
  8
0
 10
100
 20
164.45
 11
100.283
 21
164.422
  0
LINE
  8
0
 10
100.283
 20
164.422
 11
100.555
 21
164.34
  0
LINE
  8
0
 10
100.555
 20
164.34
 11
100.806
 21
164.206
  0
LINE
  8
0
 10
100.806
 20
164.206
 11
101.025
 21
164.025
  0
LINE
  8
0
 10
101.025
 20
164.025
 11
101.206
 21
163.806
  0
LINE
  8
0
 10
101.206
 20
163.806
 11
101.34
 21
163.555
  0
LINE
  8
0
 10
101.34
 20
163.555
 11
101.422
 21
163.283
  0
LINE
  8
0
 10
101.422
 20
163.283
 11
101.45
 21
163
  0
LINE
  8
0
 10
101.45
 20
163
 11
101.422
 21
162.717
  0
LINE
  8
0
 10
101.422
 20
162.717
 11
101.34
 21
162.445
  0
LINE
  8
0
 10
101.34
 20
162.445
 11
101.206
 21
162.194
  0
LINE
  8
0
 10
101.206
 20
162.194
 11
101.025
 21
161.975
  0
LINE
  8
0
 10
101.025
 20
161.975
 11
100.806
 21
161.794
  0
LINE
  8
0
 10
100.806
 20
161.794
 11
100.555
 21
161.66
  0
LINE
  8
0
 10
100.555
 20
161.66
 11
100.283
 21
161.578
  0
LINE
  8
0
 10
100.283
 20
161.578
 11
100
 21
161.55
  0
LINE
  8
0
 10
100
 20
161.55
 11
99.7171
 21
161.578
  0
LINE
  8
0
 10
173.575
 20
153
 11
173.575
 21
161
  0
LINE
  8
0
 10
173.575
 20
161
 11
176.425
 21
161
  0
LINE
  8
0
 10
176.425
 20
161
 11
176.425
 21
153
  0
LINE
  8
0
 10
176.425
 20
153
 11
173.575
 21
153
  0
LINE
  8
0
 10
11.075
 20
153
 11
11.075
 21
161
  0
LINE
  8
0
 10
11.075
 20
161
 11
13.925
 21
161
  0
LINE
  8
0
 10
13.925
 20
161
 11
13.925
 21
153
  0
LINE
  8
0
 10
13.925
 20
153
 11
11.075
 21
153
  0
LINE
  8
0
 10
33.5
 20
155.575
 11
33.5
 21
158.425
  0
LINE
  8
0
 10
33.5
 20
158.425
 11
41.5
 21
158.425
  0
LINE
  8
0
 10
41.5
 20
158.425
 11
41.5
 21
155.575
  0
LINE
  8
0
 10
41.5
 20
155.575
 11
33.5
 21
155.575
  0
LINE
  8
0
 10
123.273
 20
148.075
 11
123.273
 21
150.925
  0
LINE
  8
0
 10
123.273
 20
150.925
 11
131.273
 21
150.925
  0
LINE
  8
0
 10
131.273
 20
150.925
 11
131.273
 21
148.075
  0
LINE
  8
0
 10
131.273
 20
148.075
 11
123.273
 21
148.075
  0
LINE
  8
0
 10
88.1147
 20
143.99
 11
87.8393
 21
144.061
  0
LINE
  8
0
 10
87.8393
 20
144.061
 11
87.583
 21
144.184
  0
LINE
  8
0
 10
87.583
 20
144.184
 11
87.3557
 21
144.354
  0
LINE
  8
0
 10
87.3557
 20
144.354
 11
87.1659
 21
144.566
  0
LINE
  8
0
 10
87.1659
 20
144.566
 11
87.0211
 21
144.811
  0
LINE
  8
0
 10
87.0211
 20
144.811
 11
86.9268
 21
145.079
  0
LINE
  8
0
 10
86.9268
 20
145.079
 11
86.8866
 21
145.36
  0
LINE
  8
0
 10
86.8866
 20
145.36
 11
86.9021
 21
145.644
  0
LINE
  8
0
 10
86.9021
 20
145.644
 11
86.9727
 21
145.919
  0
LINE
  8
0
 10
86.9727
 20
145.919
 11
87.0956
 21
146.176
  0
LINE
  8
0
 10
87.0956
 20
146.176
 11
87.2662
 21
146.403
  0
LINE
  8
0
 10
87.2662
 20
146.403
 11
87.4779
 21
146.593
  0
LINE
  8
0
 10
87.4779
 20
146.593
 11
87.7225
 21
146.738
  0
LINE
  8
0
 10
87.7225
 20
146.738
 11
87.9906
 21
146.832
  0
LINE
  8
0
 10
87.9906
 20
146.832
 11
88.272
 21
146.872
  0
LINE
  8
0
 10
88.272
 20
146.872
 11
88.5558
 21
146.857
  0
LINE
  8
0
 10
88.5558
 20
146.857
 11
88.8312
 21
146.786
  0
LINE
  8
0
 10
88.8312
 20
146.786
 11
89.0875
 21
146.663
  0
LINE
  8
0
 10
89.0875
 20
146.663
 11
89.3149
 21
146.493
  0
LINE
  8
0
 10
89.3149
 20
146.493
 11
89.5046
 21
146.281
  0
LINE
  8
0
 10
89.5046
 20
146.281
 11
89.6494
 21
146.036
  0
LINE
  8
0
 10
89.6494
 20
146.036
 11
89.7437
 21
145.768
  0
LINE
  8
0
 10
89.7437
 20
145.768
 11
89.7839
 21
145.487
  0
LINE
  8
0
 10
89.7839
 20
145.487
 11
89.7684
 21
145.203
  0
LINE
  8
0
 10
89.7684
 20
145.203
 11
89.6978
 21
144.928
  0
LINE
  8
0
 10
89.6978
 20
144.928
 11
89.5749
 21
144.671
  0
LINE
  8
0
 10
89.5749
 20
144.671
 11
89.4043
 21
144.444
  0
LINE
  8
0
 10
89.4043
 20
144.444
 11
89.1927
 21
144.254
  0
LINE
  8
0
 10
89.1927
 20
144.254
 11
88.948
 21
144.109
  0
LINE
  8
0
 10
88.948
 20
144.109
 11
88.6799
 21
144.015
  0
LINE
  8
0
 10
88.6799
 20
144.015
 11
88.3985
 21
143.975
  0
LINE
  8
0
 10
88.3985
 20
143.975
 11
88.1147
 21
143.99
  0
LINE
  8
0
 10
200
 20
136.5
 11
194
 21
136.5
  0
LINE
  8
0
 10
194
 20
136.5
 11
194
 21
121.5
  0
LINE
  8
0
 10
194
 20
121.5
 11
185.45
 21
121.5
  0
LINE
  8
0
 10
185.45
 20
121.5
 11
185.45
 21
136.5
  0
LINE
  8
0
 10
185.45
 20
136.5
 11
93.7106
 21
136.5
  0
LINE
  8
0
 10
93.7106
 20
136.5
 11
93.8887
 21
136.646
  0
LINE
  8
0
 10
93.8887
 20
136.646
 11
95.7905
 21
137.663
  0
LINE
  8
0
 10
95.7905
 20
137.663
 11
97.854
 21
138.289
  0
LINE
  8
0
 10
97.854
 20
138.289
 11
100
 21
138.5
  0
LINE
  8
0
 10
100
 20
138.5
 11
102.146
 21
138.289
  0
LINE
  8
0
 10
102.146
 20
138.289
 11
104.21
 21
137.663
  0
LINE
  8
0
 10
104.21
 20
137.663
 11
105.449
 21
137
  0
LINE
  8
0
 10
105.449
 20
137
 11
150
 21
137
  0
LINE
  8
0
 10
150
 20
137
 11
150
 21
141.5
  0
LINE
  8
0
 10
150
 20
141.5
 11
50
 21
141.5
  0
LINE
  8
0
 10
50
 20
141.5
 11
50
 21
136.5
  0
LINE
  8
0
 10
50
 20
136.5
 11
0
 21
136.5
  0
LINE
  8
0
 10
0
 20
136.5
 11
0
 21
106.5
  0
LINE
  8
0
 10
0
 20
106.5
 11
200
 21
106.5
  0
LINE
  8
0
 10
200
 20
106.5
 11
200
 21
136.5
  0
LINE
  8
0
 10
99.7171
 20
126.078
 11
99.4451
 21
126.16
  0
LINE
  8
0
 10
99.4451
 20
126.16
 11
99.1944
 21
126.294
  0
LINE
  8
0
 10
99.1944
 20
126.294
 11
98.9747
 21
126.475
  0
LINE
  8
0
 10
98.9747
 20
126.475
 11
98.7944
 21
126.694
  0
LINE
  8
0
 10
98.7944
 20
126.694
 11
98.6604
 21
126.945
  0
LINE
  8
0
 10
98.6604
 20
126.945
 11
98.5779
 21
127.217
  0
LINE
  8
0
 10
98.5779
 20
127.217
 11
98.55
 21
127.5
  0
LINE
  8
0
 10
98.55
 20
127.5
 11
98.5779
 21
127.783
  0
LINE
  8
0
 10
98.5779
 20
127.783
 11
98.6604
 21
128.055
  0
LINE
  8
0
 10
98.6604
 20
128.055
 11
98.7944
 21
128.306
  0
LINE
  8
0
 10
98.7944
 20
128.306
 11
98.9747
 21
128.525
  0
LINE
  8
0
 10
98.9747
 20
128.525
 11
99.1944
 21
128.706
  0
LINE
  8
0
 10
99.1944
 20
128.706
 11
99.4451
 21
128.84
  0
LINE
  8
0
 10
99.4451
 20
128.84
 11
99.7171
 21
128.922
  0
LINE
  8
0
 10
99.7171
 20
128.922
 11
100
 21
128.95
  0
LINE
  8
0
 10
100
 20
128.95
 11
100.283
 21
128.922
  0
LINE
  8
0
 10
100.283
 20
128.922
 11
100.555
 21
128.84
  0
LINE
  8
0
 10
100.555
 20
128.84
 11
100.806
 21
128.706
  0
LINE
  8
0
 10
100.806
 20
128.706
 11
101.025
 21
128.525
  0
LINE
  8
0
 10
101.025
 20
128.525
 11
101.206
 21
128.306
  0
LINE
  8
0
 10
101.206
 20
128.306
 11
101.34
 21
128.055
  0
LINE
  8
0
 10
101.34
 20
128.055
 11
101.422
 21
127.783
  0
LINE
  8
0
 10
101.422
 20
127.783
 11
101.45
 21
127.5
  0
LINE
  8
0
 10
101.45
 20
127.5
 11
101.422
 21
127.217
  0
LINE
  8
0
 10
101.422
 20
127.217
 11
101.34
 21
126.945
  0
LINE
  8
0
 10
101.34
 20
126.945
 11
101.206
 21
126.694
  0
LINE
  8
0
 10
101.206
 20
126.694
 11
101.025
 21
126.475
  0
LINE
  8
0
 10
101.025
 20
126.475
 11
100.806
 21
126.294
  0
LINE
  8
0
 10
100.806
 20
126.294
 11
100.555
 21
126.16
  0
LINE
  8
0
 10
100.555
 20
126.16
 11
100.283
 21
126.078
  0
LINE
  8
0
 10
100.283
 20
126.078
 11
100
 21
126.05
  0
LINE
  8
0
 10
100
 20
126.05
 11
99.7171
 21
126.078
  0
LINE
  8
0
 10
173.575
 20
117.5
 11
173.575
 21
125.5
  0
LINE
  8
0
 10
173.575
 20
125.5
 11
176.425
 21
125.5
  0
LINE
  8
0
 10
176.425
 20
125.5
 11
176.425
 21
117.5
  0
LINE
  8
0
 10
176.425
 20
117.5
 11
173.575
 21
117.5
  0
LINE
  8
0
 10
11.075
 20
117.5
 11
11.075
 21
125.5
  0
LINE
  8
0
 10
11.075
 20
125.5
 11
13.925
 21
125.5
  0
LINE
  8
0
 10
13.925
 20
125.5
 11
13.925
 21
117.5
  0
LINE
  8
0
 10
13.925
 20
117.5
 11
11.075
 21
117.5
  0
LINE
  8
0
 10
33.5
 20
120.075
 11
33.5
 21
122.925
  0
LINE
  8
0
 10
33.5
 20
122.925
 11
41.5
 21
122.925
  0
LINE
  8
0
 10
41.5
 20
122.925
 11
41.5
 21
120.075
  0
LINE
  8
0
 10
41.5
 20
120.075
 11
33.5
 21
120.075
  0
LINE
  8
0
 10
123.273
 20
112.575
 11
123.273
 21
115.425
  0
LINE
  8
0
 10
123.273
 20
115.425
 11
131.273
 21
115.425
  0
LINE
  8
0
 10
131.273
 20
115.425
 11
131.273
 21
112.575
  0
LINE
  8
0
 10
131.273
 20
112.575
 11
123.273
 21
112.575
  0
LINE
  8
0
 10
88.1147
 20
108.49
 11
87.8393
 21
108.561
  0
LINE
  8
0
 10
87.8393
 20
108.561
 11
87.583
 21
108.684
  0
LINE
  8
0
 10
87.583
 20
108.684
 11
87.3557
 21
108.854
  0
LINE
  8
0
 10
87.3557
 20
108.854
 11
87.1659
 21
109.066
  0
LINE
  8
0
 10
87.1659
 20
109.066
 11
87.0211
 21
109.311
  0
LINE
  8
0
 10
87.0211
 20
109.311
 11
86.9268
 21
109.579
  0
LINE
  8
0
 10
86.9268
 20
109.579
 11
86.8866
 21
109.86
  0
LINE
  8
0
 10
86.8866
 20
109.86
 11
86.9021
 21
110.144
  0
LINE
  8
0
 10
86.9021
 20
110.144
 11
86.9727
 21
110.419
  0
LINE
  8
0
 10
86.9727
 20
110.419
 11
87.0956
 21
110.676
  0
LINE
  8
0
 10
87.0956
 20
110.676
 11
87.2662
 21
110.903
  0
LINE
  8
0
 10
87.2662
 20
110.903
 11
87.4779
 21
111.093
  0
LINE
  8
0
 10
87.4779
 20
111.093
 11
87.7225
 21
111.238
  0
LINE
  8
0
 10
87.7225
 20
111.238
 11
87.9906
 21
111.332
  0
LINE
  8
0
 10
87.9906
 20
111.332
 11
88.272
 21
111.372
  0
LINE
  8
0
 10
88.272
 20
111.372
 11
88.5558
 21
111.357
  0
LINE
  8
0
 10
88.5558
 20
111.357
 11
88.8312
 21
111.286
  0
LINE
  8
0
 10
88.8312
 20
111.286
 11
89.0875
 21
111.163
  0
LINE
  8
0
 10
89.0875
 20
111.163
 11
89.3149
 21
110.993
  0
LINE
  8
0
 10
89.3149
 20
110.993
 11
89.5046
 21
110.781
  0
LINE
  8
0
 10
89.5046
 20
110.781
 11
89.6494
 21
110.536
  0
LINE
  8
0
 10
89.6494
 20
110.536
 11
89.7437
 21
110.268
  0
LINE
  8
0
 10
89.7437
 20
110.268
 11
89.7839
 21
109.987
  0
LINE
  8
0
 10
89.7839
 20
109.987
 11
89.7684
 21
109.703
  0
LINE
  8
0
 10
89.7684
 20
109.703
 11
89.6978
 21
109.428
  0
LINE
  8
0
 10
89.6978
 20
109.428
 11
89.5749
 21
109.171
  0
LINE
  8
0
 10
89.5749
 20
109.171
 11
89.4043
 21
108.944
  0
LINE
  8
0
 10
89.4043
 20
108.944
 11
89.1927
 21
108.754
  0
LINE
  8
0
 10
89.1927
 20
108.754
 11
88.948
 21
108.609
  0
LINE
  8
0
 10
88.948
 20
108.609
 11
88.6799
 21
108.515
  0
LINE
  8
0
 10
88.6799
 20
108.515
 11
88.3985
 21
108.475
  0
LINE
  8
0
 10
88.3985
 20
108.475
 11
88.1147
 21
108.49
  0
LINE
  8
0
 10
50.5
 20
86
 11
80.5
 21
86
  0
LINE
  8
0
 10
80.5
 20
86
 11
80.5
 21
101
  0
LINE
  8
0
 10
80.5
 20
101
 11
93.7106
 21
101
  0
LINE
  8
0
 10
93.7106
 20
101
 11
93.8887
 21
101.146
  0
LINE
  8
0
 10
93.8887
 20
101.146
 11
95.7905
 21
102.163
  0
LINE
  8
0
 10
95.7905
 20
102.163
 11
97.854
 21
102.789
  0
LINE
  8
0
 10
97.854
 20
102.789
 11
100
 21
103
  0
LINE
  8
0
 10
100
 20
103
 11
102.146
 21
102.789
  0
LINE
  8
0
 10
102.146
 20
102.789
 11
104.21
 21
102.163
  0
LINE
  8
0
 10
104.21
 20
102.163
 11
105.449
 21
101.5
  0
LINE
  8
0
 10
105.449
 20
101.5
 11
150
 21
101.5
  0
LINE
  8
0
 10
150
 20
101.5
 11
150
 21
106
  0
LINE
  8
0
 10
150
 20
106
 11
50
 21
106
  0
LINE
  8
0
 10
50
 20
106
 11
50
 21
101
  0
LINE
  8
0
 10
50
 20
101
 11
0
 21
101
  0
LINE
  8
0
 10
0
 20
101
 11
0
 21
71
  0
LINE
  8
0
 10
0
 20
71
 11
50.5
 21
71
  0
LINE
  8
0
 10
50.5
 20
71
 11
50.5
 21
86
  0
LINE
  8
0
 10
11.075
 20
82
 11
11.075
 21
90
  0
LINE
  8
0
 10
11.075
 20
90
 11
13.925
 21
90
  0
LINE
  8
0
 10
13.925
 20
90
 11
13.925
 21
82
  0
LINE
  8
0
 10
13.925
 20
82
 11
11.075
 21
82
  0
LINE
  8
0
 10
33.5
 20
84.575
 11
33.5
 21
87.425
  0
LINE
  8
0
 10
33.5
 20
87.425
 11
41.5
 21
87.425
  0
LINE
  8
0
 10
41.5
 20
87.425
 11
41.5
 21
84.575
  0
LINE
  8
0
 10
41.5
 20
84.575
 11
33.5
 21
84.575
  0
LINE
  8
0
 10
200
 20
99.585
 11
194
 21
99.585
  0
LINE
  8
0
 10
194
 20
99.585
 11
194
 21
86
  0
LINE
  8
0
 10
194
 20
86
 11
185.45
 21
86
  0
LINE
  8
0
 10
185.45
 20
86
 11
185.45
 21
99.585
  0
LINE
  8
0
 10
185.45
 20
99.585
 11
110.5
 21
99.585
  0
LINE
  8
0
 10
110.5
 20
99.585
 11
110.5
 21
92
  0
LINE
  8
0
 10
110.5
 20
92
 11
143
 21
92
  0
LINE
  8
0
 10
143
 20
92
 11
143
 21
91.422
  0
LINE
  8
0
 10
143
 20
91.422
 11
120.5
 21
91.422
  0
LINE
  8
0
 10
120.5
 20
91.422
 11
120.5
 21
87
  0
LINE
  8
0
 10
120.5
 20
87
 11
110.5
 21
87
  0
LINE
  8
0
 10
110.5
 20
87
 11
110.5
 21
80.3456
  0
LINE
  8
0
 10
110.5
 20
80.3456
 11
128.997
 21
88.9708
  0
LINE
  8
0
 10
128.997
 20
88.9708
 11
129.241
 21
88.447
  0
LINE
  8
0
 10
129.241
 20
88.447
 11
115.647
 21
82.1077
  0
LINE
  8
0
 10
115.647
 20
82.1077
 11
117.76
 21
77.5762
  0
LINE
  8
0
 10
117.76
 20
77.5762
 11
110.5
 21
74.1909
  0
LINE
  8
0
 10
110.5
 20
74.1909
 11
110.5
 21
71
  0
LINE
  8
0
 10
110.5
 20
71
 11
200
 21
71
  0
LINE
  8
0
 10
200
 20
71
 11
200
 21
99.585
  0
LINE
  8
0
 10
173.575
 20
82
 11
173.575
 21
90
  0
LINE
  8
0
 10
173.575
 20
90
 11
176.425
 21
90
  0
LINE
  8
0
 10
176.425
 20
90
 11
176.425
 21
82
  0
LINE
  8
0
 10
176.425
 20
82
 11
173.575
 21
82
  0
LINE
  8
0
 10
123.273
 20
77.075
 11
123.273
 21
79.925
  0
LINE
  8
0
 10
123.273
 20
79.925
 11
131.273
 21
79.925
  0
LINE
  8
0
 10
131.273
 20
79.925
 11
131.273
 21
77.075
  0
LINE
  8
0
 10
131.273
 20
77.075
 11
123.273
 21
77.075
  0
LINE
  8
0
 10
200
 20
65.5
 11
194
 21
65.5
  0
LINE
  8
0
 10
194
 20
65.5
 11
194
 21
50.5
  0
LINE
  8
0
 10
194
 20
50.5
 11
185.45
 21
50.5
  0
LINE
  8
0
 10
185.45
 20
50.5
 11
185.45
 21
65.5
  0
LINE
  8
0
 10
185.45
 20
65.5
 11
93.7106
 21
65.5
  0
LINE
  8
0
 10
93.7106
 20
65.5
 11
93.8887
 21
65.6462
  0
LINE
  8
0
 10
93.8887
 20
65.6462
 11
95.7905
 21
66.6627
  0
LINE
  8
0
 10
95.7905
 20
66.6627
 11
97.854
 21
67.2886
  0
LINE
  8
0
 10
97.854
 20
67.2886
 11
100
 21
67.5
  0
LINE
  8
0
 10
100
 20
67.5
 11
102.146
 21
67.2886
  0
LINE
  8
0
 10
102.146
 20
67.2886
 11
104.21
 21
66.6627
  0
LINE
  8
0
 10
104.21
 20
66.6627
 11
105.449
 21
66
  0
LINE
  8
0
 10
105.449
 20
66
 11
150
 21
66
  0
LINE
  8
0
 10
150
 20
66
 11
150
 21
70.5
  0
LINE
  8
0
 10
150
 20
70.5
 11
50
 21
70.5
  0
LINE
  8
0
 10
50
 20
70.5
 11
50
 21
65.5
  0
LINE
  8
0
 10
50
 20
65.5
 11
0
 21
65.5
  0
LINE
  8
0
 10
0
 20
65.5
 11
0
 21
35.5
  0
LINE
  8
0
 10
0
 20
35.5
 11
200
 21
35.5
  0
LINE
  8
0
 10
200
 20
35.5
 11
200
 21
65.5
  0
LINE
  8
0
 10
99.7171
 20
55.0779
 11
99.4451
 21
55.1604
  0
LINE
  8
0
 10
99.4451
 20
55.1604
 11
99.1944
 21
55.2944
  0
LINE
  8
0
 10
99.1944
 20
55.2944
 11
98.9747
 21
55.4747
  0
LINE
  8
0
 10
98.9747
 20
55.4747
 11
98.7944
 21
55.6944
  0
LINE
  8
0
 10
98.7944
 20
55.6944
 11
98.6604
 21
55.9451
  0
LINE
  8
0
 10
98.6604
 20
55.9451
 11
98.5779
 21
56.2171
  0
LINE
  8
0
 10
98.5779
 20
56.2171
 11
98.55
 21
56.5
  0
LINE
  8
0
 10
98.55
 20
56.5
 11
98.5779
 21
56.7829
  0
LINE
  8
0
 10
98.5779
 20
56.7829
 11
98.6604
 21
57.0549
  0
LINE
  8
0
 10
98.6604
 20
57.0549
 11
98.7944
 21
57.3056
  0
LINE
  8
0
 10
98.7944
 20
57.3056
 11
98.9747
 21
57.5253
  0
LINE
  8
0
 10
98.9747
 20
57.5253
 11
99.1944
 21
57.7056
  0
LINE
  8
0
 10
99.1944
 20
57.7056
 11
99.4451
 21
57.8396
  0
LINE
  8
0
 10
99.4451
 20
57.8396
 11
99.7171
 21
57.9221
  0
LINE
  8
0
 10
99.7171
 20
57.9221
 11
100
 21
57.95
  0
LINE
  8
0
 10
100
 20
57.95
 11
100.283
 21
57.9221
  0
LINE
  8
0
 10
100.283
 20
57.9221
 11
100.555
 21
57.8396
  0
LINE
  8
0
 10
100.555
 20
57.8396
 11
100.806
 21
57.7056
  0
LINE
  8
0
 10
100.806
 20
57.7056
 11
101.025
 21
57.5253
  0
LINE
  8
0
 10
101.025
 20
57.5253
 11
101.206
 21
57.3056
  0
LINE
  8
0
 10
101.206
 20
57.3056
 11
101.34
 21
57.0549
  0
LINE
  8
0
 10
101.34
 20
57.0549
 11
101.422
 21
56.7829
  0
LINE
  8
0
 10
101.422
 20
56.7829
 11
101.45
 21
56.5
  0
LINE
  8
0
 10
101.45
 20
56.5
 11
101.422
 21
56.2171
  0
LINE
  8
0
 10
101.422
 20
56.2171
 11
101.34
 21
55.9451
  0
LINE
  8
0
 10
101.34
 20
55.9451
 11
101.206
 21
55.6944
  0
LINE
  8
0
 10
101.206
 20
55.6944
 11
101.025
 21
55.4747
  0
LINE
  8
0
 10
101.025
 20
55.4747
 11
100.806
 21
55.2944
  0
LINE
  8
0
 10
100.806
 20
55.2944
 11
100.555
 21
55.1604
  0
LINE
  8
0
 10
100.555
 20
55.1604
 11
100.283
 21
55.0779
  0
LINE
  8
0
 10
100.283
 20
55.0779
 11
100
 21
55.05
  0
LINE
  8
0
 10
100
 20
55.05
 11
99.7171
 21
55.0779
  0
LINE
  8
0
 10
173.575
 20
46.5
 11
173.575
 21
54.5
  0
LINE
  8
0
 10
173.575
 20
54.5
 11
176.425
 21
54.5
  0
LINE
  8
0
 10
176.425
 20
54.5
 11
176.425
 21
46.5
  0
LINE
  8
0
 10
176.425
 20
46.5
 11
173.575
 21
46.5
  0
LINE
  8
0
 10
11.075
 20
46.5
 11
11.075
 21
54.5
  0
LINE
  8
0
 10
11.075
 20
54.5
 11
13.925
 21
54.5
  0
LINE
  8
0
 10
13.925
 20
54.5
 11
13.925
 21
46.5
  0
LINE
  8
0
 10
13.925
 20
46.5
 11
11.075
 21
46.5
  0
LINE
  8
0
 10
33.5
 20
49.075
 11
33.5
 21
51.925
  0
LINE
  8
0
 10
33.5
 20
51.925
 11
41.5
 21
51.925
  0
LINE
  8
0
 10
41.5
 20
51.925
 11
41.5
 21
49.075
  0
LINE
  8
0
 10
41.5
 20
49.075
 11
33.5
 21
49.075
  0
LINE
  8
0
 10
123.273
 20
41.575
 11
123.273
 21
44.425
  0
LINE
  8
0
 10
123.273
 20
44.425
 11
131.273
 21
44.425
  0
LINE
  8
0
 10
131.273
 20
44.425
 11
131.273
 21
41.575
  0
LINE
  8
0
 10
131.273
 20
41.575
 11
123.273
 21
41.575
  0
LINE
  8
0
 10
88.1147
 20
37.4904
 11
87.8393
 21
37.5609
  0
LINE
  8
0
 10
87.8393
 20
37.5609
 11
87.583
 21
37.6839
  0
LINE
  8
0
 10
87.583
 20
37.6839
 11
87.3557
 21
37.8544
  0
LINE
  8
0
 10
87.3557
 20
37.8544
 11
87.1659
 21
38.0661
  0
LINE
  8
0
 10
87.1659
 20
38.0661
 11
87.0211
 21
38.3107
  0
LINE
  8
0
 10
87.0211
 20
38.3107
 11
86.9268
 21
38.5788
  0
LINE
  8
0
 10
86.9268
 20
38.5788
 11
86.8866
 21
38.8602
  0
LINE
  8
0
 10
86.8866
 20
38.8602
 11
86.9021
 21
39.1441
  0
LINE
  8
0
 10
86.9021
 20
39.1441
 11
86.9727
 21
39.4194
  0
LINE
  8
0
 10
86.9727
 20
39.4194
 11
87.0956
 21
39.6757
  0
LINE
  8
0
 10
87.0956
 20
39.6757
 11
87.2662
 21
39.9031
  0
LINE
  8
0
 10
87.2662
 20
39.9031
 11
87.4779
 21
40.0928
  0
LINE
  8
0
 10
87.4779
 20
40.0928
 11
87.7225
 21
40.2376
  0
LINE
  8
0
 10
87.7225
 20
40.2376
 11
87.9906
 21
40.3319
  0
LINE
  8
0
 10
87.9906
 20
40.3319
 11
88.272
 21
40.3721
  0
LINE
  8
0
 10
88.272
 20
40.3721
 11
88.5558
 21
40.3566
  0
LINE
  8
0
 10
88.5558
 20
40.3566
 11
88.8312
 21
40.286
  0
LINE
  8
0
 10
88.8312
 20
40.286
 11
89.0875
 21
40.1631
  0
LINE
  8
0
 10
89.0875
 20
40.1631
 11
89.3149
 21
39.9925
  0
LINE
  8
0
 10
89.3149
 20
39.9925
 11
89.5046
 21
39.7809
  0
LINE
  8
0
 10
89.5046
 20
39.7809
 11
89.6494
 21
39.5363
  0
LINE
  8
0
 10
89.6494
 20
39.5363
 11
89.7437
 21
39.2681
  0
LINE
  8
0
 10
89.7437
 20
39.2681
 11
89.7839
 21
38.9867
  0
LINE
  8
0
 10
89.7839
 20
38.9867
 11
89.7684
 21
38.7029
  0
LINE
  8
0
 10
89.7684
 20
38.7029
 11
89.6978
 21
38.4276
  0
LINE
  8
0
 10
89.6978
 20
38.4276
 11
89.5749
 21
38.1713
  0
LINE
  8
0
 10
89.5749
 20
38.1713
 11
89.4043
 21
37.9439
  0
LINE
  8
0
 10
89.4043
 20
37.9439
 11
89.1927
 21
37.7541
  0
LINE
  8
0
 10
89.1927
 20
37.7541
 11
88.948
 21
37.6093
  0
LINE
  8
0
 10
88.948
 20
37.6093
 11
88.6799
 21
37.515
  0
LINE
  8
0
 10
88.6799
 20
37.515
 11
88.3985
 21
37.4749
  0
LINE
  8
0
 10
88.3985
 20
37.4749
 11
88.1147
 21
37.4904
  0
LINE
  8
0
 10
200
 20
30
 11
194
 21
30
  0
LINE
  8
0
 10
194
 20
30
 11
194
 21
15
  0
LINE
  8
0
 10
194
 20
15
 11
185.45
 21
15
  0
LINE
  8
0
 10
185.45
 20
15
 11
185.45
 21
30
  0
LINE
  8
0
 10
185.45
 20
30
 11
93.7106
 21
30
  0
LINE
  8
0
 10
93.7106
 20
30
 11
93.8887
 21
30.1462
  0
LINE
  8
0
 10
93.8887
 20
30.1462
 11
95.7905
 21
31.1627
  0
LINE
  8
0
 10
95.7905
 20
31.1627
 11
97.854
 21
31.7886
  0
LINE
  8
0
 10
97.854
 20
31.7886
 11
100
 21
32
  0
LINE
  8
0
 10
100
 20
32
 11
102.146
 21
31.7886
  0
LINE
  8
0
 10
102.146
 20
31.7886
 11
104.21
 21
31.1627
  0
LINE
  8
0
 10
104.21
 20
31.1627
 11
105.449
 21
30.5
  0
LINE
  8
0
 10
105.449
 20
30.5
 11
150
 21
30.5
  0
LINE
  8
0
 10
150
 20
30.5
 11
150
 21
35
  0
LINE
  8
0
 10
150
 20
35
 11
50
 21
35
  0
LINE
  8
0
 10
50
 20
35
 11
50
 21
30
  0
LINE
  8
0
 10
50
 20
30
 11
0
 21
30
  0
LINE
  8
0
 10
0
 20
30
 11
0
 21
0
  0
LINE
  8
0
 10
0
 20
0
 11
200
 21
0
  0
LINE
  8
0
 10
200
 20
0
 11
200
 21
30
  0
LINE
  8
0
 10
99.7171
 20
19.5779
 11
99.4451
 21
19.6604
  0
LINE
  8
0
 10
99.4451
 20
19.6604
 11
99.1944
 21
19.7944
  0
LINE
  8
0
 10
99.1944
 20
19.7944
 11
98.9747
 21
19.9747
  0
LINE
  8
0
 10
98.9747
 20
19.9747
 11
98.7944
 21
20.1944
  0
LINE
  8
0
 10
98.7944
 20
20.1944
 11
98.6604
 21
20.4451
  0
LINE
  8
0
 10
98.6604
 20
20.4451
 11
98.5779
 21
20.7171
  0
LINE
  8
0
 10
98.5779
 20
20.7171
 11
98.55
 21
21
  0
LINE
  8
0
 10
98.55
 20
21
 11
98.5779
 21
21.2829
  0
LINE
  8
0
 10
98.5779
 20
21.2829
 11
98.6604
 21
21.5549
  0
LINE
  8
0
 10
98.6604
 20
21.5549
 11
98.7944
 21
21.8056
  0
LINE
  8
0
 10
98.7944
 20
21.8056
 11
98.9747
 21
22.0253
  0
LINE
  8
0
 10
98.9747
 20
22.0253
 11
99.1944
 21
22.2056
  0
LINE
  8
0
 10
99.1944
 20
22.2056
 11
99.4451
 21
22.3396
  0
LINE
  8
0
 10
99.4451
 20
22.3396
 11
99.7171
 21
22.4221
  0
LINE
  8
0
 10
99.7171
 20
22.4221
 11
100
 21
22.45
  0
LINE
  8
0
 10
100
 20
22.45
 11
100.283
 21
22.4221
  0
LINE
  8
0
 10
100.283
 20
22.4221
 11
100.555
 21
22.3396
  0
LINE
  8
0
 10
100.555
 20
22.3396
 11
100.806
 21
22.2056
  0
LINE
  8
0
 10
100.806
 20
22.2056
 11
101.025
 21
22.0253
  0
LINE
  8
0
 10
101.025
 20
22.0253
 11
101.206
 21
21.8056
  0
LINE
  8
0
 10
101.206
 20
21.8056
 11
101.34
 21
21.5549
  0
LINE
  8
0
 10
101.34
 20
21.5549
 11
101.422
 21
21.2829
  0
LINE
  8
0
 10
101.422
 20
21.2829
 11
101.45
 21
21
  0
LINE
  8
0
 10
101.45
 20
21
 11
101.422
 21
20.7171
  0
LINE
  8
0
 10
101.422
 20
20.7171
 11
101.34
 21
20.4451
  0
LINE
  8
0
 10
101.34
 20
20.4451
 11
101.206
 21
20.1944
  0
LINE
  8
0
 10
101.206
 20
20.1944
 11
101.025
 21
19.9747
  0
LINE
  8
0
 10
101.025
 20
19.9747
 11
100.806
 21
19.7944
  0
LINE
  8
0
 10
100.806
 20
19.7944
 11
100.555
 21
19.6604
  0
LINE
  8
0
 10
100.555
 20
19.6604
 11
100.283
 21
19.5779
  0
LINE
  8
0
 10
100.283
 20
19.5779
 11
100
 21
19.55
  0
LINE
  8
0
 10
100
 20
19.55
 11
99.7171
 21
19.5779
  0
LINE
  8
0
 10
11.075
 20
11
 11
11.075
 21
19
  0
LINE
  8
0
 10
11.075
 20
19
 11
13.925
 21
19
  0
LINE
  8
0
 10
13.925
 20
19
 11
13.925
 21
11
  0
LINE
  8
0
 10
13.925
 20
11
 11
11.075
 21
11
  0
LINE
  8
0
 10
173.575
 20
11
 11
173.575
 21
19
  0
LINE
  8
0
 10
173.575
 20
19
 11
176.425
 21
19
  0
LINE
  8
0
 10
176.425
 20
19
 11
176.425
 21
11
  0
LINE
  8
0
 10
176.425
 20
11
 11
173.575
 21
11
  0
LINE
  8
0
 10
33.5
 20
13.575
 11
33.5
 21
16.425
  0
LINE
  8
0
 10
33.5
 20
16.425
 11
41.5
 21
16.425
  0
LINE
  8
0
 10
41.5
 20
16.425
 11
41.5
 21
13.575
  0
LINE
  8
0
 10
41.5
 20
13.575
 11
33.5
 21
13.575
  0
LINE
  8
0
 10
123.273
 20
6.075
 11
123.273
 21
8.92499
  0
LINE
  8
0
 10
123.273
 20
8.92499
 11
131.273
 21
8.92499
  0
LINE
  8
0
 10
131.273
 20
8.92499
 11
131.273
 21
6.075
  0
LINE
  8
0
 10
131.273
 20
6.075
 11
123.273
 21
6.075
  0
LINE
  8
0
 10
88.1147
 20
1.99036
 11
87.8393
 21
2.06093
  0
LINE
  8
0
 10
87.8393
 20
2.06093
 11
87.583
 21
2.18385
  0
LINE
  8
0
 10
87.583
 20
2.18385
 11
87.3557
 21
2.35443
  0
LINE
  8
0
 10
87.3557
 20
2.35443
 11
87.1659
 21
2.56609
  0
LINE
  8
0
 10
87.1659
 20
2.56609
 11
87.0211
 21
2.81068
  0
LINE
  8
0
 10
87.0211
 20
2.81068
 11
86.9268
 21
3.07883
  0
LINE
  8
0
 10
86.9268
 20
3.07883
 11
86.8866
 21
3.36023
  0
LINE
  8
0
 10
86.8866
 20
3.36023
 11
86.9021
 21
3.64406
  0
LINE
  8
0
 10
86.9021
 20
3.64406
 11
86.9727
 21
3.9194
  0
LINE
  8
0
 10
86.9727
 20
3.9194
 11
87.0956
 21
4.1757
  0
LINE
  8
0
 10
87.0956
 20
4.1757
 11
87.2662
 21
4.40309
  0
LINE
  8
0
 10
87.2662
 20
4.40309
 11
87.4779
 21
4.59282
  0
LINE
  8
0
 10
87.4779
 20
4.59282
 11
87.7225
 21
4.73763
  0
LINE
  8
0
 10
87.7225
 20
4.73763
 11
87.9906
 21
4.83192
  0
LINE
  8
0
 10
87.9906
 20
4.83192
 11
88.272
 21
4.8721
  0
LINE
  8
0
 10
88.272
 20
4.8721
 11
88.5558
 21
4.8566
  0
LINE
  8
0
 10
88.5558
 20
4.8566
 11
88.8312
 21
4.78603
  0
LINE
  8
0
 10
88.8312
 20
4.78603
 11
89.0875
 21
4.6631
  0
LINE
  8
0
 10
89.0875
 20
4.6631
 11
89.3149
 21
4.49254
  0
LINE
  8
0
 10
89.3149
 20
4.49254
 11
89.5046
 21
4.28088
  0
LINE
  8
0
 10
89.5046
 20
4.28088
 11
89.6494
 21
4.03627
  0
LINE
  8
0
 10
89.6494
 20
4.03627
 11
89.7437
 21
3.76813
  0
LINE
  8
0
 10
89.7437
 20
3.76813
 11
89.7839
 21
3.48672
  0
LINE
  8
0
 10
89.7839
 20
3.48672
 11
89.7684
 21
3.2029
  0
LINE
  8
0
 10
89.7684
 20
3.2029
 11
89.6978
 21
2.92755
  0
LINE
  8
0
 10
89.6978
 20
2.92755
 11
89.5749
 21
2.67126
  0
LINE
  8
0
 10
89.5749
 20
2.67126
 11
89.4043
 21
2.44388
  0
LINE
  8
0
 10
89.4043
 20
2.44388
 11
89.1927
 21
2.25414
  0
LINE
  8
0
 10
89.1927
 20
2.25414
 11
88.948
 21
2.10933
  0
LINE
  8
0
 10
88.948
 20
2.10933
 11
88.6799
 21
2.01503
  0
LINE
  8
0
 10
88.6799
 20
2.01503
 11
88.3985
 21
1.97485
  0
LINE
  8
0
 10
88.3985
 20
1.97485
 11
88.1147
 21
1.99036
  0
ENDSEC
  0
SECTION
  2
OBJECTS
  0
DICTIONARY
  0
ENDSEC
  0
EOF
