  0
SECTION
  2
BLOCKS
  0
ENDSEC
  0
SECTION
  2
ENTITIES
  0
LINE
  8
0
 10
75.05
 20
283.3
 11
69.35
 21
289
  0
LINE
  8
0
 10
69.35
 20
289
 11
65.5
 21
289
  0
LINE
  8
0
 10
65.5
 20
289
 11
65.5
 21
291.85
  0
LINE
  8
0
 10
65.5
 20
291.85
 11
62.65
 21
291.85
  0
LINE
  8
0
 10
62.65
 20
291.85
 11
62.65
 21
283
  0
LINE
  8
0
 10
62.65
 20
283
 11
75.05
 21
283
  0
LINE
  8
0
 10
75.05
 20
283
 11
75.05
 21
283.3
  0
LINE
  8
0
 10
56.55
 20
283.3
 11
50.85
 21
289
  0
LINE
  8
0
 10
50.85
 20
289
 11
47
 21
289
  0
LINE
  8
0
 10
47
 20
289
 11
47
 21
291.85
  0
LINE
  8
0
 10
47
 20
291.85
 11
44.15
 21
291.85
  0
LINE
  8
0
 10
44.15
 20
291.85
 11
44.15
 21
283
  0
LINE
  8
0
 10
44.15
 20
283
 11
56.55
 21
283
  0
LINE
  8
0
 10
56.55
 20
283
 11
56.55
 21
283.3
  0
LINE
  8
0
 10
38.05
 20
283.3
 11
32.35
 21
289
  0
LINE
  8
0
 10
32.35
 20
289
 11
28.5
 21
289
  0
LINE
  8
0
 10
28.5
 20
289
 11
28.5
 21
291.85
  0
LINE
  8
0
 10
28.5
 20
291.85
 11
25.65
 21
291.85
  0
LINE
  8
0
 10
25.65
 20
291.85
 11
25.65
 21
283
  0
LINE
  8
0
 10
25.65
 20
283
 11
38.05
 21
283
  0
LINE
  8
0
 10
38.05
 20
283
 11
38.05
 21
283.3
  0
LINE
  8
0
 10
19.55
 20
283.3
 11
13.85
 21
289
  0
LINE
  8
0
 10
13.85
 20
289
 11
10
 21
289
  0
LINE
  8
0
 10
10
 20
289
 11
10
 21
291.85
  0
LINE
  8
0
 10
10
 20
291.85
 11
7.14999
 21
291.85
  0
LINE
  8
0
 10
7.14999
 20
291.85
 11
7.14999
 21
283
  0
LINE
  8
0
 10
7.14999
 20
283
 11
19.55
 21
283
  0
LINE
  8
0
 10
19.55
 20
283
 11
19.55
 21
283.3
  0
LINE
  8
0
 10
74.5
 20
257
 11
69.5
 21
257
  0
LINE
  8
0
 10
69.5
 20
257
 11
69.5
 21
281.25
  0
LINE
  8
0
 10
69.5
 20
281.25
 11
61.5
 21
281.25
  0
LINE
  8
0
 10
61.5
 20
281.25
 11
61.5
 21
257
  0
LINE
  8
0
 10
61.5
 20
257
 11
56.5
 21
257
  0
LINE
  8
0
 10
56.5
 20
257
 11
56.5
 21
253
  0
LINE
  8
0
 10
56.5
 20
253
 11
74.5
 21
253
  0
LINE
  8
0
 10
74.5
 20
253
 11
74.5
 21
257
  0
LINE
  8
0
 10
64.225
 20
271.25
 11
64.225
 21
277.25
  0
LINE
  8
0
 10
64.225
 20
277.25
 11
66.775
 21
277.25
  0
LINE
  8
0
 10
66.775
 20
277.25
 11
66.775
 21
271.25
  0
LINE
  8
0
 10
66.775
 20
271.25
 11
64.225
 21
271.25
  0
LINE
  8
0
 10
56
 20
257
 11
51
 21
257
  0
LINE
  8
0
 10
51
 20
257
 11
51
 21
281.25
  0
LINE
  8
0
 10
51
 20
281.25
 11
43
 21
281.25
  0
LINE
  8
0
 10
43
 20
281.25
 11
43
 21
257
  0
LINE
  8
0
 10
43
 20
257
 11
38
 21
257
  0
LINE
  8
0
 10
38
 20
257
 11
38
 21
253
  0
LINE
  8
0
 10
38
 20
253
 11
56
 21
253
  0
LINE
  8
0
 10
56
 20
253
 11
56
 21
257
  0
LINE
  8
0
 10
45.725
 20
271.25
 11
45.725
 21
277.25
  0
LINE
  8
0
 10
45.725
 20
277.25
 11
48.275
 21
277.25
  0
LINE
  8
0
 10
48.275
 20
277.25
 11
48.275
 21
271.25
  0
LINE
  8
0
 10
48.275
 20
271.25
 11
45.725
 21
271.25
  0
LINE
  8
0
 10
37.5
 20
257
 11
32.5
 21
257
  0
LINE
  8
0
 10
32.5
 20
257
 11
32.5
 21
281.25
  0
LINE
  8
0
 10
32.5
 20
281.25
 11
24.5
 21
281.25
  0
LINE
  8
0
 10
24.5
 20
281.25
 11
24.5
 21
257
  0
LINE
  8
0
 10
24.5
 20
257
 11
19.5
 21
257
  0
LINE
  8
0
 10
19.5
 20
257
 11
19.5
 21
253
  0
LINE
  8
0
 10
19.5
 20
253
 11
37.5
 21
253
  0
LINE
  8
0
 10
37.5
 20
253
 11
37.5
 21
257
  0
LINE
  8
0
 10
27.225
 20
271.25
 11
27.225
 21
277.25
  0
LINE
  8
0
 10
27.225
 20
277.25
 11
29.775
 21
277.25
  0
LINE
  8
0
 10
29.775
 20
277.25
 11
29.775
 21
271.25
  0
LINE
  8
0
 10
29.775
 20
271.25
 11
27.225
 21
271.25
  0
LINE
  8
0
 10
19
 20
257
 11
14
 21
257
  0
LINE
  8
0
 10
14
 20
257
 11
14
 21
281.25
  0
LINE
  8
0
 10
14
 20
281.25
 11
6
 21
281.25
  0
LINE
  8
0
 10
6
 20
281.25
 11
6
 21
257
  0
LINE
  8
0
 10
6
 20
257
 11
1
 21
257
  0
LINE
  8
0
 10
1
 20
257
 11
1
 21
253
  0
LINE
  8
0
 10
1
 20
253
 11
19
 21
253
  0
LINE
  8
0
 10
19
 20
253
 11
19
 21
257
  0
LINE
  8
0
 10
8.72499
 20
271.25
 11
8.72499
 21
277.25
  0
LINE
  8
0
 10
8.72499
 20
277.25
 11
11.275
 21
277.25
  0
LINE
  8
0
 10
11.275
 20
277.25
 11
11.275
 21
271.25
  0
LINE
  8
0
 10
11.275
 20
271.25
 11
8.72499
 21
271.25
  0
LINE
  8
0
 10
80
 20
252.5
 11
0
 21
252.5
  0
LINE
  8
0
 10
0
 20
252.5
 11
0
 21
244.5
  0
LINE
  8
0
 10
0
 20
244.5
 11
80
 21
244.5
  0
LINE
  8
0
 10
80
 20
244.5
 11
80
 21
252.5
  0
LINE
  8
0
 10
61.7269
 20
247.127
 11
61.4642
 21
247.207
  0
LINE
  8
0
 10
61.4642
 20
247.207
 11
61.2222
 21
247.336
  0
LINE
  8
0
 10
61.2222
 20
247.336
 11
61.01
 21
247.51
  0
LINE
  8
0
 10
61.01
 20
247.51
 11
60.8359
 21
247.722
  0
LINE
  8
0
 10
60.8359
 20
247.722
 11
60.7066
 21
247.964
  0
LINE
  8
0
 10
60.7066
 20
247.964
 11
60.6269
 21
248.227
  0
LINE
  8
0
 10
60.6269
 20
248.227
 11
60.6
 21
248.5
  0
LINE
  8
0
 10
60.6
 20
248.5
 11
60.6269
 21
248.773
  0
LINE
  8
0
 10
60.6269
 20
248.773
 11
60.7066
 21
249.036
  0
LINE
  8
0
 10
60.7066
 20
249.036
 11
60.8359
 21
249.278
  0
LINE
  8
0
 10
60.8359
 20
249.278
 11
61.01
 21
249.49
  0
LINE
  8
0
 10
61.01
 20
249.49
 11
61.2222
 21
249.664
  0
LINE
  8
0
 10
61.2222
 20
249.664
 11
61.4642
 21
249.793
  0
LINE
  8
0
 10
61.4642
 20
249.793
 11
61.7269
 21
249.873
  0
LINE
  8
0
 10
61.7269
 20
249.873
 11
62
 21
249.9
  0
LINE
  8
0
 10
62
 20
249.9
 11
62.2731
 21
249.873
  0
LINE
  8
0
 10
62.2731
 20
249.873
 11
62.5358
 21
249.793
  0
LINE
  8
0
 10
62.5358
 20
249.793
 11
62.7778
 21
249.664
  0
LINE
  8
0
 10
62.7778
 20
249.664
 11
62.9899
 21
249.49
  0
LINE
  8
0
 10
62.9899
 20
249.49
 11
63.164
 21
249.278
  0
LINE
  8
0
 10
63.164
 20
249.278
 11
63.2934
 21
249.036
  0
LINE
  8
0
 10
63.2934
 20
249.036
 11
63.3731
 21
248.773
  0
LINE
  8
0
 10
63.3731
 20
248.773
 11
63.4
 21
248.5
  0
LINE
  8
0
 10
63.4
 20
248.5
 11
63.3731
 21
248.227
  0
LINE
  8
0
 10
63.3731
 20
248.227
 11
63.2934
 21
247.964
  0
LINE
  8
0
 10
63.2934
 20
247.964
 11
63.164
 21
247.722
  0
LINE
  8
0
 10
63.164
 20
247.722
 11
62.9899
 21
247.51
  0
LINE
  8
0
 10
62.9899
 20
247.51
 11
62.7778
 21
247.336
  0
LINE
  8
0
 10
62.7778
 20
247.336
 11
62.5358
 21
247.207
  0
LINE
  8
0
 10
62.5358
 20
247.207
 11
62.2731
 21
247.127
  0
LINE
  8
0
 10
62.2731
 20
247.127
 11
62
 21
247.1
  0
LINE
  8
0
 10
62
 20
247.1
 11
61.7269
 21
247.127
  0
LINE
  8
0
 10
140
 20
244
 11
101.425
 21
244
  0
LINE
  8
0
 10
101.425
 20
244
 11
101.425
 21
242.585
  0
LINE
  8
0
 10
101.425
 20
242.585
 11
98.575
 21
242.585
  0
LINE
  8
0
 10
98.575
 20
242.585
 11
98.575
 21
244
  0
LINE
  8
0
 10
98.575
 20
244
 11
60
 21
244
  0
LINE
  8
0
 10
60
 20
244
 11
60
 21
224
  0
LINE
  8
0
 10
60
 20
224
 11
140
 21
224
  0
LINE
  8
0
 10
140
 20
224
 11
140
 21
244
  0
LINE
  8
0
 10
170
 20
223.5
 11
101.425
 21
223.5
  0
LINE
  8
0
 10
101.425
 20
223.5
 11
101.425
 21
222.085
  0
LINE
  8
0
 10
101.425
 20
222.085
 11
98.575
 21
222.085
  0
LINE
  8
0
 10
98.575
 20
222.085
 11
98.575
 21
223.5
  0
LINE
  8
0
 10
98.575
 20
223.5
 11
30
 21
223.5
  0
LINE
  8
0
 10
30
 20
223.5
 11
30
 21
203.5
  0
LINE
  8
0
 10
30
 20
203.5
 11
170
 21
203.5
  0
LINE
  8
0
 10
170
 20
203.5
 11
170
 21
223.5
  0
LINE
  8
0
 10
12.9583
 20
206.656
 11
14.2121
 21
203.967
  0
LINE
  8
0
 10
14.2121
 20
203.967
 11
15.5557
 21
204.685
  0
LINE
  8
0
 10
15.5557
 20
204.685
 11
17.0711
 21
205.929
  0
LINE
  8
0
 10
17.0711
 20
205.929
 11
18.3147
 21
207.444
  0
LINE
  8
0
 10
18.3147
 20
207.444
 11
19.2388
 21
209.173
  0
LINE
  8
0
 10
19.2388
 20
209.173
 11
19.8078
 21
211.049
  0
LINE
  8
0
 10
19.8078
 20
211.049
 11
19.9431
 21
212.422
  0
LINE
  8
0
 10
19.9431
 20
212.422
 11
19
 21
212.422
  0
LINE
  8
0
 10
19
 20
212.422
 11
18.952
 21
211.934
  0
LINE
  8
0
 10
18.952
 20
211.934
 11
18.8097
 21
211.465
  0
LINE
  8
0
 10
18.8097
 20
211.465
 11
18.5787
 21
211.033
  0
LINE
  8
0
 10
18.5787
 20
211.033
 11
18.2678
 21
210.654
  0
LINE
  8
0
 10
18.2678
 20
210.654
 11
17.8889
 21
210.343
  0
LINE
  8
0
 10
17.8889
 20
210.343
 11
17.4567
 21
210.112
  0
LINE
  8
0
 10
17.4567
 20
210.112
 11
16.9877
 21
209.97
  0
LINE
  8
0
 10
16.9877
 20
209.97
 11
16.5
 21
209.922
  0
LINE
  8
0
 10
16.5
 20
209.922
 11
16.0123
 21
209.97
  0
LINE
  8
0
 10
16.0123
 20
209.97
 11
15.5433
 21
210.112
  0
LINE
  8
0
 10
15.5433
 20
210.112
 11
15.1111
 21
210.343
  0
LINE
  8
0
 10
15.1111
 20
210.343
 11
14.7322
 21
210.654
  0
LINE
  8
0
 10
14.7322
 20
210.654
 11
14.4213
 21
211.033
  0
LINE
  8
0
 10
14.4213
 20
211.033
 11
14.1903
 21
211.465
  0
LINE
  8
0
 10
14.1903
 20
211.465
 11
14.048
 21
211.934
  0
LINE
  8
0
 10
14.048
 20
211.934
 11
14
 21
212.422
  0
LINE
  8
0
 10
14
 20
212.422
 11
14.048
 21
212.91
  0
LINE
  8
0
 10
14.048
 20
212.91
 11
14.1903
 21
213.379
  0
LINE
  8
0
 10
14.1903
 20
213.379
 11
14.4213
 21
213.811
  0
LINE
  8
0
 10
14.4213
 20
213.811
 11
14.7322
 21
214.19
  0
LINE
  8
0
 10
14.7322
 20
214.19
 11
15.1111
 21
214.501
  0
LINE
  8
0
 10
15.1111
 20
214.501
 11
15.5433
 21
214.732
  0
LINE
  8
0
 10
15.5433
 20
214.732
 11
16.0123
 21
214.874
  0
LINE
  8
0
 10
16.0123
 20
214.874
 11
16.5
 21
214.922
  0
LINE
  8
0
 10
16.5
 20
214.922
 11
16.9877
 21
214.874
  0
LINE
  8
0
 10
16.9877
 20
214.874
 11
17.4567
 21
214.732
  0
LINE
  8
0
 10
17.4567
 20
214.732
 11
17.8889
 21
214.501
  0
LINE
  8
0
 10
17.8889
 20
214.501
 11
18.2678
 21
214.19
  0
LINE
  8
0
 10
18.2678
 20
214.19
 11
18.5787
 21
213.811
  0
LINE
  8
0
 10
18.5787
 20
213.811
 11
18.8097
 21
213.379
  0
LINE
  8
0
 10
18.8097
 20
213.379
 11
18.9246
 21
213
  0
LINE
  8
0
 10
18.9246
 20
213
 11
20
 21
213
  0
LINE
  8
0
 10
20
 20
213
 11
19.8078
 21
214.951
  0
LINE
  8
0
 10
19.8078
 20
214.951
 11
19.2388
 21
216.827
  0
LINE
  8
0
 10
19.2388
 20
216.827
 11
18.3147
 21
218.556
  0
LINE
  8
0
 10
18.3147
 20
218.556
 11
17.0711
 21
220.071
  0
LINE
  8
0
 10
17.0711
 20
220.071
 11
15.5557
 21
221.315
  0
LINE
  8
0
 10
15.5557
 20
221.315
 11
13.8268
 21
222.239
  0
LINE
  8
0
 10
13.8268
 20
222.239
 11
11.9509
 21
222.808
  0
LINE
  8
0
 10
11.9509
 20
222.808
 11
10
 21
223
  0
LINE
  8
0
 10
10
 20
223
 11
10
 21
221.5
  0
LINE
  8
0
 10
10
 20
221.5
 11
4.79099
 21
221.5
  0
LINE
  8
0
 10
4.79099
 20
221.5
 11
4.44431
 21
221.315
  0
LINE
  8
0
 10
4.44431
 20
221.315
 11
2.92894
 21
220.071
  0
LINE
  8
0
 10
2.92894
 20
220.071
 11
1.68532
 21
218.556
  0
LINE
  8
0
 10
1.68532
 20
218.556
 11
0.761215
 21
216.827
  0
LINE
  8
0
 10
0.761215
 20
216.827
 11
0.192154
 21
214.951
  0
LINE
  8
0
 10
0.192154
 20
214.951
 11
0
 21
213
  0
LINE
  8
0
 10
0
 20
213
 11
0.192154
 21
211.049
  0
LINE
  8
0
 10
0.192154
 20
211.049
 11
0.761215
 21
209.173
  0
LINE
  8
0
 10
0.761215
 20
209.173
 11
1.68532
 21
207.444
  0
LINE
  8
0
 10
1.68532
 20
207.444
 11
2.92894
 21
205.929
  0
LINE
  8
0
 10
2.92894
 20
205.929
 11
4.44431
 21
204.685
  0
LINE
  8
0
 10
4.44431
 20
204.685
 11
6.17317
 21
203.761
  0
LINE
  8
0
 10
6.17317
 20
203.761
 11
6.52312
 21
203.655
  0
LINE
  8
0
 10
6.52312
 20
203.655
 11
12.9583
 21
206.656
  0
LINE
  8
0
 10
9.72688
 20
211.627
 11
9.46425
 21
211.707
  0
LINE
  8
0
 10
9.46425
 20
211.707
 11
9.22221
 21
211.836
  0
LINE
  8
0
 10
9.22221
 20
211.836
 11
9.01006
 21
212.01
  0
LINE
  8
0
 10
9.01006
 20
212.01
 11
8.83595
 21
212.222
  0
LINE
  8
0
 10
8.83595
 20
212.222
 11
8.70657
 21
212.464
  0
LINE
  8
0
 10
8.70657
 20
212.464
 11
8.62691
 21
212.727
  0
LINE
  8
0
 10
8.62691
 20
212.727
 11
8.60001
 21
213
  0
LINE
  8
0
 10
8.60001
 20
213
 11
8.62691
 21
213.273
  0
LINE
  8
0
 10
8.62691
 20
213.273
 11
8.70657
 21
213.536
  0
LINE
  8
0
 10
8.70657
 20
213.536
 11
8.83595
 21
213.778
  0
LINE
  8
0
 10
8.83595
 20
213.778
 11
9.01006
 21
213.99
  0
LINE
  8
0
 10
9.01006
 20
213.99
 11
9.22221
 21
214.164
  0
LINE
  8
0
 10
9.22221
 20
214.164
 11
9.46425
 21
214.293
  0
LINE
  8
0
 10
9.46425
 20
214.293
 11
9.72688
 21
214.373
  0
LINE
  8
0
 10
9.72688
 20
214.373
 11
10
 21
214.4
  0
LINE
  8
0
 10
10
 20
214.4
 11
10.2731
 21
214.373
  0
LINE
  8
0
 10
10.2731
 20
214.373
 11
10.5358
 21
214.293
  0
LINE
  8
0
 10
10.5358
 20
214.293
 11
10.7778
 21
214.164
  0
LINE
  8
0
 10
10.7778
 20
214.164
 11
10.9899
 21
213.99
  0
LINE
  8
0
 10
10.9899
 20
213.99
 11
11.164
 21
213.778
  0
LINE
  8
0
 10
11.164
 20
213.778
 11
11.2934
 21
213.536
  0
LINE
  8
0
 10
11.2934
 20
213.536
 11
11.3731
 21
213.273
  0
LINE
  8
0
 10
11.3731
 20
213.273
 11
11.4
 21
213
  0
LINE
  8
0
 10
11.4
 20
213
 11
11.3731
 21
212.727
  0
LINE
  8
0
 10
11.3731
 20
212.727
 11
11.2934
 21
212.464
  0
LINE
  8
0
 10
11.2934
 20
212.464
 11
11.164
 21
212.222
  0
LINE
  8
0
 10
11.164
 20
212.222
 11
10.9899
 21
212.01
  0
LINE
  8
0
 10
10.9899
 20
212.01
 11
10.7778
 21
211.836
  0
LINE
  8
0
 10
10.7778
 20
211.836
 11
10.5358
 21
211.707
  0
LINE
  8
0
 10
10.5358
 20
211.707
 11
10.2731
 21
211.627
  0
LINE
  8
0
 10
10.2731
 20
211.627
 11
10
 21
211.6
  0
LINE
  8
0
 10
10
 20
211.6
 11
9.72688
 21
211.627
  0
LINE
  8
0
 10
200
 20
203
 11
101.425
 21
203
  0
LINE
  8
0
 10
101.425
 20
203
 11
101.425
 21
201.585
  0
LINE
  8
0
 10
101.425
 20
201.585
 11
98.575
 21
201.585
  0
LINE
  8
0
 10
98.575
 20
201.585
 11
98.575
 21
203
  0
LINE
  8
0
 10
98.575
 20
203
 11
0
 21
203
  0
LINE
  8
0
 10
0
 20
203
 11
0
 21
183
  0
LINE
  8
0
 10
0
 20
183
 11
200
 21
183
  0
LINE
  8
0
 10
200
 20
183
 11
200
 21
203
  0
LINE
  8
0
 10
189.707
 20
191.529
 11
189.426
 21
191.614
  0
LINE
  8
0
 10
189.426
 20
191.614
 11
189.167
 21
191.753
  0
LINE
  8
0
 10
189.167
 20
191.753
 11
188.939
 21
191.939
  0
LINE
  8
0
 10
188.939
 20
191.939
 11
188.753
 21
192.167
  0
LINE
  8
0
 10
188.753
 20
192.167
 11
188.614
 21
192.426
  0
LINE
  8
0
 10
188.614
 20
192.426
 11
188.529
 21
192.707
  0
LINE
  8
0
 10
188.529
 20
192.707
 11
188.5
 21
193
  0
LINE
  8
0
 10
188.5
 20
193
 11
188.529
 21
193.293
  0
LINE
  8
0
 10
188.529
 20
193.293
 11
188.614
 21
193.574
  0
LINE
  8
0
 10
188.614
 20
193.574
 11
188.753
 21
193.833
  0
LINE
  8
0
 10
188.753
 20
193.833
 11
188.939
 21
194.061
  0
LINE
  8
0
 10
188.939
 20
194.061
 11
189.167
 21
194.247
  0
LINE
  8
0
 10
189.167
 20
194.247
 11
189.426
 21
194.386
  0
LINE
  8
0
 10
189.426
 20
194.386
 11
189.707
 21
194.471
  0
LINE
  8
0
 10
189.707
 20
194.471
 11
190
 21
194.5
  0
LINE
  8
0
 10
190
 20
194.5
 11
190.293
 21
194.471
  0
LINE
  8
0
 10
190.293
 20
194.471
 11
190.574
 21
194.386
  0
LINE
  8
0
 10
190.574
 20
194.386
 11
190.833
 21
194.247
  0
LINE
  8
0
 10
190.833
 20
194.247
 11
191.061
 21
194.061
  0
LINE
  8
0
 10
191.061
 20
194.061
 11
191.247
 21
193.833
  0
LINE
  8
0
 10
191.247
 20
193.833
 11
191.386
 21
193.574
  0
LINE
  8
0
 10
191.386
 20
193.574
 11
191.471
 21
193.293
  0
LINE
  8
0
 10
191.471
 20
193.293
 11
191.5
 21
193
  0
LINE
  8
0
 10
191.5
 20
193
 11
191.471
 21
192.707
  0
LINE
  8
0
 10
191.471
 20
192.707
 11
191.386
 21
192.426
  0
LINE
  8
0
 10
191.386
 20
192.426
 11
191.247
 21
192.167
  0
LINE
  8
0
 10
191.247
 20
192.167
 11
191.061
 21
191.939
  0
LINE
  8
0
 10
191.061
 20
191.939
 11
190.833
 21
191.753
  0
LINE
  8
0
 10
190.833
 20
191.753
 11
190.574
 21
191.614
  0
LINE
  8
0
 10
190.574
 20
191.614
 11
190.293
 21
191.529
  0
LINE
  8
0
 10
190.293
 20
191.529
 11
190
 21
191.5
  0
LINE
  8
0
 10
190
 20
191.5
 11
189.707
 21
191.529
  0
LINE
  8
0
 10
9.70735
 20
191.529
 11
9.42596
 21
191.614
  0
LINE
  8
0
 10
9.42596
 20
191.614
 11
9.16664
 21
191.753
  0
LINE
  8
0
 10
9.16664
 20
191.753
 11
8.93933
 21
191.939
  0
LINE
  8
0
 10
8.93933
 20
191.939
 11
8.75279
 21
192.167
  0
LINE
  8
0
 10
8.75279
 20
192.167
 11
8.61417
 21
192.426
  0
LINE
  8
0
 10
8.61417
 20
192.426
 11
8.52881
 21
192.707
  0
LINE
  8
0
 10
8.52881
 20
192.707
 11
8.5
 21
193
  0
LINE
  8
0
 10
8.5
 20
193
 11
8.52881
 21
193.293
  0
LINE
  8
0
 10
8.52881
 20
193.293
 11
8.61417
 21
193.574
  0
LINE
  8
0
 10
8.61417
 20
193.574
 11
8.75279
 21
193.833
  0
LINE
  8
0
 10
8.75279
 20
193.833
 11
8.93933
 21
194.061
  0
LINE
  8
0
 10
8.93933
 20
194.061
 11
9.16664
 21
194.247
  0
LINE
  8
0
 10
9.16664
 20
194.247
 11
9.42596
 21
194.386
  0
LINE
  8
0
 10
9.42596
 20
194.386
 11
9.70735
 21
194.471
  0
LINE
  8
0
 10
9.70735
 20
194.471
 11
10
 21
194.5
  0
LINE
  8
0
 10
10
 20
194.5
 11
10.2926
 21
194.471
  0
LINE
  8
0
 10
10.2926
 20
194.471
 11
10.574
 21
194.386
  0
LINE
  8
0
 10
10.574
 20
194.386
 11
10.8333
 21
194.247
  0
LINE
  8
0
 10
10.8333
 20
194.247
 11
11.0607
 21
194.061
  0
LINE
  8
0
 10
11.0607
 20
194.061
 11
11.2472
 21
193.833
  0
LINE
  8
0
 10
11.2472
 20
193.833
 11
11.3858
 21
193.574
  0
LINE
  8
0
 10
11.3858
 20
193.574
 11
11.4712
 21
193.293
  0
LINE
  8
0
 10
11.4712
 20
193.293
 11
11.5
 21
193
  0
LINE
  8
0
 10
11.5
 20
193
 11
11.4712
 21
192.707
  0
LINE
  8
0
 10
11.4712
 20
192.707
 11
11.3858
 21
192.426
  0
LINE
  8
0
 10
11.3858
 20
192.426
 11
11.2472
 21
192.167
  0
LINE
  8
0
 10
11.2472
 20
192.167
 11
11.0607
 21
191.939
  0
LINE
  8
0
 10
11.0607
 20
191.939
 11
10.8333
 21
191.753
  0
LINE
  8
0
 10
10.8333
 20
191.753
 11
10.574
 21
191.614
  0
LINE
  8
0
 10
10.574
 20
191.614
 11
10.2926
 21
191.529
  0
LINE
  8
0
 10
10.2926
 20
191.529
 11
10
 21
191.5
  0
LINE
  8
0
 10
10
 20
191.5
 11
9.70735
 21
191.529
  0
LINE
  8
0
 10
200
 20
176
 11
199
 21
176
  0
LINE
  8
0
 10
199
 20
176
 11
199
 21
178
  0
LINE
  8
0
 10
199
 20
178
 11
198
 21
178
  0
LINE
  8
0
 10
198
 20
178
 11
198
 21
180
  0
LINE
  8
0
 10
198
 20
180
 11
199
 21
180
  0
LINE
  8
0
 10
199
 20
180
 11
199
 21
182
  0
LINE
  8
0
 10
199
 20
182
 11
194
 21
182
  0
LINE
  8
0
 10
194
 20
182
 11
194
 21
156
  0
LINE
  8
0
 10
194
 20
156
 11
185.45
 21
156
  0
LINE
  8
0
 10
185.45
 20
156
 11
185.45
 21
182
  0
LINE
  8
0
 10
185.45
 20
182
 11
180.45
 21
182
  0
LINE
  8
0
 10
180.45
 20
182
 11
180.45
 21
180
  0
LINE
  8
0
 10
180.45
 20
180
 11
181.45
 21
180
  0
LINE
  8
0
 10
181.45
 20
180
 11
181.45
 21
178
  0
LINE
  8
0
 10
181.45
 20
178
 11
180.45
 21
178
  0
LINE
  8
0
 10
180.45
 20
178
 11
180.45
 21
176
  0
LINE
  8
0
 10
180.45
 20
176
 11
93.1014
 21
176
  0
LINE
  8
0
 10
93.1014
 20
176
 11
93.8887
 21
176.646
  0
LINE
  8
0
 10
93.8887
 20
176.646
 11
95.7905
 21
177.663
  0
LINE
  8
0
 10
95.7905
 20
177.663
 11
97.854
 21
178.289
  0
LINE
  8
0
 10
97.854
 20
178.289
 11
100
 21
178.5
  0
LINE
  8
0
 10
100
 20
178.5
 11
102.146
 21
178.289
  0
LINE
  8
0
 10
102.146
 20
178.289
 11
104.21
 21
177.663
  0
LINE
  8
0
 10
104.21
 20
177.663
 11
105.917
 21
176.75
  0
LINE
  8
0
 10
105.917
 20
176.75
 11
150
 21
176.75
  0
LINE
  8
0
 10
150
 20
176.75
 11
150
 21
181
  0
LINE
  8
0
 10
150
 20
181
 11
50
 21
181
  0
LINE
  8
0
 10
50
 20
181
 11
50
 21
176
  0
LINE
  8
0
 10
50
 20
176
 11
0
 21
176
  0
LINE
  8
0
 10
0
 20
176
 11
0
 21
146
  0
LINE
  8
0
 10
0
 20
146
 11
200
 21
146
  0
LINE
  8
0
 10
200
 20
146
 11
200
 21
176
  0
LINE
  8
0
 10
62.6667
 20
167.075
 11
62.6667
 21
169.925
  0
LINE
  8
0
 10
62.6667
 20
169.925
 11
70.6667
 21
169.925
  0
LINE
  8
0
 10
70.6667
 20
169.925
 11
70.6667
 21
167.075
  0
LINE
  8
0
 10
70.6667
 20
167.075
 11
62.6667
 21
167.075
  0
LINE
  8
0
 10
99.7269
 20
166.127
 11
99.4642
 21
166.207
  0
LINE
  8
0
 10
99.4642
 20
166.207
 11
99.2222
 21
166.336
  0
LINE
  8
0
 10
99.2222
 20
166.336
 11
99.01
 21
166.51
  0
LINE
  8
0
 10
99.01
 20
166.51
 11
98.8359
 21
166.722
  0
LINE
  8
0
 10
98.8359
 20
166.722
 11
98.7066
 21
166.964
  0
LINE
  8
0
 10
98.7066
 20
166.964
 11
98.6269
 21
167.227
  0
LINE
  8
0
 10
98.6269
 20
167.227
 11
98.6
 21
167.5
  0
LINE
  8
0
 10
98.6
 20
167.5
 11
98.6269
 21
167.773
  0
LINE
  8
0
 10
98.6269
 20
167.773
 11
98.7066
 21
168.036
  0
LINE
  8
0
 10
98.7066
 20
168.036
 11
98.8359
 21
168.278
  0
LINE
  8
0
 10
98.8359
 20
168.278
 11
99.01
 21
168.49
  0
LINE
  8
0
 10
99.01
 20
168.49
 11
99.2222
 21
168.664
  0
LINE
  8
0
 10
99.2222
 20
168.664
 11
99.4642
 21
168.793
  0
LINE
  8
0
 10
99.4642
 20
168.793
 11
99.7269
 21
168.873
  0
LINE
  8
0
 10
99.7269
 20
168.873
 11
100
 21
168.9
  0
LINE
  8
0
 10
100
 20
168.9
 11
100.273
 21
168.873
  0
LINE
  8
0
 10
100.273
 20
168.873
 11
100.536
 21
168.793
  0
LINE
  8
0
 10
100.536
 20
168.793
 11
100.778
 21
168.664
  0
LINE
  8
0
 10
100.778
 20
168.664
 11
100.99
 21
168.49
  0
LINE
  8
0
 10
100.99
 20
168.49
 11
101.164
 21
168.278
  0
LINE
  8
0
 10
101.164
 20
168.278
 11
101.293
 21
168.036
  0
LINE
  8
0
 10
101.293
 20
168.036
 11
101.373
 21
167.773
  0
LINE
  8
0
 10
101.373
 20
167.773
 11
101.4
 21
167.5
  0
LINE
  8
0
 10
101.4
 20
167.5
 11
101.373
 21
167.227
  0
LINE
  8
0
 10
101.373
 20
167.227
 11
101.293
 21
166.964
  0
LINE
  8
0
 10
101.293
 20
166.964
 11
101.164
 21
166.722
  0
LINE
  8
0
 10
101.164
 20
166.722
 11
100.99
 21
166.51
  0
LINE
  8
0
 10
100.99
 20
166.51
 11
100.778
 21
166.336
  0
LINE
  8
0
 10
100.778
 20
166.336
 11
100.536
 21
166.207
  0
LINE
  8
0
 10
100.536
 20
166.207
 11
100.273
 21
166.127
  0
LINE
  8
0
 10
100.273
 20
166.127
 11
100
 21
166.1
  0
LINE
  8
0
 10
100
 20
166.1
 11
99.7269
 21
166.127
  0
LINE
  8
0
 10
173.575
 20
157
 11
173.575
 21
165
  0
LINE
  8
0
 10
173.575
 20
165
 11
176.425
 21
165
  0
LINE
  8
0
 10
176.425
 20
165
 11
176.425
 21
157
  0
LINE
  8
0
 10
176.425
 20
157
 11
173.575
 21
157
  0
LINE
  8
0
 10
11.075
 20
157
 11
11.075
 21
165
  0
LINE
  8
0
 10
11.075
 20
165
 11
13.925
 21
165
  0
LINE
  8
0
 10
13.925
 20
165
 11
13.925
 21
157
  0
LINE
  8
0
 10
13.925
 20
157
 11
11.075
 21
157
  0
LINE
  8
0
 10
123.273
 20
152.075
 11
123.273
 21
154.925
  0
LINE
  8
0
 10
123.273
 20
154.925
 11
131.273
 21
154.925
  0
LINE
  8
0
 10
131.273
 20
154.925
 11
131.273
 21
152.075
  0
LINE
  8
0
 10
131.273
 20
152.075
 11
123.273
 21
152.075
  0
LINE
  8
0
 10
88.1223
 20
148.54
 11
87.8564
 21
148.608
  0
LINE
  8
0
 10
87.8564
 20
148.608
 11
87.609
 21
148.727
  0
LINE
  8
0
 10
87.609
 20
148.727
 11
87.3894
 21
148.891
  0
LINE
  8
0
 10
87.3894
 20
148.891
 11
87.2062
 21
149.096
  0
LINE
  8
0
 10
87.2062
 20
149.096
 11
87.0664
 21
149.332
  0
LINE
  8
0
 10
87.0664
 20
149.332
 11
86.9754
 21
149.591
  0
LINE
  8
0
 10
86.9754
 20
149.591
 11
86.9366
 21
149.862
  0
LINE
  8
0
 10
86.9366
 20
149.862
 11
86.9516
 21
150.136
  0
LINE
  8
0
 10
86.9516
 20
150.136
 11
87.0197
 21
150.402
  0
LINE
  8
0
 10
87.0197
 20
150.402
 11
87.1384
 21
150.65
  0
LINE
  8
0
 10
87.1384
 20
150.65
 11
87.3031
 21
150.869
  0
LINE
  8
0
 10
87.3031
 20
150.869
 11
87.5074
 21
151.053
  0
LINE
  8
0
 10
87.5074
 20
151.053
 11
87.7436
 21
151.192
  0
LINE
  8
0
 10
87.7436
 20
151.192
 11
88.0025
 21
151.283
  0
LINE
  8
0
 10
88.0025
 20
151.283
 11
88.2742
 21
151.322
  0
LINE
  8
0
 10
88.2742
 20
151.322
 11
88.5482
 21
151.307
  0
LINE
  8
0
 10
88.5482
 20
151.307
 11
88.8141
 21
151.239
  0
LINE
  8
0
 10
88.8141
 20
151.239
 11
89.0615
 21
151.12
  0
LINE
  8
0
 10
89.0615
 20
151.12
 11
89.2811
 21
150.956
  0
LINE
  8
0
 10
89.2811
 20
150.956
 11
89.4643
 21
150.751
  0
LINE
  8
0
 10
89.4643
 20
150.751
 11
89.6041
 21
150.515
  0
LINE
  8
0
 10
89.6041
 20
150.515
 11
89.6951
 21
150.256
  0
LINE
  8
0
 10
89.6951
 20
150.256
 11
89.7339
 21
149.985
  0
LINE
  8
0
 10
89.7339
 20
149.985
 11
89.719
 21
149.711
  0
LINE
  8
0
 10
89.719
 20
149.711
 11
89.6508
 21
149.445
  0
LINE
  8
0
 10
89.6508
 20
149.445
 11
89.5321
 21
149.197
  0
LINE
  8
0
 10
89.5321
 20
149.197
 11
89.3674
 21
148.978
  0
LINE
  8
0
 10
89.3674
 20
148.978
 11
89.1631
 21
148.794
  0
LINE
  8
0
 10
89.1631
 20
148.794
 11
88.9269
 21
148.655
  0
LINE
  8
0
 10
88.9269
 20
148.655
 11
88.668
 21
148.564
  0
LINE
  8
0
 10
88.668
 20
148.564
 11
88.3963
 21
148.525
  0
LINE
  8
0
 10
88.3963
 20
148.525
 11
88.1223
 21
148.54
  0
LINE
  8
0
 10
200
 20
139.5
 11
199
 21
139.5
  0
LINE
  8
0
 10
199
 20
139.5
 11
199
 21
141.5
  0
LINE
  8
0
 10
199
 20
141.5
 11
198
 21
141.5
  0
LINE
  8
0
 10
198
 20
141.5
 11
198
 21
143.5
  0
LINE
  8
0
 10
198
 20
143.5
 11
199
 21
143.5
  0
LINE
  8
0
 10
199
 20
143.5
 11
199
 21
145.5
  0
LINE
  8
0
 10
199
 20
145.5
 11
194
 21
145.5
  0
LINE
  8
0
 10
194
 20
145.5
 11
194
 21
119.5
  0
LINE
  8
0
 10
194
 20
119.5
 11
185.45
 21
119.5
  0
LINE
  8
0
 10
185.45
 20
119.5
 11
185.45
 21
145.5
  0
LINE
  8
0
 10
185.45
 20
145.5
 11
180.45
 21
145.5
  0
LINE
  8
0
 10
180.45
 20
145.5
 11
180.45
 21
143.5
  0
LINE
  8
0
 10
180.45
 20
143.5
 11
181.45
 21
143.5
  0
LINE
  8
0
 10
181.45
 20
143.5
 11
181.45
 21
141.5
  0
LINE
  8
0
 10
181.45
 20
141.5
 11
180.45
 21
141.5
  0
LINE
  8
0
 10
180.45
 20
141.5
 11
180.45
 21
139.5
  0
LINE
  8
0
 10
180.45
 20
139.5
 11
93.1014
 21
139.5
  0
LINE
  8
0
 10
93.1014
 20
139.5
 11
93.8887
 21
140.146
  0
LINE
  8
0
 10
93.8887
 20
140.146
 11
95.7905
 21
141.163
  0
LINE
  8
0
 10
95.7905
 20
141.163
 11
97.854
 21
141.789
  0
LINE
  8
0
 10
97.854
 20
141.789
 11
100
 21
142
  0
LINE
  8
0
 10
100
 20
142
 11
102.146
 21
141.789
  0
LINE
  8
0
 10
102.146
 20
141.789
 11
104.21
 21
141.163
  0
LINE
  8
0
 10
104.21
 20
141.163
 11
105.917
 21
140.25
  0
LINE
  8
0
 10
105.917
 20
140.25
 11
150
 21
140.25
  0
LINE
  8
0
 10
150
 20
140.25
 11
150
 21
144.5
  0
LINE
  8
0
 10
150
 20
144.5
 11
50
 21
144.5
  0
LINE
  8
0
 10
50
 20
144.5
 11
50
 21
139.5
  0
LINE
  8
0
 10
50
 20
139.5
 11
0
 21
139.5
  0
LINE
  8
0
 10
0
 20
139.5
 11
0
 21
109.5
  0
LINE
  8
0
 10
0
 20
109.5
 11
200
 21
109.5
  0
LINE
  8
0
 10
200
 20
109.5
 11
200
 21
139.5
  0
LINE
  8
0
 10
62.6667
 20
130.575
 11
62.6667
 21
133.425
  0
LINE
  8
0
 10
62.6667
 20
133.425
 11
70.6667
 21
133.425
  0
LINE
  8
0
 10
70.6667
 20
133.425
 11
70.6667
 21
130.575
  0
LINE
  8
0
 10
70.6667
 20
130.575
 11
62.6667
 21
130.575
  0
LINE
  8
0
 10
99.7269
 20
129.627
 11
99.4642
 21
129.707
  0
LINE
  8
0
 10
99.4642
 20
129.707
 11
99.2222
 21
129.836
  0
LINE
  8
0
 10
99.2222
 20
129.836
 11
99.01
 21
130.01
  0
LINE
  8
0
 10
99.01
 20
130.01
 11
98.8359
 21
130.222
  0
LINE
  8
0
 10
98.8359
 20
130.222
 11
98.7066
 21
130.464
  0
LINE
  8
0
 10
98.7066
 20
130.464
 11
98.6269
 21
130.727
  0
LINE
  8
0
 10
98.6269
 20
130.727
 11
98.6
 21
131
  0
LINE
  8
0
 10
98.6
 20
131
 11
98.6269
 21
131.273
  0
LINE
  8
0
 10
98.6269
 20
131.273
 11
98.7066
 21
131.536
  0
LINE
  8
0
 10
98.7066
 20
131.536
 11
98.8359
 21
131.778
  0
LINE
  8
0
 10
98.8359
 20
131.778
 11
99.01
 21
131.99
  0
LINE
  8
0
 10
99.01
 20
131.99
 11
99.2222
 21
132.164
  0
LINE
  8
0
 10
99.2222
 20
132.164
 11
99.4642
 21
132.293
  0
LINE
  8
0
 10
99.4642
 20
132.293
 11
99.7269
 21
132.373
  0
LINE
  8
0
 10
99.7269
 20
132.373
 11
100
 21
132.4
  0
LINE
  8
0
 10
100
 20
132.4
 11
100.273
 21
132.373
  0
LINE
  8
0
 10
100.273
 20
132.373
 11
100.536
 21
132.293
  0
LINE
  8
0
 10
100.536
 20
132.293
 11
100.778
 21
132.164
  0
LINE
  8
0
 10
100.778
 20
132.164
 11
100.99
 21
131.99
  0
LINE
  8
0
 10
100.99
 20
131.99
 11
101.164
 21
131.778
  0
LINE
  8
0
 10
101.164
 20
131.778
 11
101.293
 21
131.536
  0
LINE
  8
0
 10
101.293
 20
131.536
 11
101.373
 21
131.273
  0
LINE
  8
0
 10
101.373
 20
131.273
 11
101.4
 21
131
  0
LINE
  8
0
 10
101.4
 20
131
 11
101.373
 21
130.727
  0
LINE
  8
0
 10
101.373
 20
130.727
 11
101.293
 21
130.464
  0
LINE
  8
0
 10
101.293
 20
130.464
 11
101.164
 21
130.222
  0
LINE
  8
0
 10
101.164
 20
130.222
 11
100.99
 21
130.01
  0
LINE
  8
0
 10
100.99
 20
130.01
 11
100.778
 21
129.836
  0
LINE
  8
0
 10
100.778
 20
129.836
 11
100.536
 21
129.707
  0
LINE
  8
0
 10
100.536
 20
129.707
 11
100.273
 21
129.627
  0
LINE
  8
0
 10
100.273
 20
129.627
 11
100
 21
129.6
  0
LINE
  8
0
 10
100
 20
129.6
 11
99.7269
 21
129.627
  0
LINE
  8
0
 10
173.575
 20
120.5
 11
173.575
 21
128.5
  0
LINE
  8
0
 10
173.575
 20
128.5
 11
176.425
 21
128.5
  0
LINE
  8
0
 10
176.425
 20
128.5
 11
176.425
 21
120.5
  0
LINE
  8
0
 10
176.425
 20
120.5
 11
173.575
 21
120.5
  0
LINE
  8
0
 10
11.075
 20
120.5
 11
11.075
 21
128.5
  0
LINE
  8
0
 10
11.075
 20
128.5
 11
13.925
 21
128.5
  0
LINE
  8
0
 10
13.925
 20
128.5
 11
13.925
 21
120.5
  0
LINE
  8
0
 10
13.925
 20
120.5
 11
11.075
 21
120.5
  0
LINE
  8
0
 10
123.273
 20
115.575
 11
123.273
 21
118.425
  0
LINE
  8
0
 10
123.273
 20
118.425
 11
131.273
 21
118.425
  0
LINE
  8
0
 10
131.273
 20
118.425
 11
131.273
 21
115.575
  0
LINE
  8
0
 10
131.273
 20
115.575
 11
123.273
 21
115.575
  0
LINE
  8
0
 10
88.1223
 20
112.04
 11
87.8564
 21
112.108
  0
LINE
  8
0
 10
87.8564
 20
112.108
 11
87.609
 21
112.227
  0
LINE
  8
0
 10
87.609
 20
112.227
 11
87.3894
 21
112.391
  0
LINE
  8
0
 10
87.3894
 20
112.391
 11
87.2062
 21
112.596
  0
LINE
  8
0
 10
87.2062
 20
112.596
 11
87.0664
 21
112.832
  0
LINE
  8
0
 10
87.0664
 20
112.832
 11
86.9754
 21
113.091
  0
LINE
  8
0
 10
86.9754
 20
113.091
 11
86.9366
 21
113.362
  0
LINE
  8
0
 10
86.9366
 20
113.362
 11
86.9516
 21
113.636
  0
LINE
  8
0
 10
86.9516
 20
113.636
 11
87.0197
 21
113.902
  0
LINE
  8
0
 10
87.0197
 20
113.902
 11
87.1384
 21
114.15
  0
LINE
  8
0
 10
87.1384
 20
114.15
 11
87.3031
 21
114.369
  0
LINE
  8
0
 10
87.3031
 20
114.369
 11
87.5074
 21
114.553
  0
LINE
  8
0
 10
87.5074
 20
114.553
 11
87.7436
 21
114.692
  0
LINE
  8
0
 10
87.7436
 20
114.692
 11
88.0025
 21
114.783
  0
LINE
  8
0
 10
88.0025
 20
114.783
 11
88.2742
 21
114.822
  0
LINE
  8
0
 10
88.2742
 20
114.822
 11
88.5482
 21
114.807
  0
LINE
  8
0
 10
88.5482
 20
114.807
 11
88.8141
 21
114.739
  0
LINE
  8
0
 10
88.8141
 20
114.739
 11
89.0615
 21
114.62
  0
LINE
  8
0
 10
89.0615
 20
114.62
 11
89.2811
 21
114.456
  0
LINE
  8
0
 10
89.2811
 20
114.456
 11
89.4643
 21
114.251
  0
LINE
  8
0
 10
89.4643
 20
114.251
 11
89.6041
 21
114.015
  0
LINE
  8
0
 10
89.6041
 20
114.015
 11
89.6951
 21
113.756
  0
LINE
  8
0
 10
89.6951
 20
113.756
 11
89.7339
 21
113.485
  0
LINE
  8
0
 10
89.7339
 20
113.485
 11
89.719
 21
113.211
  0
LINE
  8
0
 10
89.719
 20
113.211
 11
89.6508
 21
112.945
  0
LINE
  8
0
 10
89.6508
 20
112.945
 11
89.5321
 21
112.697
  0
LINE
  8
0
 10
89.5321
 20
112.697
 11
89.3674
 21
112.478
  0
LINE
  8
0
 10
89.3674
 20
112.478
 11
89.1631
 21
112.294
  0
LINE
  8
0
 10
89.1631
 20
112.294
 11
88.9269
 21
112.155
  0
LINE
  8
0
 10
88.9269
 20
112.155
 11
88.668
 21
112.064
  0
LINE
  8
0
 10
88.668
 20
112.064
 11
88.3963
 21
112.025
  0
LINE
  8
0
 10
88.3963
 20
112.025
 11
88.1223
 21
112.04
  0
LINE
  8
0
 10
50.5
 20
88
 11
80.5
 21
88
  0
LINE
  8
0
 10
80.5
 20
88
 11
80.5
 21
103
  0
LINE
  8
0
 10
80.5
 20
103
 11
93.1014
 21
103
  0
LINE
  8
0
 10
93.1014
 20
103
 11
93.8887
 21
103.646
  0
LINE
  8
0
 10
93.8887
 20
103.646
 11
95.7905
 21
104.663
  0
LINE
  8
0
 10
95.7905
 20
104.663
 11
97.854
 21
105.289
  0
LINE
  8
0
 10
97.854
 20
105.289
 11
100
 21
105.5
  0
LINE
  8
0
 10
100
 20
105.5
 11
102.146
 21
105.289
  0
LINE
  8
0
 10
102.146
 20
105.289
 11
104.21
 21
104.663
  0
LINE
  8
0
 10
104.21
 20
104.663
 11
105.917
 21
103.75
  0
LINE
  8
0
 10
105.917
 20
103.75
 11
150
 21
103.75
  0
LINE
  8
0
 10
150
 20
103.75
 11
150
 21
108
  0
LINE
  8
0
 10
150
 20
108
 11
50
 21
108
  0
LINE
  8
0
 10
50
 20
108
 11
50
 21
103
  0
LINE
  8
0
 10
50
 20
103
 11
0
 21
103
  0
LINE
  8
0
 10
0
 20
103
 11
0
 21
73
  0
LINE
  8
0
 10
0
 20
73
 11
50.5
 21
73
  0
LINE
  8
0
 10
50.5
 20
73
 11
50.5
 21
88
  0
LINE
  8
0
 10
62.6667
 20
94.075
 11
62.6667
 21
96.925
  0
LINE
  8
0
 10
62.6667
 20
96.925
 11
70.6667
 21
96.925
  0
LINE
  8
0
 10
70.6667
 20
96.925
 11
70.6667
 21
94.075
  0
LINE
  8
0
 10
70.6667
 20
94.075
 11
62.6667
 21
94.075
  0
LINE
  8
0
 10
11.075
 20
84
 11
11.075
 21
92
  0
LINE
  8
0
 10
11.075
 20
92
 11
13.925
 21
92
  0
LINE
  8
0
 10
13.925
 20
92
 11
13.925
 21
84
  0
LINE
  8
0
 10
13.925
 20
84
 11
11.075
 21
84
  0
LINE
  8
0
 10
200
 20
101.585
 11
194
 21
101.585
  0
LINE
  8
0
 10
194
 20
101.585
 11
194
 21
83
  0
LINE
  8
0
 10
194
 20
83
 11
185.45
 21
83
  0
LINE
  8
0
 10
185.45
 20
83
 11
185.45
 21
101.585
  0
LINE
  8
0
 10
185.45
 20
101.585
 11
110.5
 21
101.585
  0
LINE
  8
0
 10
110.5
 20
101.585
 11
110.5
 21
94.5
  0
LINE
  8
0
 10
110.5
 20
94.5
 11
143
 21
94.5
  0
LINE
  8
0
 10
143
 20
94.5
 11
143
 21
93.922
  0
LINE
  8
0
 10
143
 20
93.922
 11
125.5
 21
93.922
  0
LINE
  8
0
 10
125.5
 20
93.922
 11
125.5
 21
89.8402
  0
LINE
  8
0
 10
125.5
 20
89.8402
 11
128.997
 21
91.4708
  0
LINE
  8
0
 10
128.997
 20
91.4708
 11
129.241
 21
90.947
  0
LINE
  8
0
 10
129.241
 20
90.947
 11
115.647
 21
84.6077
  0
LINE
  8
0
 10
115.647
 20
84.6077
 11
117.76
 21
80.0762
  0
LINE
  8
0
 10
117.76
 20
80.0762
 11
110.5
 21
76.6909
  0
LINE
  8
0
 10
110.5
 20
76.6909
 11
110.5
 21
73
  0
LINE
  8
0
 10
110.5
 20
73
 11
200
 21
73
  0
LINE
  8
0
 10
200
 20
73
 11
200
 21
101.585
  0
LINE
  8
0
 10
173.575
 20
84
 11
173.575
 21
92
  0
LINE
  8
0
 10
173.575
 20
92
 11
176.425
 21
92
  0
LINE
  8
0
 10
176.425
 20
92
 11
176.425
 21
84
  0
LINE
  8
0
 10
176.425
 20
84
 11
173.575
 21
84
  0
LINE
  8
0
 10
123.273
 20
79.075
 11
123.273
 21
81.925
  0
LINE
  8
0
 10
123.273
 20
81.925
 11
131.273
 21
81.925
  0
LINE
  8
0
 10
131.273
 20
81.925
 11
131.273
 21
79.075
  0
LINE
  8
0
 10
131.273
 20
79.075
 11
123.273
 21
79.075
  0
LINE
  8
0
 10
124.77
 20
89.5
 11
110.5
 21
89.5
  0
LINE
  8
0
 10
110.5
 20
89.5
 11
110.5
 21
82.8456
  0
LINE
  8
0
 10
110.5
 20
82.8456
 11
124.77
 21
89.5
  0
LINE
  8
0
 10
200
 20
66.5
 11
199
 21
66.5
  0
LINE
  8
0
 10
199
 20
66.5
 11
199
 21
68.5
  0
LINE
  8
0
 10
199
 20
68.5
 11
198
 21
68.5
  0
LINE
  8
0
 10
198
 20
68.5
 11
198
 21
70.5
  0
LINE
  8
0
 10
198
 20
70.5
 11
199
 21
70.5
  0
LINE
  8
0
 10
199
 20
70.5
 11
199
 21
72.5
  0
LINE
  8
0
 10
199
 20
72.5
 11
194
 21
72.5
  0
LINE
  8
0
 10
194
 20
72.5
 11
194
 21
46.5
  0
LINE
  8
0
 10
194
 20
46.5
 11
185.45
 21
46.5
  0
LINE
  8
0
 10
185.45
 20
46.5
 11
185.45
 21
72.5
  0
LINE
  8
0
 10
185.45
 20
72.5
 11
180.45
 21
72.5
  0
LINE
  8
0
 10
180.45
 20
72.5
 11
180.45
 21
70.5
  0
LINE
  8
0
 10
180.45
 20
70.5
 11
181.45
 21
70.5
  0
LINE
  8
0
 10
181.45
 20
70.5
 11
181.45
 21
68.5
  0
LINE
  8
0
 10
181.45
 20
68.5
 11
180.45
 21
68.5
  0
LINE
  8
0
 10
180.45
 20
68.5
 11
180.45
 21
66.5
  0
LINE
  8
0
 10
180.45
 20
66.5
 11
93.1014
 21
66.5
  0
LINE
  8
0
 10
93.1014
 20
66.5
 11
93.8887
 21
67.1462
  0
LINE
  8
0
 10
93.8887
 20
67.1462
 11
95.7905
 21
68.1627
  0
LINE
  8
0
 10
95.7905
 20
68.1627
 11
97.854
 21
68.7886
  0
LINE
  8
0
 10
97.854
 20
68.7886
 11
100
 21
69
  0
LINE
  8
0
 10
100
 20
69
 11
102.146
 21
68.7886
  0
LINE
  8
0
 10
102.146
 20
68.7886
 11
104.21
 21
68.1627
  0
LINE
  8
0
 10
104.21
 20
68.1627
 11
105.917
 21
67.25
  0
LINE
  8
0
 10
105.917
 20
67.25
 11
150
 21
67.25
  0
LINE
  8
0
 10
150
 20
67.25
 11
150
 21
71.5
  0
LINE
  8
0
 10
150
 20
71.5
 11
50
 21
71.5
  0
LINE
  8
0
 10
50
 20
71.5
 11
50
 21
66.5
  0
LINE
  8
0
 10
50
 20
66.5
 11
0
 21
66.5
  0
LINE
  8
0
 10
0
 20
66.5
 11
0
 21
36.5
  0
LINE
  8
0
 10
0
 20
36.5
 11
200
 21
36.5
  0
LINE
  8
0
 10
200
 20
36.5
 11
200
 21
66.5
  0
LINE
  8
0
 10
62.6667
 20
57.575
 11
62.6667
 21
60.425
  0
LINE
  8
0
 10
62.6667
 20
60.425
 11
70.6667
 21
60.425
  0
LINE
  8
0
 10
70.6667
 20
60.425
 11
70.6667
 21
57.575
  0
LINE
  8
0
 10
70.6667
 20
57.575
 11
62.6667
 21
57.575
  0
LINE
  8
0
 10
99.7269
 20
56.6269
 11
99.4642
 21
56.7066
  0
LINE
  8
0
 10
99.4642
 20
56.7066
 11
99.2222
 21
56.8359
  0
LINE
  8
0
 10
99.2222
 20
56.8359
 11
99.01
 21
57.01
  0
LINE
  8
0
 10
99.01
 20
57.01
 11
98.8359
 21
57.2222
  0
LINE
  8
0
 10
98.8359
 20
57.2222
 11
98.7066
 21
57.4642
  0
LINE
  8
0
 10
98.7066
 20
57.4642
 11
98.6269
 21
57.7269
  0
LINE
  8
0
 10
98.6269
 20
57.7269
 11
98.6
 21
58
  0
LINE
  8
0
 10
98.6
 20
58
 11
98.6269
 21
58.2731
  0
LINE
  8
0
 10
98.6269
 20
58.2731
 11
98.7066
 21
58.5358
  0
LINE
  8
0
 10
98.7066
 20
58.5358
 11
98.8359
 21
58.7778
  0
LINE
  8
0
 10
98.8359
 20
58.7778
 11
99.01
 21
58.9899
  0
LINE
  8
0
 10
99.01
 20
58.9899
 11
99.2222
 21
59.164
  0
LINE
  8
0
 10
99.2222
 20
59.164
 11
99.4642
 21
59.2934
  0
LINE
  8
0
 10
99.4642
 20
59.2934
 11
99.7269
 21
59.3731
  0
LINE
  8
0
 10
99.7269
 20
59.3731
 11
100
 21
59.4
  0
LINE
  8
0
 10
100
 20
59.4
 11
100.273
 21
59.3731
  0
LINE
  8
0
 10
100.273
 20
59.3731
 11
100.536
 21
59.2934
  0
LINE
  8
0
 10
100.536
 20
59.2934
 11
100.778
 21
59.164
  0
LINE
  8
0
 10
100.778
 20
59.164
 11
100.99
 21
58.9899
  0
LINE
  8
0
 10
100.99
 20
58.9899
 11
101.164
 21
58.7778
  0
LINE
  8
0
 10
101.164
 20
58.7778
 11
101.293
 21
58.5358
  0
LINE
  8
0
 10
101.293
 20
58.5358
 11
101.373
 21
58.2731
  0
LINE
  8
0
 10
101.373
 20
58.2731
 11
101.4
 21
58
  0
LINE
  8
0
 10
101.4
 20
58
 11
101.373
 21
57.7269
  0
LINE
  8
0
 10
101.373
 20
57.7269
 11
101.293
 21
57.4642
  0
LINE
  8
0
 10
101.293
 20
57.4642
 11
101.164
 21
57.2222
  0
LINE
  8
0
 10
101.164
 20
57.2222
 11
100.99
 21
57.01
  0
LINE
  8
0
 10
100.99
 20
57.01
 11
100.778
 21
56.8359
  0
LINE
  8
0
 10
100.778
 20
56.8359
 11
100.536
 21
56.7066
  0
LINE
  8
0
 10
100.536
 20
56.7066
 11
100.273
 21
56.6269
  0
LINE
  8
0
 10
100.273
 20
56.6269
 11
100
 21
56.6
  0
LINE
  8
0
 10
100
 20
56.6
 11
99.7269
 21
56.6269
  0
LINE
  8
0
 10
173.575
 20
47.5
 11
173.575
 21
55.5
  0
LINE
  8
0
 10
173.575
 20
55.5
 11
176.425
 21
55.5
  0
LINE
  8
0
 10
176.425
 20
55.5
 11
176.425
 21
47.5
  0
LINE
  8
0
 10
176.425
 20
47.5
 11
173.575
 21
47.5
  0
LINE
  8
0
 10
11.075
 20
47.5
 11
11.075
 21
55.5
  0
LINE
  8
0
 10
11.075
 20
55.5
 11
13.925
 21
55.5
  0
LINE
  8
0
 10
13.925
 20
55.5
 11
13.925
 21
47.5
  0
LINE
  8
0
 10
13.925
 20
47.5
 11
11.075
 21
47.5
  0
LINE
  8
0
 10
123.273
 20
42.575
 11
123.273
 21
45.425
  0
LINE
  8
0
 10
123.273
 20
45.425
 11
131.273
 21
45.425
  0
LINE
  8
0
 10
131.273
 20
45.425
 11
131.273
 21
42.575
  0
LINE
  8
0
 10
131.273
 20
42.575
 11
123.273
 21
42.575
  0
LINE
  8
0
 10
88.1223
 20
39.0398
 11
87.8564
 21
39.1079
  0
LINE
  8
0
 10
87.8564
 20
39.1079
 11
87.609
 21
39.2266
  0
LINE
  8
0
 10
87.609
 20
39.2266
 11
87.3894
 21
39.3913
  0
LINE
  8
0
 10
87.3894
 20
39.3913
 11
87.2062
 21
39.5956
  0
LINE
  8
0
 10
87.2062
 20
39.5956
 11
87.0664
 21
39.8318
  0
LINE
  8
0
 10
87.0664
 20
39.8318
 11
86.9754
 21
40.0907
  0
LINE
  8
0
 10
86.9754
 20
40.0907
 11
86.9366
 21
40.3624
  0
LINE
  8
0
 10
86.9366
 20
40.3624
 11
86.9516
 21
40.6364
  0
LINE
  8
0
 10
86.9516
 20
40.6364
 11
87.0197
 21
40.9023
  0
LINE
  8
0
 10
87.0197
 20
40.9023
 11
87.1384
 21
41.1498
  0
LINE
  8
0
 10
87.1384
 20
41.1498
 11
87.3031
 21
41.3693
  0
LINE
  8
0
 10
87.3031
 20
41.3693
 11
87.5074
 21
41.5525
  0
LINE
  8
0
 10
87.5074
 20
41.5525
 11
87.7436
 21
41.6923
  0
LINE
  8
0
 10
87.7436
 20
41.6923
 11
88.0025
 21
41.7834
  0
LINE
  8
0
 10
88.0025
 20
41.7834
 11
88.2742
 21
41.8221
  0
LINE
  8
0
 10
88.2742
 20
41.8221
 11
88.5482
 21
41.8072
  0
LINE
  8
0
 10
88.5482
 20
41.8072
 11
88.8141
 21
41.739
  0
LINE
  8
0
 10
88.8141
 20
41.739
 11
89.0615
 21
41.6204
  0
LINE
  8
0
 10
89.0615
 20
41.6204
 11
89.2811
 21
41.4557
  0
LINE
  8
0
 10
89.2811
 20
41.4557
 11
89.4643
 21
41.2513
  0
LINE
  8
0
 10
89.4643
 20
41.2513
 11
89.6041
 21
41.0152
  0
LINE
  8
0
 10
89.6041
 20
41.0152
 11
89.6951
 21
40.7562
  0
LINE
  8
0
 10
89.6951
 20
40.7562
 11
89.7339
 21
40.4845
  0
LINE
  8
0
 10
89.7339
 20
40.4845
 11
89.719
 21
40.2105
  0
LINE
  8
0
 10
89.719
 20
40.2105
 11
89.6508
 21
39.9447
  0
LINE
  8
0
 10
89.6508
 20
39.9447
 11
89.5321
 21
39.6972
  0
LINE
  8
0
 10
89.5321
 20
39.6972
 11
89.3674
 21
39.4776
  0
LINE
  8
0
 10
89.3674
 20
39.4776
 11
89.1631
 21
39.2945
  0
LINE
  8
0
 10
89.1631
 20
39.2945
 11
88.9269
 21
39.1546
  0
LINE
  8
0
 10
88.9269
 20
39.1546
 11
88.668
 21
39.0636
  0
LINE
  8
0
 10
88.668
 20
39.0636
 11
88.3963
 21
39.0248
  0
LINE
  8
0
 10
88.3963
 20
39.0248
 11
88.1223
 21
39.0398
  0
LINE
  8
0
 10
200
 20
30
 11
199
 21
30
  0
LINE
  8
0
 10
199
 20
30
 11
199
 21
32
  0
LINE
  8
0
 10
199
 20
32
 11
198
 21
32
  0
LINE
  8
0
 10
198
 20
32
 11
198
 21
34
  0
LINE
  8
0
 10
198
 20
34
 11
199
 21
34
  0
LINE
  8
0
 10
199
 20
34
 11
199
 21
36
  0
LINE
  8
0
 10
199
 20
36
 11
194
 21
36
  0
LINE
  8
0
 10
194
 20
36
 11
194
 21
10
  0
LINE
  8
0
 10
194
 20
10
 11
185.45
 21
10
  0
LINE
  8
0
 10
185.45
 20
10
 11
185.45
 21
36
  0
LINE
  8
0
 10
185.45
 20
36
 11
180.45
 21
36
  0
LINE
  8
0
 10
180.45
 20
36
 11
180.45
 21
34
  0
LINE
  8
0
 10
180.45
 20
34
 11
181.45
 21
34
  0
LINE
  8
0
 10
181.45
 20
34
 11
181.45
 21
32
  0
LINE
  8
0
 10
181.45
 20
32
 11
180.45
 21
32
  0
LINE
  8
0
 10
180.45
 20
32
 11
180.45
 21
30
  0
LINE
  8
0
 10
180.45
 20
30
 11
93.1014
 21
30
  0
LINE
  8
0
 10
93.1014
 20
30
 11
93.8887
 21
30.6462
  0
LINE
  8
0
 10
93.8887
 20
30.6462
 11
95.7905
 21
31.6627
  0
LINE
  8
0
 10
95.7905
 20
31.6627
 11
97.854
 21
32.2886
  0
LINE
  8
0
 10
97.854
 20
32.2886
 11
100
 21
32.5
  0
LINE
  8
0
 10
100
 20
32.5
 11
102.146
 21
32.2886
  0
LINE
  8
0
 10
102.146
 20
32.2886
 11
104.21
 21
31.6627
  0
LINE
  8
0
 10
104.21
 20
31.6627
 11
105.917
 21
30.75
  0
LINE
  8
0
 10
105.917
 20
30.75
 11
150
 21
30.75
  0
LINE
  8
0
 10
150
 20
30.75
 11
150
 21
35
  0
LINE
  8
0
 10
150
 20
35
 11
50
 21
35
  0
LINE
  8
0
 10
50
 20
35
 11
50
 21
30
  0
LINE
  8
0
 10
50
 20
30
 11
0
 21
30
  0
LINE
  8
0
 10
0
 20
30
 11
0
 21
0
  0
LINE
  8
0
 10
0
 20
0
 11
200
 21
0
  0
LINE
  8
0
 10
200
 20
0
 11
200
 21
30
  0
LINE
  8
0
 10
62.6667
 20
21.075
 11
62.6667
 21
23.925
  0
LINE
  8
0
 10
62.6667
 20
23.925
 11
70.6667
 21
23.925
  0
LINE
  8
0
 10
70.6667
 20
23.925
 11
70.6667
 21
21.075
  0
LINE
  8
0
 10
70.6667
 20
21.075
 11
62.6667
 21
21.075
  0
LINE
  8
0
 10
99.7269
 20
20.1269
 11
99.4642
 21
20.2066
  0
LINE
  8
0
 10
99.4642
 20
20.2066
 11
99.2222
 21
20.3359
  0
LINE
  8
0
 10
99.2222
 20
20.3359
 11
99.01
 21
20.51
  0
LINE
  8
0
 10
99.01
 20
20.51
 11
98.8359
 21
20.7222
  0
LINE
  8
0
 10
98.8359
 20
20.7222
 11
98.7066
 21
20.9642
  0
LINE
  8
0
 10
98.7066
 20
20.9642
 11
98.6269
 21
21.2269
  0
LINE
  8
0
 10
98.6269
 20
21.2269
 11
98.6
 21
21.5
  0
LINE
  8
0
 10
98.6
 20
21.5
 11
98.6269
 21
21.7731
  0
LINE
  8
0
 10
98.6269
 20
21.7731
 11
98.7066
 21
22.0358
  0
LINE
  8
0
 10
98.7066
 20
22.0358
 11
98.8359
 21
22.2778
  0
LINE
  8
0
 10
98.8359
 20
22.2778
 11
99.01
 21
22.4899
  0
LINE
  8
0
 10
99.01
 20
22.4899
 11
99.2222
 21
22.664
  0
LINE
  8
0
 10
99.2222
 20
22.664
 11
99.4642
 21
22.7934
  0
LINE
  8
0
 10
99.4642
 20
22.7934
 11
99.7269
 21
22.8731
  0
LINE
  8
0
 10
99.7269
 20
22.8731
 11
100
 21
22.9
  0
LINE
  8
0
 10
100
 20
22.9
 11
100.273
 21
22.8731
  0
LINE
  8
0
 10
100.273
 20
22.8731
 11
100.536
 21
22.7934
  0
LINE
  8
0
 10
100.536
 20
22.7934
 11
100.778
 21
22.664
  0
LINE
  8
0
 10
100.778
 20
22.664
 11
100.99
 21
22.4899
  0
LINE
  8
0
 10
100.99
 20
22.4899
 11
101.164
 21
22.2778
  0
LINE
  8
0
 10
101.164
 20
22.2778
 11
101.293
 21
22.0358
  0
LINE
  8
0
 10
101.293
 20
22.0358
 11
101.373
 21
21.7731
  0
LINE
  8
0
 10
101.373
 20
21.7731
 11
101.4
 21
21.5
  0
LINE
  8
0
 10
101.4
 20
21.5
 11
101.373
 21
21.2269
  0
LINE
  8
0
 10
101.373
 20
21.2269
 11
101.293
 21
20.9642
  0
LINE
  8
0
 10
101.293
 20
20.9642
 11
101.164
 21
20.7222
  0
LINE
  8
0
 10
101.164
 20
20.7222
 11
100.99
 21
20.51
  0
LINE
  8
0
 10
100.99
 20
20.51
 11
100.778
 21
20.3359
  0
LINE
  8
0
 10
100.778
 20
20.3359
 11
100.536
 21
20.2066
  0
LINE
  8
0
 10
100.536
 20
20.2066
 11
100.273
 21
20.1269
  0
LINE
  8
0
 10
100.273
 20
20.1269
 11
100
 21
20.1
  0
LINE
  8
0
 10
100
 20
20.1
 11
99.7269
 21
20.1269
  0
LINE
  8
0
 10
11.075
 20
11
 11
11.075
 21
19
  0
LINE
  8
0
 10
11.075
 20
19
 11
13.925
 21
19
  0
LINE
  8
0
 10
13.925
 20
19
 11
13.925
 21
11
  0
LINE
  8
0
 10
13.925
 20
11
 11
11.075
 21
11
  0
LINE
  8
0
 10
173.575
 20
11
 11
173.575
 21
19
  0
LINE
  8
0
 10
173.575
 20
19
 11
176.425
 21
19
  0
LINE
  8
0
 10
176.425
 20
19
 11
176.425
 21
11
  0
LINE
  8
0
 10
176.425
 20
11
 11
173.575
 21
11
  0
LINE
  8
0
 10
123.273
 20
6.075
 11
123.273
 21
8.92499
  0
LINE
  8
0
 10
123.273
 20
8.92499
 11
131.273
 21
8.92499
  0
LINE
  8
0
 10
131.273
 20
8.92499
 11
131.273
 21
6.075
  0
LINE
  8
0
 10
131.273
 20
6.075
 11
123.273
 21
6.075
  0
LINE
  8
0
 10
88.1223
 20
2.53978
 11
87.8564
 21
2.60791
  0
LINE
  8
0
 10
87.8564
 20
2.60791
 11
87.609
 21
2.72661
  0
LINE
  8
0
 10
87.609
 20
2.72661
 11
87.3894
 21
2.8913
  0
LINE
  8
0
 10
87.3894
 20
2.8913
 11
87.2062
 21
3.09564
  0
LINE
  8
0
 10
87.2062
 20
3.09564
 11
87.0664
 21
3.33182
  0
LINE
  8
0
 10
87.0664
 20
3.33182
 11
86.9754
 21
3.59071
  0
LINE
  8
0
 10
86.9754
 20
3.59071
 11
86.9366
 21
3.86241
  0
LINE
  8
0
 10
86.9366
 20
3.86241
 11
86.9516
 21
4.13644
  0
LINE
  8
0
 10
86.9516
 20
4.13644
 11
87.0197
 21
4.40231
  0
LINE
  8
0
 10
87.0197
 20
4.40231
 11
87.1384
 21
4.64977
  0
LINE
  8
0
 10
87.1384
 20
4.64977
 11
87.3031
 21
4.86931
  0
LINE
  8
0
 10
87.3031
 20
4.86931
 11
87.5074
 21
5.05251
  0
LINE
  8
0
 10
87.5074
 20
5.05251
 11
87.7436
 21
5.19231
  0
LINE
  8
0
 10
87.7436
 20
5.19231
 11
88.0025
 21
5.28336
  0
LINE
  8
0
 10
88.0025
 20
5.28336
 11
88.2742
 21
5.32214
  0
LINE
  8
0
 10
88.2742
 20
5.32214
 11
88.5482
 21
5.30719
  0
LINE
  8
0
 10
88.5482
 20
5.30719
 11
88.8141
 21
5.23904
  0
LINE
  8
0
 10
88.8141
 20
5.23904
 11
89.0615
 21
5.12036
  0
LINE
  8
0
 10
89.0615
 20
5.12036
 11
89.2811
 21
4.95567
  0
LINE
  8
0
 10
89.2811
 20
4.95567
 11
89.4643
 21
4.75131
  0
LINE
  8
0
 10
89.4643
 20
4.75131
 11
89.6041
 21
4.51515
  0
LINE
  8
0
 10
89.6041
 20
4.51515
 11
89.6951
 21
4.25624
  0
LINE
  8
0
 10
89.6951
 20
4.25624
 11
89.7339
 21
3.98454
  0
LINE
  8
0
 10
89.7339
 20
3.98454
 11
89.719
 21
3.71051
  0
LINE
  8
0
 10
89.719
 20
3.71051
 11
89.6508
 21
3.44466
  0
LINE
  8
0
 10
89.6508
 20
3.44466
 11
89.5321
 21
3.19719
  0
LINE
  8
0
 10
89.5321
 20
3.19719
 11
89.3674
 21
2.97765
  0
LINE
  8
0
 10
89.3674
 20
2.97765
 11
89.1631
 21
2.79446
  0
LINE
  8
0
 10
89.1631
 20
2.79446
 11
88.9269
 21
2.65465
  0
LINE
  8
0
 10
88.9269
 20
2.65465
 11
88.668
 21
2.5636
  0
LINE
  8
0
 10
88.668
 20
2.5636
 11
88.3963
 21
2.52481
  0
LINE
  8
0
 10
88.3963
 20
2.52481
 11
88.1223
 21
2.53978
  0
ENDSEC
  0
SECTION
  2
OBJECTS
  0
DICTIONARY
  0
ENDSEC
  0
EOF
